M48
INCH
T01C.009803
T02C.015748
;LEADER: 12 
;HEADER: 
;CODE  : ASCII 
;FILE  : 1-16_Power_Splitter-1-2.drl for  ... layers TOP and BOTTOM
;DESIGN: 1-16_Power_Splitter.brd
;T01 Holesize 1. = 9.803000 Tolerance = +0.000000/-0.000000 PLATED MILS Quantity = 876
;T02 Holesize 2. = 15.748000 Tolerance = +0.000000/-0.000000 PLATED MILS Quantity = 156
%
G90
T01
X0460012Y0552788
X0169988Y0552788
X0447788Y0454988
X0182212Y0454988
X0309975Y0442800
X0460012Y0357225
X0169988Y0357225
X0322238Y0315010
X0460012Y0272700
X0169988Y0272738
X0310013Y0187312
X0447675Y0174975
X0182212Y0175012
X0460012Y0077325
X0169988Y0077212
X0541950Y0569650
X0537300Y0567400
X0537300Y0571900
X0532178Y0571914
X0527078Y0571914
X0521069Y0571000
R07X-0007874
X0459938Y0568504
X0453304Y0571000
R07X-0007874
X0393022Y0571887
X0382800Y0567400
X0387922Y0571887
X0382800Y0571900
X0378150Y0569650
X0251550Y0569350
X0246900Y0567100
X0246900Y0571600
X0241778Y0571614
X0236678Y0571614
X0231069Y0571000
R07X-0007874
X0170011Y0568874
X0163304Y0571000
R06X-0007874
X0102922Y0571887
X0108186Y0571000
X0097822Y0571887
X0088050Y0569650
X0092700Y0567400
X0092700Y0571900
X0541950Y0560650
X0541950Y0565150
X0537300Y0558400
X0532178Y0558414
X0537300Y0562900
X0527078Y0558414
X0518979Y0559000
X0511105Y0559000
X0495357Y0559000
X0503231Y0559000
X0487483Y0559000
R02X-0007874
X0451214Y0559000
R06X-0007874
X0398131Y0558817
X0393022Y0558387
X0387922Y0558387
X0382800Y0558400
X0382800Y0562900
X0378150Y0560650
X0378150Y0565150
X0251550Y0560350
X0246900Y0558100
X0251550Y0564850
X0246900Y0562600
X0241778Y0558114
X0236678Y0558114
X0228979Y0559000
R05X-0007874
X0183599Y0559148
X0178238Y0558954
X0161214Y0559000
R02X-0007874
X0129718Y0559000
X0137592Y0559000
X0121844Y0559000
X0113970Y0559000
X0102922Y0558387
X0108596Y0559000
X0097822Y0558387
X0088050Y0560650
X0088050Y0565150
X0092700Y0558400
X0092700Y0562900
X0468722Y0553908
X0451219Y0553908
X0177915Y0553142
X0162157Y0553142
X0466000Y0540436
X0467559Y0547967
X0453803Y0541444
X0452188Y0548031
X0176000Y0540436
X0176947Y0546877
X0164000Y0540496
X0162996Y0546651
X0466000Y0532562
X0454000Y0532622
X0176000Y0532562
X0164000Y0532622
X0466000Y0524688
X0454000Y0524748
X0176000Y0524688
X0164000Y0524748
X0466000Y0516814
X0454000Y0516874
X0176000Y0516814
X0164000Y0516874
X0466000Y0508940
X0454000Y0509000
X0176000Y0508940
X0164000Y0509000
X0466000Y0501066
X0454000Y0501126
X0176000Y0501066
X0164000Y0501126
X0466000Y0493192
X0454000Y0493252
X0176000Y0493192
X0164000Y0493252
X0466000Y0477444
X0466000Y0485318
X0454000Y0485378
X0454000Y0477504
X0176000Y0477444
X0176000Y0485318
X0164000Y0485378
X0164000Y0477504
X0466000Y0469570
X0454000Y0469630
X0176000Y0469570
X0164000Y0469630
X0466000Y0461696
X0450703Y0464169
X0442925Y0463516
X0435655Y0461392
X0428483Y0461000
R14X-0007874
X0303304Y0461000
R14X-0007874
X0186376Y0462305
X0179306Y0463516
X0164030Y0461368
X0463814Y0454998
X0309845Y0458388
X0166807Y0455136
X0466000Y0447383
X0453868Y0446796
X0447474Y0447055
X0434800Y0449000
X0441338Y0447765
X0426926Y0449000
R04X-0007874
X0379682Y0449000
X0387555Y0449000
X0371807Y0449000
R06X-0007874
X0318693Y0449217
X0317983Y0443986
X0300656Y0449000
X0300997Y0442694
X0292782Y0449000
R04X-0007874
X0245538Y0449000
X0253412Y0449000
X0237664Y0449000
R05X-0007874
X0183534Y0446740
X0191220Y0448096
X0176236Y0446352
X0164000Y0447442
X0466000Y0439509
X0454000Y0439568
X0317143Y0438561
X0302289Y0437722
X0176000Y0439509
X0164000Y0439568
X0466000Y0431635
X0454000Y0431694
X0454000Y0423820
X0316000Y0424058
X0316000Y0431932
X0304000Y0426706
X0303709Y0432103
X0176000Y0431635
X0164000Y0431694
X0164000Y0423820
X0466000Y0415887
X0466000Y0423761
X0454000Y0415946
X0316000Y0416184
X0304000Y0418832
X0176000Y0415887
X0176000Y0423761
X0164000Y0415946
X0466000Y0408013
X0454000Y0408072
X0316000Y0408310
X0304000Y0410958
X0176000Y0408013
X0164000Y0408072
X0466000Y0400139
X0454000Y0400198
X0316000Y0400436
X0304000Y0403084
X0176000Y0400139
X0164000Y0400198
X0466000Y0392265
X0454000Y0392324
X0316000Y0392562
X0304000Y0395210
X0176000Y0392265
X0164000Y0392324
X0466000Y0384391
X0454000Y0384450
X0316000Y0384688
X0304000Y0387336
X0304000Y0379462
X0176000Y0384391
X0164000Y0384450
X0466000Y0376517
X0454000Y0376576
X0316000Y0376814
X0304000Y0371588
X0176000Y0376517
X0164000Y0376576
X0466000Y0368643
X0467043Y0362385
X0454062Y0369037
X0452899Y0361997
X0316000Y0368940
X0304000Y0363714
X0176000Y0368643
X0176995Y0361748
X0163884Y0368529
X0162657Y0363039
X0468593Y0354505
X0451220Y0354764
X0316000Y0353192
X0316000Y0361066
X0304000Y0355840
X0178803Y0354643
X0162076Y0357550
X0541650Y0344950
X0541650Y0349450
X0537000Y0347200
X0531878Y0351714
X0537000Y0351700
X0526778Y0351714
X0521069Y0351000
R06X-0007874
X0445430Y0351000
R06X-0007874
X0393022Y0351986
X0387922Y0351986
X0382800Y0352000
X0382800Y0347500
X0378150Y0345250
X0378150Y0349750
X0316000Y0345318
X0304000Y0347966
X0247200Y0347200
X0251850Y0344950
X0247200Y0351700
X0251850Y0349450
X0236978Y0351714
X0242078Y0351714
X0231069Y0351000
R06X-0007874
X0161495Y0350962
X0155430Y0351000
R05X-0007874
X0102922Y0351686
X0108186Y0351000
X0097822Y0351686
X0092700Y0347200
X0088050Y0344950
X0092700Y0351700
X0088050Y0349450
X0541650Y0340450
X0531878Y0338214
X0537000Y0338200
X0537000Y0342700
X0526778Y0338214
X0518979Y0339000
X0511105Y0339000
X0495357Y0339000
X0503231Y0339000
X0487483Y0339000
R02X-0007874
X0460011Y0339000
X0463861Y0339000
X0451214Y0339000
R06X-0007874
X0397809Y0338876
X0393022Y0338486
X0387922Y0338486
X0382800Y0338500
X0382800Y0343000
X0378150Y0340750
X0316000Y0337444
X0304000Y0340092
X0247200Y0338200
X0247200Y0342700
X0251850Y0340450
X0236978Y0338214
X0242078Y0338214
X0228979Y0339000
R06X-0007874
X0174411Y0339014
X0170020Y0342114
X0165214Y0339000
R06X-0007874
X0102922Y0338186
X0110096Y0339000
X0097822Y0338186
X0092700Y0338200
X0092700Y0342700
X0088050Y0340450
X0316000Y0329570
X0304000Y0332218
X0347715Y0321670
X0347715Y0317170
X0352365Y0319420
X0337493Y0321684
X0342593Y0321684
X0331749Y0321000
X0325732Y0322245
X0319311Y0323516
X0304000Y0324344
X0347715Y0312670
X0347715Y0308170
X0352365Y0314920
X0352365Y0310420
X0337493Y0308184
X0342593Y0308184
X0332708Y0309038
X0326895Y0308005
X0304000Y0311290
X0307068Y0315270
X0319791Y0305615
X0316000Y0301105
X0304000Y0303416
X0537600Y0291700
X0532478Y0291714
X0527378Y0291714
X0521069Y0291000
R07X-0007874
X0453304Y0291000
R07X-0007874
X0393022Y0291986
X0387922Y0291986
X0382800Y0292000
X0316000Y0293231
X0304000Y0295542
X0247200Y0292000
X0236978Y0292014
X0242078Y0292014
X0231069Y0291000
R07X-0007874
X0163304Y0291000
R06X-0007874
X0102922Y0291986
X0108186Y0291000
X0097822Y0291986
X0092700Y0292000
X0542250Y0284950
X0542250Y0289450
X0537600Y0282700
X0537600Y0287200
X0459809Y0288145
X0382800Y0283000
X0382800Y0287500
X0378150Y0289750
X0378150Y0285250
X0316000Y0285357
X0304000Y0287668
X0247200Y0283000
X0247200Y0287500
X0251850Y0285250
X0251850Y0289750
X0170011Y0286874
X0092700Y0283000
X0088050Y0289750
X0092700Y0287500
X0088050Y0285250
X0542250Y0280450
X0537600Y0278200
X0532478Y0278214
X0527378Y0278214
X0518979Y0279000
X0511105Y0279000
X0495357Y0279000
X0503231Y0279000
X0487483Y0279000
R02X-0007874
X0468851Y0272387
X0451214Y0279000
X0451219Y0272387
X0443340Y0279000
R05X-0007874
X0398195Y0278845
X0393022Y0278486
X0387922Y0278486
X0382800Y0278500
X0378150Y0280750
X0316000Y0277483
X0304000Y0279794
X0247200Y0278500
X0251850Y0280750
X0236978Y0278514
X0242078Y0278514
X0228979Y0279000
R06X-0007874
X0178804Y0273549
X0161214Y0279000
X0161689Y0273419
X0153340Y0279000
X0145466Y0279000
X0129718Y0279000
X0137592Y0279000
X0121844Y0279000
X0113970Y0279000
X0102922Y0278486
X0107826Y0278974
X0097822Y0278486
X0088050Y0280750
X0092700Y0278500
X0467559Y0266445
X0452511Y0266510
X0316000Y0269609
X0304000Y0271920
X0304000Y0264046
X0177964Y0267348
X0162657Y0267607
X0466000Y0260436
X0454000Y0260325
X0316000Y0261735
X0304000Y0256172
X0176000Y0260436
X0164078Y0260438
X0466000Y0252562
X0454000Y0252451
X0316000Y0245987
X0316000Y0253861
X0304000Y0248298
X0176000Y0252562
X0164000Y0252521
X0466000Y0236814
X0466000Y0244688
X0454000Y0244577
X0454000Y0236703
X0316000Y0238113
X0304000Y0240424
X0176000Y0236814
X0176000Y0244688
X0164000Y0244647
X0164000Y0236773
X0466000Y0228940
X0454000Y0228829
X0316000Y0230239
X0304000Y0232550
X0176000Y0228940
X0164000Y0228899
X0466000Y0221066
X0454000Y0220955
X0316000Y0222365
X0304000Y0224676
X0176000Y0221066
X0164000Y0221025
X0466000Y0213192
X0454000Y0213081
X0316000Y0214491
X0304000Y0216802
X0176000Y0213192
X0164000Y0213151
X0466000Y0205318
X0454000Y0205207
X0316000Y0206617
X0304000Y0208928
X0304000Y0201054
X0176000Y0205318
X0164000Y0205277
X0466000Y0197444
X0454000Y0197333
X0317143Y0194175
X0316239Y0199729
X0302741Y0194304
X0176000Y0197444
X0164000Y0197403
X0466000Y0189570
X0454000Y0189459
X0450639Y0183648
X0317853Y0187458
X0301836Y0187587
X0176000Y0189570
X0179191Y0183970
X0164000Y0189529
X0466000Y0181696
X0463814Y0175123
X0443406Y0182550
X0436257Y0181000
R14X-0007874
X0318693Y0181000
X0301449Y0181129
X0295430Y0181000
R13X-0007874
X0186295Y0182808
X0166532Y0175058
X0164143Y0181451
X0466000Y0167483
X0443341Y0167114
X0450252Y0166016
X0434802Y0169000
R05X-0007874
X0379684Y0169000
X0387558Y0169000
X0371810Y0169000
R07X-0007874
X0310039Y0171247
X0300701Y0169000
R05X-0007874
X0245583Y0169000
X0253457Y0169000
X0237709Y0169000
R05X-0007874
X0184228Y0167307
X0190622Y0167760
X0176995Y0165951
X0164000Y0167429
X0466000Y0159609
X0454000Y0159475
X0176000Y0159521
X0164000Y0159555
X0466000Y0151735
X0454000Y0151601
X0176000Y0151647
X0164000Y0151681
X0466000Y0143861
X0454000Y0143727
X0176000Y0143773
X0164000Y0143807
X0466000Y0135987
X0454000Y0135853
X0176000Y0135899
X0164000Y0135933
X0466000Y0128113
X0454000Y0127979
X0176000Y0128025
X0164000Y0128059
X0466000Y0112365
X0466000Y0120239
X0454000Y0120105
X0454000Y0112231
X0176000Y0112277
X0176000Y0120151
X0164000Y0120185
X0164000Y0112311
X0466000Y0104491
X0454000Y0104357
X0176000Y0104403
X0164000Y0104437
X0466000Y0096617
X0454000Y0096483
X0176000Y0096529
X0164000Y0096563
X0466000Y0088743
X0453610Y0088321
X0176285Y0088160
X0163626Y0089322
X0468516Y0082175
X0452319Y0081863
X0178158Y0080668
X0162464Y0082929
X0541650Y0069550
X0537000Y0067300
X0531878Y0071814
X0537000Y0071800
X0526778Y0071814
X0521069Y0071000
R06X-0007874
X0469563Y0075405
X0451091Y0074823
X0445430Y0071000
R06X-0007874
X0393022Y0071786
X0382800Y0067300
X0387922Y0071786
X0382800Y0071800
X0378150Y0069550
X0247500Y0067300
X0252150Y0069550
X0247500Y0071800
X0237278Y0071814
X0242378Y0071814
X0231269Y0071000
R06X-0007874
X0178933Y0073887
X0161301Y0075114
X0155430Y0071000
R05X-0007874
X0102922Y0071786
X0108186Y0071000
X0097822Y0071786
X0088050Y0069550
X0092700Y0067300
X0092700Y0071800
X0541650Y0060550
X0541650Y0065050
X0531878Y0058314
X0537000Y0058300
X0537000Y0062800
X0526778Y0058314
X0518979Y0059000
X0511105Y0059000
X0495357Y0059000
X0503231Y0059000
X0487483Y0059000
R03X-0007874
X0460101Y0062423
X0454214Y0059000
R04X-0007874
X0406970Y0059000
X0414844Y0059000
X0399096Y0059000
X0393022Y0058286
X0387922Y0058286
X0382800Y0058300
X0382800Y0062800
X0378150Y0060550
X0378150Y0065050
X0247500Y0058300
X0252150Y0060550
X0247500Y0062800
X0252150Y0065050
X0237278Y0058314
X0242378Y0058314
X0228516Y0059000
R07X-0007874
X0170214Y0061906
X0163714Y0059000
X0147966Y0059000
X0155840Y0059000
X0140092Y0059000
X0132218Y0059000
R02X-0007874
X0102922Y0058286
X0108596Y0059000
X0097822Y0058286
X0088050Y0060550
X0092700Y0058300
X0092700Y0062800
X0088050Y0065050
T02
X0623261Y0622285
R02X-0015748
X0576016Y0622285
R02X-0015748
X0528772Y0622285
R02X-0015748
X0481528Y0622285
R03X-0015748
X0418536Y0622285
R02X-0015748
X0371292Y0622285
R02X-0015748
X0324048Y0622285
R02X-0015748
X0276804Y0622285
R02X-0015748
X0229560Y0622285
R02X-0015748
X0182316Y0622285
R03X-0015748
X0119324Y0622285
R02X-0015748
X0072080Y0622285
R02X-0015748
X0024835Y0622285
X0009087Y0622285
X0623415Y0606561
X0008515Y0606661
X0623415Y0590813
X0008515Y0590913
X0623415Y0575065
X0008515Y0575165
X0623415Y0559316
X0008515Y0559417
X0623415Y0543568
X0008515Y0543669
X0623415Y0527820
X0008515Y0527921
X0623415Y0512072
X0008515Y0512172
X0623415Y0496324
X0008515Y0496424
X0623415Y0480576
X0008515Y0480676
X0623415Y0464828
X0008515Y0464928
X0623415Y0449080
X0008515Y0449180
X0623415Y0433332
X0008515Y0433432
X0623415Y0417584
X0008515Y0417684
X0623415Y0401836
X0008515Y0401936
X0623415Y0386088
X0008515Y0386188
X0623415Y0370340
X0008515Y0370440
X0623415Y0354592
X0008515Y0354692
X0623415Y0338844
X0008515Y0338944
X0623415Y0323096
X0008515Y0323196
X0623415Y0307348
X0008515Y0307448
X0623415Y0291600
X0008515Y0291700
X0623415Y0275852
X0008515Y0275952
X0623415Y0260104
X0008515Y0260204
X0623415Y0244356
X0008515Y0244456
X0623415Y0228608
X0008515Y0228708
X0623415Y0212860
X0008515Y0212960
X0623415Y0197112
X0008515Y0197212
X0623415Y0181364
X0008515Y0181464
X0623415Y0165616
X0008515Y0165716
X0623415Y0149868
X0008515Y0149968
X0623415Y0134120
X0008515Y0134220
X0623415Y0118372
X0008515Y0118472
X0623415Y0102624
X0008515Y0102724
X0623415Y0086876
X0008515Y0086976
X0623415Y0071128
X0008515Y0071228
X0623415Y0055380
X0008515Y0055480
X0623415Y0039632
X0008515Y0039732
X0623415Y0023884
X0008515Y0023984
X0623561Y0007985
R02X-0015748
X0576316Y0007985
R02X-0015748
X0529072Y0007985
R02X-0015748
X0481828Y0007985
R03X-0015748
X0418836Y0007985
R02X-0015748
X0371592Y0007985
R02X-0015748
X0324348Y0007985
R02X-0015748
X0277104Y0007985
R02X-0015748
X0229860Y0007985
R02X-0015748
X0182616Y0007985
R03X-0015748
X0119624Y0007985
R02X-0015748
X0072380Y0007985
R02X-0015748
X0025135Y0007985
X0009387Y0007985
M30
