M48
METRIC
T01C.249
T02C.4
;LEADER: 12 
;HEADER: 
;CODE  : ASCII 
;FILE  : 1-16_Power_Splitter-1-2.drl for  ... layers TOP and BOTTOM
;DESIGN: 1-16_Power_Splitter.brd
;T01 Holesize 1. = 0.249000 Tolerance = +0.000000/-0.000000 PLATED MM Quantity = 738
;T02 Holesize 2. = 0.400000 Tolerance = +0.000000/-0.000000 PLATED MM Quantity = 156
%
G90
T01
X0004142740Y0002077720
X0004500880Y0014198600
X0004602480Y0011836400
X0008836660Y0008049260
X0008844280Y0008186420
X0008247380Y0007970520
X0013680440Y0008821420
X0013680440Y0008983980
X0009687560Y0008907780
X0013662660Y0007355840
X0009710420Y0007366000
X0013657580Y0001770380
X0009705340Y0001755140
X0006197600Y0001958340
X0002326640Y0007350760
X0009672320Y0014411960
X0009672320Y0014574520
X0006299200Y0014478000
X0002319020Y0014483080
X0013594080Y0001605280
X0013383770Y0001618000
X0013432000Y0001938320
X0013611860Y0001932940
X0009913620Y0001953260
X0009738360Y0001922780
X0009969500Y0001600200
X0009776460Y0001605280
X0006291580Y0001653540
X0006096000Y0001597660
X0005994400Y0001948180
X0006301740Y0001828800
X0002473960Y0001971040
X0002308860Y0001866900
X0002565400Y0001590040
X0002349500Y0001643380
X0002382520Y0007531100
X0002628900Y0007546340
X0002631440Y0007185660
X0002413000Y0007185660
X0006299200Y0007279640
X0006131560Y0007180580
X0006062980Y0007556500
X0006283960Y0007500620
X0006106160Y0008709660
X0006278880Y0008813800
X0006052820Y0009080500
X0006261100Y0009047480
X0002494280Y0009072880
X0002341880Y0008968740
X0002585720Y0008707120
X0002370000Y0008729680
X0002418230Y0014638000
X0002618230Y0014638000
X0002570000Y0014317680
X0002370000Y0014317680
X0006240780Y0014315440
X0006078220Y0014292580
X0006066000Y0014638320
X0006245860Y0014632940
X0009806940Y0014665960
X0010015220Y0014635480
X0009997440Y0014317980
X0009789160Y0014302740
X0013495020Y0014297660
X0013657580Y0014391640
X0013432000Y0014638320
X0013639800Y0014602460
X0013535660Y0008712200
X0013345160Y0008714740
X0013375640Y0009075420
X0013568680Y0009075420
X0013583770Y0007206000
X0013434060Y0007188200
X0013432000Y0007526320
X0013616940Y0007518400
X0009786620Y0007536180
X0010007600Y0007536180
X0009994900Y0007183120
X0009789160Y0007178040
X0009751060Y0009057640
X0009916160Y0009080500
X0009936000Y0008729680
X0009736000Y0008729680
X0008729980Y0007940040
X0008575040Y0007950200
X0008606000Y0008288320
X0008770620Y0008295640
X0008263450Y0008254200
X0008463450Y0008254200
X0008425180Y0007955280
X0004602480Y0001907540
X0007691120Y0011376660
X0012173370Y0001904200
R05X0000200000
X0013161050Y0001651800
R06X-0000200000
X0011761050Y0001652330
X0011561060Y0001651800
R07X-0000200000
X0010078720Y0001927860
X0010270090Y0001904200
R06X0000200000
X0011910060Y0001950720
X0004804590Y0001904200
R05X0000200000
X0005900420Y0001653540
X0005756140Y0001651800
R06X-0000200000
X0004359430Y0001687950
X0004162730Y0001651800
R07X-0000200000
X0002687320Y0001938020
X0002904090Y0001904200
R06X0000200000
X0004495800Y0002085340
X0004470850Y0007492200
R07X0000200000
X0005908040Y0007236460
X0005738750Y0007239800
R06X-0000200000
X0004142740Y0007063740
X0004032740Y0007239800
R06X-0000200000
X0002840410Y0007492200
R07X0000200000
X0004493260Y0007033260
X0004444200Y0006795240
R10Y-0000200000
X0004566920Y0004406900
X0004444200Y0004289230
R10Y-0000200000
X0004191800Y0002254410
R23Y0000200000
X0008242400Y0004698200
R15X0000200000
X0011371580Y0004404360
X0011157070Y0004445800
R32X-0000200000
X0004645660Y0004749800
X0004860090Y0004698200
R14X0000200000
X0008082280Y0004782820
X0011866880Y0007002780
X0011810200Y0006798320
R10Y-0000200000
X0011764270Y0004603660
X0011810200Y0004409000
R11Y-0000200000
X0011503660Y0002136140
X0011557800Y0002349360
R10Y0000200000
X0011419840Y0004744720
X0011557800Y0004855370
R10Y0000200000
X0011837050Y0007492200
R07X0000200000
X0013268960Y0007231380
X0013104150Y0007239800
R06X-0000200000
X0011503660Y0007035800
X0011399290Y0007239800
R06X-0000200000
X0010205890Y0007492200
R07X0000200000
X0011859260Y0009131300
X0011996460Y0009016200
R06X0000200000
X0013154410Y0008763800
R06X-0000200000
X0011754510Y0008770110
X0011554610Y0008763800
R07X-0000200000
X0010092800Y0009016200
R07X0000200000
X0011866880Y0014147800
X0011810200Y0013910890
R10Y-0000200000
X0011764740Y0011716130
X0011810200Y0011521360
R11Y-0000200000
X0011511280Y0009237980
X0011557800Y0009460400
R10Y0000200000
X0011422380Y0011864340
X0011557800Y0011966410
R10Y0000200000
X0011837340Y0014604200
R07X0000200000
X0013301980Y0014328140
X0013103300Y0014351800
R06X-0000200000
X0011508740Y0014157960
X0011397280Y0014351800
R06X-0000200000
X0010206410Y0014604200
R07X0000200000
X0008039100Y0011336020
X0008000200Y0011119080
R13Y-0000200000
X0008007250Y0008319200
X0008064500Y0007937500
X0008000200Y0007783000
R14Y-0000200000
X0007747800Y0004977180
R15Y0000200000
X0007778590Y0008174790
X0007747800Y0008372410
R14Y0000200000
X0008046350Y0011810200
R16X0000200000
X0011356340Y0011506200
X0011135200Y0011557800
R15X-0000200000
X0007629190Y0011557800
R14X-0000200000
X0004796410Y0011810200
R15X0000200000
X0004666140Y0009016200
R06X0000200000
X0005923280Y0008735060
X0005756140Y0008763800
R06X-0000200000
X0004359430Y0008799950
X0004162730Y0008763800
R07X-0000200000
X0002704090Y0009016200
R07X0000200000
X0004485640Y0009151620
X0004465320Y0014061440
X0004444200Y0013907240
R10Y-0000200000
X0004597400Y0011516360
X0004444200Y0011401230
R10Y-0000200000
X0004193540Y0009354820
X0004191800Y0009566410
R22Y0000200000
X0004470850Y0014604200
R07X0000200000
X0005918200Y0014333220
X0005738750Y0014351800
R06X-0000200000
X0004140200Y0014183360
X0004032740Y0014351800
R06X-0000200000
X0002840410Y0014604200
R07X0000200000
T02
X0000216270Y0015409180
R37Y-0000400000
X0015834730Y0015406640
R37Y-0000400000
X0015838440Y0000202830
R39X-0000400000
X0000630820Y0015806050
X0000230820Y0015806050
X0001030820Y0015806050
R37X0000400000
M30
