G04 ================== begin FILE IDENTIFICATION RECORD ==================*
G04 Layout Name:  1-16_Power_Splitter.brd*
G04 Film Name:    BOTTOM_LAYER*
G04 File Format:  Gerber RS274X*
G04 File Origin:  Cadence Allegro 17.2-S047*
G04 Origin Date:  Fri Apr 26 13:07:36 2019*
G04 *
G04 Layer:  VIA CLASS/BOTTOM*
G04 Layer:  PIN/BOTTOM*
G04 Layer:  ETCH/BOTTOM*
G04 Layer:  BOARD GEOMETRY/DESIGN_OUTLINE*
G04 *
G04 Offset:    (0.0000 0.0000)*
G04 Mirror:    No*
G04 Mode:      Positive*
G04 Rotation:  0*
G04 FullContactRelief:  No*
G04 UndefLineWidth:     0.0000*
G04 ================== end FILE IDENTIFICATION RECORD ====================*
%FSLAX55Y55*MOIN*%
%IR0*IPPOS*OFA0.00000B0.00000*MIA0B0*SFA1.00000B1.00000*%
%ADD10C,.025591*%
%ADD11C,.019646*%
G75*
%LPD*%
G75*
G36*
G01X629900Y100D02*
X100D01*
Y629900D01*
X629900D01*
Y100D01*
G37*
G54D10*
X9387Y7985D03*
X8515Y23983D03*
Y39731D03*
Y55480D03*
Y71228D03*
Y86976D03*
Y102724D03*
Y118472D03*
Y134220D03*
Y149968D03*
Y165716D03*
Y181464D03*
Y197212D03*
Y212960D03*
Y228708D03*
Y244456D03*
Y260204D03*
Y275952D03*
Y291700D03*
Y307448D03*
Y323196D03*
Y338944D03*
Y354692D03*
Y370440D03*
Y386188D03*
Y401936D03*
Y417684D03*
Y433432D03*
Y449180D03*
Y464928D03*
Y480676D03*
Y496424D03*
Y512172D03*
Y527920D03*
Y543669D03*
Y559417D03*
Y575165D03*
Y590913D03*
Y606661D03*
X9087Y622285D03*
X25135Y7985D03*
X24835Y622285D03*
X40883Y7985D03*
X40583Y622285D03*
X56631Y7985D03*
X56331Y622285D03*
X72380Y7985D03*
X72080Y622285D03*
X88128Y7985D03*
X87828Y622285D03*
X103876Y7985D03*
X103576Y622285D03*
X119624Y7985D03*
X119324Y622285D03*
X135372Y7985D03*
X135072Y622285D03*
X151120Y7985D03*
X150820Y622285D03*
X166868Y7985D03*
X166568Y622285D03*
X182616Y7985D03*
X182316Y622285D03*
X198364Y7985D03*
X198064Y622285D03*
X214112Y7985D03*
X213812Y622285D03*
X229860Y7985D03*
X229560Y622285D03*
X245608Y7985D03*
X245308Y622285D03*
X261356Y7985D03*
X261056Y622285D03*
X277104Y7985D03*
X276804Y622285D03*
X292852Y7985D03*
X292552Y622285D03*
X308600Y7985D03*
X308300Y622285D03*
X324348Y7985D03*
X324048Y622285D03*
X340096Y7985D03*
X339796Y622285D03*
X355844Y7985D03*
X355544Y622285D03*
X371592Y7985D03*
X371292Y622285D03*
X387340Y7985D03*
X387040Y622285D03*
X403088Y7985D03*
X402788Y622285D03*
X418836Y7985D03*
X418536Y622285D03*
X434584Y7985D03*
X434284Y622285D03*
X450332Y7985D03*
X450032Y622285D03*
X466080Y7985D03*
X465780Y622285D03*
X481828Y7985D03*
X481528Y622285D03*
X497576Y7985D03*
X497276Y622285D03*
X513324Y7985D03*
X513024Y622285D03*
X529072Y7985D03*
X528772Y622285D03*
X544820Y7985D03*
X544520Y622285D03*
X560569Y7985D03*
X560269Y622285D03*
X576317Y7985D03*
X576017Y622285D03*
X592065Y7985D03*
X591765Y622285D03*
X607813Y7985D03*
X607513Y622285D03*
X623561Y7985D03*
X623415Y23883D03*
Y39631D03*
Y55380D03*
Y71128D03*
Y86876D03*
Y102624D03*
Y118372D03*
Y134120D03*
Y149868D03*
Y165616D03*
Y181364D03*
Y197112D03*
Y212860D03*
Y228608D03*
Y244356D03*
Y260104D03*
Y275852D03*
Y291600D03*
Y307348D03*
Y323096D03*
Y338844D03*
Y354592D03*
Y370340D03*
Y386088D03*
Y401836D03*
Y417584D03*
Y433332D03*
Y449080D03*
Y464828D03*
Y480576D03*
Y496324D03*
Y512072D03*
Y527820D03*
Y543569D03*
Y559317D03*
Y575065D03*
Y590813D03*
Y606561D03*
X623261Y622285D03*
G54D11*
X92500Y64700D03*
X90900Y73500D03*
X91600Y289400D03*
X93307Y343688D03*
X92200Y353100D03*
X93307Y563688D03*
X91300Y570200D03*
X101000Y62600D03*
X97400Y77600D03*
X95000Y282900D03*
X93800Y296500D03*
X101800Y342800D03*
X98200Y357200D03*
X101181Y563688D03*
X95206Y576299D03*
X108769Y65031D03*
X105800Y76300D03*
X103600Y282900D03*
X103500Y297100D03*
X108769Y345031D03*
X106460Y354969D03*
X103080Y576299D03*
X116643Y65031D03*
X114334Y74969D03*
X111525Y285031D03*
X119399D03*
X119701Y294969D03*
X111827D03*
X116643Y345031D03*
X114334Y354969D03*
X111525Y565031D03*
X119399D03*
X119701Y574969D03*
X111827D03*
X124517Y65031D03*
X122208Y74969D03*
X127273Y285031D03*
X127575Y294969D03*
X124517Y345031D03*
X122208Y354969D03*
X127273Y565031D03*
X127575Y574969D03*
X132391Y65031D03*
X137956Y74969D03*
X130082D03*
X135147Y285031D03*
X135449Y294969D03*
X132391Y345031D03*
X137956Y354969D03*
X130082D03*
X135147Y565031D03*
X135449Y574969D03*
X140265Y65031D03*
X145830Y74969D03*
X143021Y285031D03*
X143323Y294969D03*
X140265Y345031D03*
X145830Y354969D03*
X143021Y565031D03*
X143323Y574969D03*
X148139Y65031D03*
X156013D03*
X153704Y74969D03*
X150895Y285031D03*
X151197Y294969D03*
X148139Y345031D03*
X156013D03*
X153704Y354969D03*
X150895Y565031D03*
X151197Y574969D03*
X163887Y65031D03*
X161578Y74969D03*
X163100Y81800D03*
Y278100D03*
X158769Y285031D03*
X159071Y294969D03*
X163887Y345031D03*
X161578Y354969D03*
X158769Y565031D03*
X163000Y558400D03*
X159071Y574969D03*
X171631Y66455D03*
X165031Y88756D03*
Y96630D03*
Y104504D03*
Y120252D03*
Y112378D03*
Y128126D03*
Y136000D03*
Y143874D03*
Y151748D03*
Y159622D03*
Y167496D03*
Y175370D03*
Y191119D03*
Y183244D03*
Y198993D03*
Y206867D03*
Y214741D03*
Y222615D03*
Y230489D03*
Y238363D03*
Y254111D03*
Y246237D03*
Y261985D03*
Y269859D03*
X166945Y294969D03*
X171631Y346455D03*
X165100Y368300D03*
X165031Y376630D03*
Y384504D03*
Y392378D03*
Y400252D03*
Y408126D03*
Y416000D03*
Y431748D03*
Y423874D03*
Y439622D03*
Y447496D03*
Y455370D03*
Y463244D03*
Y471119D03*
Y478993D03*
Y494741D03*
Y486867D03*
Y502615D03*
Y510489D03*
Y518363D03*
Y526237D03*
Y534111D03*
Y541985D03*
Y549859D03*
X166945Y574969D03*
X179376Y65031D03*
X181200Y75100D03*
X177000Y82100D03*
X174969Y90127D03*
Y98001D03*
Y105875D03*
Y113749D03*
Y121623D03*
Y129497D03*
Y137371D03*
Y145245D03*
Y153119D03*
Y160993D03*
Y168867D03*
X179800Y173500D03*
X174969Y188789D03*
Y196663D03*
Y204537D03*
Y212411D03*
Y220285D03*
Y228159D03*
Y236033D03*
Y243907D03*
Y251781D03*
Y259655D03*
Y267529D03*
X176900Y276900D03*
X178691Y285031D03*
X176018Y294969D03*
X179376Y345031D03*
X176600Y360300D03*
X174969Y370127D03*
Y378001D03*
Y385875D03*
Y393749D03*
Y401623D03*
Y409497D03*
Y417371D03*
Y425245D03*
Y433119D03*
Y440993D03*
Y448867D03*
X181000Y453400D03*
X181200Y466000D03*
X174969Y468789D03*
Y476663D03*
Y484537D03*
Y492411D03*
Y500285D03*
Y508159D03*
Y516033D03*
Y523907D03*
Y531781D03*
Y539655D03*
Y547529D03*
X175800Y553600D03*
X178691Y565031D03*
X177200Y559000D03*
X176018Y574969D03*
X187250Y65031D03*
X189157Y74969D03*
X187286Y175031D03*
X191342Y184969D03*
X182900Y187000D03*
X186565Y285031D03*
X191766Y294969D03*
X183892D03*
X187250Y345031D03*
X191580Y354969D03*
X183706D03*
X190126Y455031D03*
X188835Y464969D03*
X186565Y565031D03*
X191766Y574969D03*
X183892D03*
X195124Y65031D03*
X197031Y74969D03*
X195160Y175031D03*
X199216Y184969D03*
X194439Y285031D03*
X199640Y294969D03*
X195124Y345031D03*
X199454Y354969D03*
X198000Y455031D03*
X196709Y464969D03*
X194439Y565031D03*
X199640Y574969D03*
X202998Y65031D03*
X204905Y74969D03*
X203034Y175031D03*
X207090Y184969D03*
X202313Y285031D03*
X207514Y294969D03*
X202998Y345031D03*
X207328Y354969D03*
X205874Y455031D03*
X204583Y464969D03*
X202313Y565031D03*
X207514Y574969D03*
X210872Y65031D03*
X212779Y74969D03*
X210908Y175031D03*
X214964Y184969D03*
X210187Y285031D03*
X218061D03*
X215388Y294969D03*
X210872Y345031D03*
X215202Y354969D03*
X213748Y455031D03*
X212457Y464969D03*
X210187Y565031D03*
X218061D03*
X215388Y574969D03*
X218746Y65031D03*
X226620D03*
X220653Y74969D03*
X218782Y175031D03*
X226656D03*
X222838Y184969D03*
X225935Y285031D03*
X223262Y294969D03*
X218746Y345031D03*
X226620D03*
X223076Y354969D03*
X221622Y455031D03*
X220331Y464969D03*
X225935Y565031D03*
X223262Y574969D03*
X232300Y65100D03*
X228527Y74969D03*
X236000Y76700D03*
X234530Y175031D03*
X230712Y184969D03*
X232600Y284900D03*
X231136Y294969D03*
X233200Y343900D03*
X230950Y354969D03*
X229496Y455031D03*
X236079Y464969D03*
X228205D03*
X233000Y564300D03*
X231136Y574969D03*
X240000Y62900D03*
X244000Y77100D03*
X242404Y175031D03*
X238586Y184969D03*
X241400Y282700D03*
X238700Y297500D03*
X240400Y342900D03*
X238300Y357500D03*
X237370Y455031D03*
X245244D03*
X243953Y464969D03*
X239300Y562700D03*
X238819Y576312D03*
X247700Y65100D03*
X248100Y72000D03*
X250278Y175031D03*
X246460Y184969D03*
X248000Y286600D03*
X247400Y295300D03*
X247200Y347000D03*
X246500Y356200D03*
X253118Y455031D03*
X251827Y464969D03*
X245700Y563600D03*
X248000Y570000D03*
X245900Y576100D03*
X258152Y175031D03*
X262208Y184969D03*
X254334D03*
X260992Y455031D03*
X259701Y464969D03*
X266026Y175031D03*
X270082Y184969D03*
X268866Y455031D03*
X267575Y464969D03*
X273900Y175031D03*
X277956Y184969D03*
X276740Y455031D03*
X275449Y464969D03*
X281774Y175031D03*
X289648D03*
X285830Y184969D03*
X284614Y455031D03*
X283323Y464969D03*
X297522Y175031D03*
X293704Y184969D03*
X292488Y455031D03*
X291197Y464969D03*
X305396Y175031D03*
X301578Y184969D03*
X305031Y195952D03*
Y203826D03*
Y211700D03*
Y227448D03*
Y219574D03*
Y235322D03*
Y243196D03*
Y251070D03*
Y258944D03*
Y266818D03*
Y274692D03*
Y282566D03*
Y298314D03*
Y290440D03*
Y306188D03*
Y314062D03*
X306244Y321842D03*
X305031Y329622D03*
Y337496D03*
Y345370D03*
Y361119D03*
Y353244D03*
Y368993D03*
Y376867D03*
Y384741D03*
Y392615D03*
Y400489D03*
Y408363D03*
Y416237D03*
Y431985D03*
Y424111D03*
Y439859D03*
X302800Y447900D03*
X300362Y455031D03*
X306945Y464969D03*
X299071D03*
X313270Y175031D03*
X314969Y196181D03*
Y204055D03*
Y211929D03*
Y219803D03*
Y227677D03*
Y235551D03*
Y243425D03*
Y251299D03*
Y259173D03*
Y267047D03*
Y274921D03*
Y282795D03*
Y290669D03*
Y298543D03*
Y306417D03*
X315246Y327528D03*
X314969Y335397D03*
Y343271D03*
Y351145D03*
Y359019D03*
Y366893D03*
Y374767D03*
Y382641D03*
Y390515D03*
Y398389D03*
Y406263D03*
Y414137D03*
Y422011D03*
Y429885D03*
Y437759D03*
X316500Y446300D03*
X321144Y175031D03*
X318200Y188300D03*
X324504Y184969D03*
X317500Y312500D03*
X324700Y313800D03*
X325333Y324969D03*
X320283Y455031D03*
X324659Y464969D03*
X316785D03*
X329019Y175031D03*
X332378Y184969D03*
X331700Y313200D03*
X333207Y324969D03*
X328157Y455031D03*
X332533Y464969D03*
X336893Y175031D03*
X340252Y184969D03*
X337600Y313000D03*
X338819Y326312D03*
X336031Y455031D03*
X340407Y464969D03*
X344767Y175031D03*
X348126Y184969D03*
X343700Y312600D03*
X348200Y322300D03*
X347900Y316900D03*
X345300Y326600D03*
X343906Y455031D03*
X351780D03*
X348281Y464969D03*
X352641Y175031D03*
X360515D03*
X356000Y184969D03*
X359654Y455031D03*
X356156Y464969D03*
X368389Y175031D03*
X363874Y184969D03*
X367528Y455031D03*
X364030Y464969D03*
X376263Y175031D03*
X371748Y184969D03*
X375402Y455031D03*
X371904Y464969D03*
X384900Y63200D03*
X383400Y75700D03*
X382100Y69100D03*
X384137Y175031D03*
X387496Y184969D03*
X379622D03*
X385400Y282600D03*
X385300Y296700D03*
X382300Y290000D03*
X383307Y343688D03*
X381400Y350700D03*
X383900Y356600D03*
X383276Y455031D03*
X387652Y464969D03*
X379778D03*
X385400Y563100D03*
X380800Y573800D03*
Y567400D03*
X386100Y577400D03*
X392500Y63000D03*
X396800Y75900D03*
X390300Y76900D03*
X392011Y175031D03*
X395370Y184969D03*
X393500Y282800D03*
X394000Y296700D03*
X391181Y343688D03*
X390400Y357500D03*
X391150Y455031D03*
X395526Y464969D03*
X393600Y563700D03*
X394300Y576200D03*
X400042Y65031D03*
X404334Y74969D03*
X399885Y175031D03*
X403244Y184969D03*
X401547Y285031D03*
X401807Y294969D03*
X399788Y345031D03*
X405228Y354969D03*
X397354D03*
X399024Y455031D03*
X403400Y464969D03*
X401468Y565031D03*
X401827Y574969D03*
X407916Y65031D03*
X412208Y74969D03*
X407759Y175031D03*
X411118Y184969D03*
X409421Y285031D03*
X409681Y294969D03*
X407662Y345031D03*
X413102Y354969D03*
X406898Y455031D03*
X414772D03*
X411274Y464969D03*
X409342Y565031D03*
X409701Y574969D03*
X415790Y65031D03*
X423664D03*
X420082Y74969D03*
X415633Y175031D03*
X423507D03*
X418992Y184969D03*
X417295Y285031D03*
X417555Y294969D03*
X415536Y345031D03*
X423410D03*
X420976Y354969D03*
X422646Y455031D03*
X419148Y464969D03*
X417216Y565031D03*
X417575Y574969D03*
X431538Y65031D03*
X427956Y74969D03*
X431381Y175031D03*
X426866Y184969D03*
X425169Y285031D03*
X425429Y294969D03*
X431284Y345031D03*
X428850Y354969D03*
X430520Y455031D03*
X427022Y464969D03*
X425090Y565031D03*
X425449Y574969D03*
X439412Y65031D03*
X435830Y74969D03*
X439255Y175031D03*
X434740Y184969D03*
X433043Y285031D03*
X440917D03*
X441177Y294969D03*
X433303D03*
X439158Y345031D03*
X436724Y354969D03*
X438394Y455031D03*
X434896Y464969D03*
X432964Y565031D03*
X440838D03*
X441197Y574969D03*
X433323D03*
X447286Y65031D03*
X443704Y74969D03*
X447700Y173400D03*
X449600Y186800D03*
X442614Y184969D03*
X448791Y285031D03*
X449051Y294969D03*
X447032Y345031D03*
X444598Y354969D03*
X447100Y453000D03*
X442770Y464969D03*
X449700Y467100D03*
X448712Y565031D03*
X449071Y574969D03*
X455160Y65031D03*
X451578Y74969D03*
X452900Y84100D03*
X455031Y92494D03*
Y100369D03*
Y108243D03*
Y116117D03*
Y123991D03*
Y131865D03*
Y139739D03*
Y155487D03*
Y147613D03*
Y163361D03*
Y171235D03*
Y191156D03*
Y199030D03*
Y206904D03*
Y214778D03*
Y222652D03*
Y230526D03*
Y238400D03*
Y254148D03*
Y246274D03*
Y262022D03*
Y269896D03*
X452900Y277000D03*
X456925Y294969D03*
X454906Y345031D03*
X452472Y354969D03*
X453200Y363700D03*
X455031Y372457D03*
Y380331D03*
Y396079D03*
Y388205D03*
Y403953D03*
Y411827D03*
Y419701D03*
Y427575D03*
Y435449D03*
Y443323D03*
Y451197D03*
Y471119D03*
Y478993D03*
Y494741D03*
Y486867D03*
Y502615D03*
Y510489D03*
Y518363D03*
Y526237D03*
Y534111D03*
Y541985D03*
X453100Y557400D03*
X455031Y549859D03*
X456945Y574969D03*
X463033Y65052D03*
X464969Y86969D03*
Y94843D03*
Y102717D03*
Y110591D03*
Y118465D03*
Y126339D03*
Y134213D03*
Y142087D03*
Y149961D03*
Y157835D03*
Y165709D03*
Y173583D03*
X463160Y181246D03*
X464969Y188910D03*
Y196784D03*
Y204658D03*
Y212532D03*
Y220406D03*
Y228280D03*
Y236154D03*
Y244028D03*
Y251902D03*
Y259776D03*
Y267650D03*
X467200Y275700D03*
X466026Y294969D03*
X462776Y345280D03*
X466900Y359500D03*
X464969Y366983D03*
Y374857D03*
Y382731D03*
Y390605D03*
Y398479D03*
Y406353D03*
Y414227D03*
Y422101D03*
Y429975D03*
Y437849D03*
Y445723D03*
Y453597D03*
X463179Y461265D03*
X464969Y468933D03*
Y476807D03*
Y484681D03*
Y492555D03*
Y500429D03*
Y508303D03*
Y516177D03*
Y524051D03*
Y531925D03*
Y539799D03*
Y547673D03*
X467200Y557000D03*
X466037Y574969D03*
X470907Y65031D03*
X468900Y76800D03*
X468667Y285031D03*
X476541D03*
X473900Y294969D03*
X470646Y345031D03*
X472302Y354969D03*
X468634Y565031D03*
X476508D03*
X473911Y574969D03*
X478781Y65031D03*
X479267Y74969D03*
X484415Y285031D03*
X481774Y294969D03*
X478520Y345031D03*
X480176Y354969D03*
X484382Y565031D03*
X481785Y574969D03*
X486656Y65031D03*
X494530D03*
X495015Y74969D03*
X487141D03*
X492289Y285031D03*
X489648Y294969D03*
X486394Y345031D03*
X494268D03*
X488050Y354969D03*
X492256Y565031D03*
X489659Y574969D03*
X502404Y65031D03*
X502889Y74969D03*
X500163Y285031D03*
X497522Y294969D03*
X502142Y345031D03*
X503798Y354969D03*
X495924D03*
X500130Y565031D03*
X497533Y574969D03*
X510278Y65031D03*
X510763Y74969D03*
X508037Y285031D03*
X505396Y294969D03*
X510016Y345031D03*
X511672Y354969D03*
X508004Y565031D03*
X505407Y574969D03*
X518152Y65031D03*
X518637Y74969D03*
X515911Y285031D03*
X521144Y294969D03*
X513270D03*
X517890Y345031D03*
X519546Y354969D03*
X515878Y565031D03*
X521155Y574969D03*
X513281D03*
X526920Y63701D03*
X528819Y76312D03*
X522400Y284700D03*
X528900Y283000D03*
X528819Y296312D03*
X525400Y343100D03*
X526600Y357300D03*
X523700Y564100D03*
X528819Y576312D03*
X535200Y63200D03*
X537700Y69700D03*
X535900Y76100D03*
X534794Y283701D03*
X537900Y289600D03*
X536100Y296000D03*
X532900Y343000D03*
X538600Y347300D03*
X534200Y357300D03*
X538600Y353700D03*
X537700Y566600D03*
X531300Y562900D03*
X537000Y574900D03*
M02*
