G04 ================== begin FILE IDENTIFICATION RECORD ==================*
G04 Layout Name:  1-16_Power_Splitter.brd*
G04 Film Name:    PASTEMASK_TOP*
G04 File Format:  Gerber RS274X*
G04 File Origin:  Cadence Allegro 17.2-S047*
G04 Origin Date:  Fri Apr 26 13:07:36 2019*
G04 *
G04 Layer:  PACKAGE GEOMETRY/PASTEMASK_TOP*
G04 Layer:  BOARD GEOMETRY/DESIGN_OUTLINE*
G04 *
G04 Offset:    (0.0000 0.0000)*
G04 Mirror:    No*
G04 Mode:      Positive*
G04 Rotation:  0*
G04 FullContactRelief:  No*
G04 UndefLineWidth:     0.0000*
G04 ================== end FILE IDENTIFICATION RECORD ====================*
%FSLAX55Y55*MOIN*%
%IR0*IPPOS*OFA0.00000B0.00000*MIA0B0*SFA1.00000B1.00000*%
G75*
%LPD*%
G75*
G36*
G01X97244Y65663D02*
X102760D01*
Y67244D01*
X97244D01*
Y65663D01*
G37*
G36*
G01Y72760D02*
X102760D01*
Y74331D01*
X97244D01*
Y72760D01*
G37*
G36*
G01X95669Y69408D02*
X97042D01*
Y70591D01*
X95669D01*
Y69408D01*
G37*
G36*
G01X97244Y285663D02*
X102760D01*
Y287244D01*
X97244D01*
Y285663D01*
G37*
G36*
G01Y292760D02*
X102760D01*
Y294331D01*
X97244D01*
Y292760D01*
G37*
G36*
G01X95669Y289408D02*
X97042D01*
Y290591D01*
X95669D01*
Y289408D01*
G37*
G36*
G01X97244Y345663D02*
X102760D01*
Y347244D01*
X97244D01*
Y345663D01*
G37*
G36*
G01X95669Y349408D02*
X97042D01*
Y350591D01*
X95669D01*
Y349408D01*
G37*
G36*
G01X97244Y352760D02*
X102760D01*
Y354331D01*
X97244D01*
Y352760D01*
G37*
G36*
G01Y565663D02*
X102760D01*
Y567244D01*
X97244D01*
Y565663D01*
G37*
G36*
G01Y572760D02*
X102760D01*
Y574331D01*
X97244D01*
Y572760D01*
G37*
G36*
G01X95669Y569408D02*
X97042D01*
Y570591D01*
X95669D01*
Y569408D01*
G37*
G36*
G01X102953Y69408D02*
X104341D01*
Y70591D01*
X102953D01*
Y69408D01*
G37*
G36*
G01Y289408D02*
X104341D01*
Y290591D01*
X102953D01*
Y289408D01*
G37*
G36*
G01Y349408D02*
X104341D01*
Y350591D01*
X102953D01*
Y349408D01*
G37*
G36*
G01Y569408D02*
X104341D01*
Y570591D01*
X102953D01*
Y569408D01*
G37*
G36*
G01X166791Y81122D02*
X168091D01*
Y82736D01*
X166791D01*
Y81122D01*
G37*
G36*
G01X170650Y82736D02*
X169350D01*
Y81122D01*
X170650D01*
Y82736D01*
G37*
G36*
G01X173209Y81122D02*
X171909D01*
Y82736D01*
X173209D01*
Y81122D01*
G37*
G36*
G01X171909Y77264D02*
X173209D01*
Y78878D01*
X171909D01*
Y77264D01*
G37*
G36*
G01X169350D02*
X170650D01*
Y78878D01*
X169350D01*
Y77264D01*
G37*
G36*
G01X166791D02*
X168091D01*
Y78878D01*
X166791D01*
Y77264D01*
G37*
G36*
G01X173209Y278878D02*
X171909D01*
Y277264D01*
X173209D01*
Y278878D01*
G37*
G36*
G01X169350Y277264D02*
X170650D01*
Y278878D01*
X169350D01*
Y277264D01*
G37*
G36*
G01X166791Y278878D02*
X168091D01*
Y277264D01*
X166791D01*
Y278878D01*
G37*
G36*
G01X168091Y282736D02*
X166791D01*
Y281122D01*
X168091D01*
Y282736D01*
G37*
G36*
G01X170650D02*
X169350D01*
Y281122D01*
X170650D01*
Y282736D01*
G37*
G36*
G01X173209D02*
X171909D01*
Y281122D01*
X173209D01*
Y282736D01*
G37*
G36*
G01X171909Y357264D02*
X173209D01*
Y358878D01*
X171909D01*
Y357264D01*
G37*
G36*
G01X169350D02*
X170650D01*
Y358878D01*
X169350D01*
Y357264D01*
G37*
G36*
G01X166791D02*
X168091D01*
Y358878D01*
X166791D01*
Y357264D01*
G37*
G36*
G01Y361122D02*
X168091D01*
Y362736D01*
X166791D01*
Y361122D01*
G37*
G36*
G01X170650Y362736D02*
X169350D01*
Y361122D01*
X170650D01*
Y362736D01*
G37*
G36*
G01X173209Y361122D02*
X171909D01*
Y362736D01*
X173209D01*
Y361122D01*
G37*
G36*
G01Y558878D02*
X171909D01*
Y557264D01*
X173209D01*
Y558878D01*
G37*
G36*
G01X169350Y557264D02*
X170650D01*
Y558878D01*
X169350D01*
Y557264D01*
G37*
G36*
G01X166791Y558878D02*
X168091D01*
Y557264D01*
X166791D01*
Y558878D01*
G37*
G36*
G01X168091Y562736D02*
X166791D01*
Y561122D01*
X168091D01*
Y562736D01*
G37*
G36*
G01X170650D02*
X169350D01*
Y561122D01*
X170650D01*
Y562736D01*
G37*
G36*
G01X173209D02*
X171909D01*
Y561122D01*
X173209D01*
Y562736D01*
G37*
G36*
G01X182736Y179350D02*
Y180650D01*
X181122D01*
Y179350D01*
X182736D01*
G37*
G36*
G01X181122Y176791D02*
Y178091D01*
X182736D01*
Y176791D01*
X181122D01*
G37*
G36*
G01X177264Y178091D02*
Y176791D01*
X178878D01*
Y178091D01*
X177264D01*
G37*
G36*
G01Y180650D02*
Y179350D01*
X178878D01*
Y180650D01*
X177264D01*
G37*
G36*
G01X181122Y183209D02*
Y181909D01*
X182736D01*
Y183209D01*
X181122D01*
G37*
G36*
G01X177264D02*
Y181909D01*
X178878D01*
Y183209D01*
X177264D01*
G37*
G36*
G01X181122Y456791D02*
Y458091D01*
X182736D01*
Y456791D01*
X181122D01*
G37*
G36*
G01X177264Y458091D02*
Y456791D01*
X178878D01*
Y458091D01*
X177264D01*
G37*
G36*
G01X181122Y463209D02*
Y461909D01*
X182736D01*
Y463209D01*
X181122D01*
G37*
G36*
G01X182736Y459350D02*
Y460650D01*
X181122D01*
Y459350D01*
X182736D01*
G37*
G36*
G01X177264Y460650D02*
Y459350D01*
X178878D01*
Y460650D01*
X177264D01*
G37*
G36*
G01Y463209D02*
Y461909D01*
X178878D01*
Y463209D01*
X177264D01*
G37*
G36*
G01X242956Y67240D02*
X237440D01*
Y65669D01*
X242956D01*
Y67240D01*
G37*
G36*
G01Y74337D02*
X237440D01*
Y72756D01*
X242956D01*
Y74337D01*
G37*
G36*
G01X244531Y70592D02*
X243158D01*
Y69409D01*
X244531D01*
Y70592D01*
G37*
G36*
G01X237247Y70592D02*
X235859D01*
Y69409D01*
X237247D01*
Y70592D01*
G37*
G36*
G01X242756Y287240D02*
X237240D01*
Y285669D01*
X242756D01*
Y287240D01*
G37*
G36*
G01Y294337D02*
X237240D01*
Y292756D01*
X242756D01*
Y294337D01*
G37*
G36*
G01X244331Y290592D02*
X242958D01*
Y289409D01*
X244331D01*
Y290592D01*
G37*
G36*
G01X237047Y290592D02*
X235659D01*
Y289409D01*
X237047D01*
Y290592D01*
G37*
G36*
G01X242756Y347240D02*
X237240D01*
Y345669D01*
X242756D01*
Y347240D01*
G37*
G36*
G01X244331Y350592D02*
X242958D01*
Y349409D01*
X244331D01*
Y350592D01*
G37*
G36*
G01X237047Y350592D02*
X235659D01*
Y349409D01*
X237047D01*
Y350592D01*
G37*
G36*
G01X242756Y354337D02*
X237240D01*
Y352756D01*
X242756D01*
Y354337D01*
G37*
G36*
G01Y574337D02*
X237240D01*
Y572756D01*
X242756D01*
Y574337D01*
G37*
G36*
G01Y567240D02*
X237240D01*
Y565669D01*
X242756D01*
Y567240D01*
G37*
G36*
G01X244331Y570592D02*
X242958D01*
Y569409D01*
X244331D01*
Y570592D01*
G37*
G36*
G01X237047Y570592D02*
X235659D01*
Y569409D01*
X237047D01*
Y570592D01*
G37*
G36*
G01X306791Y187264D02*
X308091D01*
Y188878D01*
X306791D01*
Y187264D01*
G37*
G36*
G01Y191122D02*
X308091D01*
Y192736D01*
X306791D01*
Y191122D01*
G37*
G36*
G01Y448878D02*
X308091D01*
Y447264D01*
X306791D01*
Y448878D01*
G37*
G36*
G01X308091Y452736D02*
X306791D01*
Y451122D01*
X308091D01*
Y452736D01*
G37*
G36*
G01X311909Y187264D02*
X313209D01*
Y188878D01*
X311909D01*
Y187264D01*
G37*
G36*
G01X309350D02*
X310650D01*
Y188878D01*
X309350D01*
Y187264D01*
G37*
G36*
G01X310650Y192736D02*
X309350D01*
Y191122D01*
X310650D01*
Y192736D01*
G37*
G36*
G01X313209Y191122D02*
X311909D01*
Y192736D01*
X313209D01*
Y191122D01*
G37*
G36*
G01Y448878D02*
X311909D01*
Y447264D01*
X313209D01*
Y448878D01*
G37*
G36*
G01X309350Y447264D02*
X310650D01*
Y448878D01*
X309350D01*
Y447264D01*
G37*
G36*
G01X310650Y452736D02*
X309350D01*
Y451122D01*
X310650D01*
Y452736D01*
G37*
G36*
G01X313209D02*
X311909D01*
Y451122D01*
X313209D01*
Y452736D01*
G37*
G36*
G01X321122Y323209D02*
Y321909D01*
X322736D01*
Y323209D01*
X321122D01*
G37*
G36*
G01X322736Y319350D02*
Y320650D01*
X321122D01*
Y319350D01*
X322736D01*
G37*
G36*
G01X321122Y316791D02*
Y318091D01*
X322736D01*
Y316791D01*
X321122D01*
G37*
G36*
G01X317264Y318091D02*
Y316791D01*
X318878D01*
Y318091D01*
X317264D01*
G37*
G36*
G01Y320650D02*
Y319350D01*
X318878D01*
Y320650D01*
X317264D01*
G37*
G36*
G01Y323209D02*
Y321909D01*
X318878D01*
Y323209D01*
X317264D01*
G37*
G36*
G01X342756Y317240D02*
X337240D01*
Y315669D01*
X342756D01*
Y317240D01*
G37*
G36*
G01Y324337D02*
X337240D01*
Y322756D01*
X342756D01*
Y324337D01*
G37*
G36*
G01X337047Y320592D02*
X335659D01*
Y319409D01*
X337047D01*
Y320592D01*
G37*
G36*
G01X344331Y320592D02*
X342958D01*
Y319409D01*
X344331D01*
Y320592D01*
G37*
G36*
G01X385669Y69408D02*
X387042D01*
Y70591D01*
X385669D01*
Y69408D01*
G37*
G36*
G01Y289408D02*
X387042D01*
Y290591D01*
X385669D01*
Y289408D01*
G37*
G36*
G01Y349408D02*
X387042D01*
Y350591D01*
X385669D01*
Y349408D01*
G37*
G36*
G01Y569408D02*
X387042D01*
Y570591D01*
X385669D01*
Y569408D01*
G37*
G36*
G01X387244Y65663D02*
X392760D01*
Y67244D01*
X387244D01*
Y65663D01*
G37*
G36*
G01Y72760D02*
X392760D01*
Y74331D01*
X387244D01*
Y72760D01*
G37*
G36*
G01X392953Y69408D02*
X394341D01*
Y70591D01*
X392953D01*
Y69408D01*
G37*
G36*
G01X387244Y285663D02*
X392760D01*
Y287244D01*
X387244D01*
Y285663D01*
G37*
G36*
G01Y292760D02*
X392760D01*
Y294331D01*
X387244D01*
Y292760D01*
G37*
G36*
G01X392953Y289408D02*
X394341D01*
Y290591D01*
X392953D01*
Y289408D01*
G37*
G36*
G01X387244Y345663D02*
X392760D01*
Y347244D01*
X387244D01*
Y345663D01*
G37*
G36*
G01X392953Y349408D02*
X394341D01*
Y350591D01*
X392953D01*
Y349408D01*
G37*
G36*
G01X387244Y352760D02*
X392760D01*
Y354331D01*
X387244D01*
Y352760D01*
G37*
G36*
G01Y565663D02*
X392760D01*
Y567244D01*
X387244D01*
Y565663D01*
G37*
G36*
G01Y572760D02*
X392760D01*
Y574331D01*
X387244D01*
Y572760D01*
G37*
G36*
G01X392953Y569408D02*
X394341D01*
Y570591D01*
X392953D01*
Y569408D01*
G37*
G36*
G01X448878Y176791D02*
Y178091D01*
X447264D01*
Y176791D01*
X448878D01*
G37*
G36*
G01X447264Y180650D02*
Y179350D01*
X448878D01*
Y180650D01*
X447264D01*
G37*
G36*
G01X448878Y183209D02*
Y181909D01*
X447264D01*
Y183209D01*
X448878D01*
G37*
G36*
G01Y456791D02*
Y458091D01*
X447264D01*
Y456791D01*
X448878D01*
G37*
G36*
G01X447264Y460650D02*
Y459350D01*
X448878D01*
Y460650D01*
X447264D01*
G37*
G36*
G01X448878Y463209D02*
Y461909D01*
X447264D01*
Y463209D01*
X448878D01*
G37*
G36*
G01X456791Y81122D02*
X458091D01*
Y82736D01*
X456791D01*
Y81122D01*
G37*
G36*
G01Y77264D02*
X458091D01*
Y78878D01*
X456791D01*
Y77264D01*
G37*
G36*
G01X452736Y179350D02*
Y180650D01*
X451122D01*
Y179350D01*
X452736D01*
G37*
G36*
G01Y176791D02*
Y178091D01*
X451122D01*
Y176791D01*
X452736D01*
G37*
G36*
G01Y181909D02*
Y183209D01*
X451122D01*
Y181909D01*
X452736D01*
G37*
G36*
G01X456791Y278878D02*
X458091D01*
Y277264D01*
X456791D01*
Y278878D01*
G37*
G36*
G01X458091Y282736D02*
X456791D01*
Y281122D01*
X458091D01*
Y282736D01*
G37*
G36*
G01X456791Y357264D02*
X458091D01*
Y358878D01*
X456791D01*
Y357264D01*
G37*
G36*
G01Y361122D02*
X458091D01*
Y362736D01*
X456791D01*
Y361122D01*
G37*
G36*
G01X452736Y456791D02*
Y458091D01*
X451122D01*
Y456791D01*
X452736D01*
G37*
G36*
G01Y461909D02*
Y463209D01*
X451122D01*
Y461909D01*
X452736D01*
G37*
G36*
G01Y459350D02*
Y460650D01*
X451122D01*
Y459350D01*
X452736D01*
G37*
G36*
G01X456791Y558878D02*
X458091D01*
Y557264D01*
X456791D01*
Y558878D01*
G37*
G36*
G01X458091Y562736D02*
X456791D01*
Y561122D01*
X458091D01*
Y562736D01*
G37*
G36*
G01X460650Y82736D02*
X459350D01*
Y81122D01*
X460650D01*
Y82736D01*
G37*
G36*
G01X463209Y81122D02*
X461909D01*
Y82736D01*
X463209D01*
Y81122D01*
G37*
G36*
G01X461909Y77264D02*
X463209D01*
Y78878D01*
X461909D01*
Y77264D01*
G37*
G36*
G01X459350D02*
X460650D01*
Y78878D01*
X459350D01*
Y77264D01*
G37*
G36*
G01X463209Y278878D02*
X461909D01*
Y277264D01*
X463209D01*
Y278878D01*
G37*
G36*
G01X459350Y277264D02*
X460650D01*
Y278878D01*
X459350D01*
Y277264D01*
G37*
G36*
G01X460650Y282736D02*
X459350D01*
Y281122D01*
X460650D01*
Y282736D01*
G37*
G36*
G01X463209D02*
X461909D01*
Y281122D01*
X463209D01*
Y282736D01*
G37*
G36*
G01X461909Y357264D02*
X463209D01*
Y358878D01*
X461909D01*
Y357264D01*
G37*
G36*
G01X459350D02*
X460650D01*
Y358878D01*
X459350D01*
Y357264D01*
G37*
G36*
G01X460650Y362736D02*
X459350D01*
Y361122D01*
X460650D01*
Y362736D01*
G37*
G36*
G01X463209Y361122D02*
X461909D01*
Y362736D01*
X463209D01*
Y361122D01*
G37*
G36*
G01Y558878D02*
X461909D01*
Y557264D01*
X463209D01*
Y558878D01*
G37*
G36*
G01X459350Y557264D02*
X460650D01*
Y558878D01*
X459350D01*
Y557264D01*
G37*
G36*
G01X460650Y562736D02*
X459350D01*
Y561122D01*
X460650D01*
Y562736D01*
G37*
G36*
G01X463209D02*
X461909D01*
Y561122D01*
X463209D01*
Y562736D01*
G37*
G36*
G01X532756Y67240D02*
X527240D01*
Y65669D01*
X532756D01*
Y67240D01*
G37*
G36*
G01Y74337D02*
X527240D01*
Y72756D01*
X532756D01*
Y74337D01*
G37*
G36*
G01X527047Y70592D02*
X525659D01*
Y69409D01*
X527047D01*
Y70592D01*
G37*
G36*
G01X532756Y287240D02*
X527240D01*
Y285669D01*
X532756D01*
Y287240D01*
G37*
G36*
G01Y294337D02*
X527240D01*
Y292756D01*
X532756D01*
Y294337D01*
G37*
G36*
G01X527047Y290592D02*
X525659D01*
Y289409D01*
X527047D01*
Y290592D01*
G37*
G36*
G01X532756Y347240D02*
X527240D01*
Y345669D01*
X532756D01*
Y347240D01*
G37*
G36*
G01X527047Y350592D02*
X525659D01*
Y349409D01*
X527047D01*
Y350592D01*
G37*
G36*
G01X532756Y354337D02*
X527240D01*
Y352756D01*
X532756D01*
Y354337D01*
G37*
G36*
G01Y574337D02*
X527240D01*
Y572756D01*
X532756D01*
Y574337D01*
G37*
G36*
G01Y567240D02*
X527240D01*
Y565669D01*
X532756D01*
Y567240D01*
G37*
G36*
G01X527047Y570592D02*
X525659D01*
Y569409D01*
X527047D01*
Y570592D01*
G37*
G36*
G01X534331Y70592D02*
X532958D01*
Y69409D01*
X534331D01*
Y70592D01*
G37*
G36*
G01Y290592D02*
X532958D01*
Y289409D01*
X534331D01*
Y290592D01*
G37*
G36*
G01Y350592D02*
X532958D01*
Y349409D01*
X534331D01*
Y350592D01*
G37*
G36*
G01Y570592D02*
X532958D01*
Y569409D01*
X534331D01*
Y570592D01*
G37*
M02*
