G04 ================== begin FILE IDENTIFICATION RECORD ==================*
G04 Layout Name:  1-16_Power_Splitter.brd*
G04 Film Name:    SILKSCREEN_TOP*
G04 File Format:  Gerber RS274X*
G04 File Origin:  Cadence Allegro 17.2-S047*
G04 Origin Date:  Fri Apr 26 13:07:36 2019*
G04 *
G04 Layer:  REF DES/SILKSCREEN_TOP*
G04 Layer:  PACKAGE GEOMETRY/SILKSCREEN_TOP*
G04 Layer:  BOARD GEOMETRY/DESIGN_OUTLINE*
G04 *
G04 Offset:    (0.0000 0.0000)*
G04 Mirror:    No*
G04 Mode:      Positive*
G04 Rotation:  0*
G04 FullContactRelief:  No*
G04 UndefLineWidth:     0.0000*
G04 ================== end FILE IDENTIFICATION RECORD ====================*
%FSLAX55Y55*MOIN*%
%IR0*IPPOS*OFA0.00000B0.00000*MIA0B0*SFA1.00000B1.00000*%
%ADD10C,.000984*%
G75*
%LPD*%
G75*
G36*
G01X167406Y80000D02*
G03I-555J0D01*
G37*
G36*
G01X173705Y280000D02*
G03I-555J0D01*
G37*
G36*
G01X167406Y360000D02*
G03I-555J0D01*
G37*
G36*
G01X173705Y560000D02*
G03I-555J0D01*
G37*
G36*
G01X180555Y183150D02*
G03I-555J0D01*
G37*
G36*
G01Y463150D02*
G03I-555J0D01*
G37*
G36*
G01X307406Y190000D02*
G03I-555J0D01*
G37*
G36*
G01X313705Y450000D02*
G03I-555J0D01*
G37*
G36*
G01X320555Y323150D02*
G03I-555J0D01*
G37*
G36*
G01X450555Y176850D02*
G03I-555J0D01*
G37*
G36*
G01Y456850D02*
G03I-555J0D01*
G37*
G36*
G01X457406Y80000D02*
G03I-555J0D01*
G37*
G36*
G01Y360000D02*
G03I-555J0D01*
G37*
G36*
G01X463705Y280000D02*
G03I-555J0D01*
G37*
G36*
G01Y560000D02*
G03I-555J0D01*
G37*
G54D10*
G01X95079Y65472D02*
Y74528D01*
X104921D01*
Y65472D01*
X95079D01*
G01Y285472D02*
Y294528D01*
X104921D01*
Y285472D01*
X95079D01*
G01Y345472D02*
Y354528D01*
X104921D01*
Y345472D01*
X95079D01*
G01Y565472D02*
Y574528D01*
X104921D01*
Y565472D01*
X95079D01*
G01X245121Y74528D02*
Y65472D01*
X235279D01*
Y74528D01*
X245121D01*
G01X244921Y294528D02*
Y285472D01*
X235079D01*
Y294528D01*
X244921D01*
G01Y354528D02*
Y345472D01*
X235079D01*
Y354528D01*
X244921D01*
G01Y574528D02*
Y565472D01*
X235079D01*
Y574528D01*
X244921D01*
G01X344921Y324528D02*
Y315472D01*
X335079D01*
Y324528D01*
X344921D01*
G01X385079Y65472D02*
Y74528D01*
X394921D01*
Y65472D01*
X385079D01*
G01Y285472D02*
Y294528D01*
X394921D01*
Y285472D01*
X385079D01*
G01Y345472D02*
Y354528D01*
X394921D01*
Y345472D01*
X385079D01*
G01Y565472D02*
Y574528D01*
X394921D01*
Y565472D01*
X385079D01*
G01X534921Y74528D02*
Y65472D01*
X525079D01*
Y74528D01*
X534921D01*
G01Y294528D02*
Y285472D01*
X525079D01*
Y294528D01*
X534921D01*
G01Y354528D02*
Y345472D01*
X525079D01*
Y354528D01*
X534921D01*
G01Y574528D02*
Y565472D01*
X525079D01*
Y574528D01*
X534921D01*
M02*
