G04 ================== begin FILE IDENTIFICATION RECORD ==================*
G04 Layout Name:  1-16_Power_Splitter.brd*
G04 Film Name:    SOLDERMASK_TOP*
G04 File Format:  Gerber RS274X*
G04 File Origin:  Cadence Allegro 17.2-S047*
G04 Origin Date:  Fri Apr 26 13:07:36 2019*
G04 *
G04 Layer:  BOARD GEOMETRY/SOLDERMASK_TOP*
G04 Layer:  PACKAGE GEOMETRY/SOLDERMASK_TOP*
G04 Layer:  BOARD GEOMETRY/DESIGN_OUTLINE*
G04 *
G04 Offset:    (0.0000 0.0000)*
G04 Mirror:    No*
G04 Mode:      Positive*
G04 Rotation:  0*
G04 FullContactRelief:  No*
G04 UndefLineWidth:     0.0000*
G04 ================== end FILE IDENTIFICATION RECORD ====================*
%FSLAX55Y55*MOIN*%
%IR0*IPPOS*OFA0.00000B0.00000*MIA0B0*SFA1.00000B1.00000*%
G75*
%LPD*%
G75*
G36*
G01X96654Y65657D02*
X103356D01*
Y68228D01*
X96654D01*
Y65657D01*
G37*
G36*
G01Y71775D02*
X103353D01*
Y74331D01*
X96654D01*
Y71775D01*
G37*
G36*
G01X95276Y69013D02*
X97433D01*
Y70984D01*
X95276D01*
Y69013D01*
G37*
G36*
G01X96654Y285657D02*
X103356D01*
Y288228D01*
X96654D01*
Y285657D01*
G37*
G36*
G01Y291775D02*
X103353D01*
Y294331D01*
X96654D01*
Y291775D01*
G37*
G36*
G01X95276Y289013D02*
X97433D01*
Y290984D01*
X95276D01*
Y289013D01*
G37*
G36*
G01X96654Y345657D02*
X103356D01*
Y348228D01*
X96654D01*
Y345657D01*
G37*
G36*
G01X95276Y349013D02*
X97433D01*
Y350984D01*
X95276D01*
Y349013D01*
G37*
G36*
G01X96654Y351775D02*
X103353D01*
Y354331D01*
X96654D01*
Y351775D01*
G37*
G36*
G01Y565657D02*
X103356D01*
Y568228D01*
X96654D01*
Y565657D01*
G37*
G36*
G01Y571775D02*
X103353D01*
Y574331D01*
X96654D01*
Y571775D01*
G37*
G36*
G01X95276Y569013D02*
X97433D01*
Y570984D01*
X95276D01*
Y569013D01*
G37*
G36*
G01X102559Y69015D02*
X104730D01*
Y70984D01*
X102559D01*
Y69015D01*
G37*
G36*
G01Y289015D02*
X104730D01*
Y290984D01*
X102559D01*
Y289015D01*
G37*
G36*
G01Y349015D02*
X104730D01*
Y350984D01*
X102559D01*
Y349015D01*
G37*
G36*
G01Y569015D02*
X104730D01*
Y570984D01*
X102559D01*
Y569015D01*
G37*
G36*
G01X169193Y77106D02*
X170807D01*
Y79035D01*
X169193D01*
Y77106D01*
G37*
G36*
G01X171752D02*
X173366D01*
Y79035D01*
X171752D01*
Y77106D01*
G37*
G36*
G01Y80965D02*
X173366D01*
Y82894D01*
X171752D01*
Y80965D01*
G37*
G36*
G01X169193D02*
X170807D01*
Y82894D01*
X169193D01*
Y80965D01*
G37*
G36*
G01X166634D02*
X168248D01*
Y82894D01*
X166634D01*
Y80965D01*
G37*
G36*
G01Y77106D02*
X168248D01*
Y79035D01*
X166634D01*
Y77106D01*
G37*
G36*
G01X168248Y279035D02*
X166634D01*
Y277106D01*
X168248D01*
Y279035D01*
G37*
G36*
G01X170807D02*
X169193D01*
Y277106D01*
X170807D01*
Y279035D01*
G37*
G36*
G01X173366D02*
X171752D01*
Y277106D01*
X173366D01*
Y279035D01*
G37*
G36*
G01X170807Y282894D02*
X169193D01*
Y280965D01*
X170807D01*
Y282894D01*
G37*
G36*
G01X168248D02*
X166634D01*
Y280965D01*
X168248D01*
Y282894D01*
G37*
G36*
G01X173366D02*
X171752D01*
Y280965D01*
X173366D01*
Y282894D01*
G37*
G36*
G01X169193Y357106D02*
X170807D01*
Y359035D01*
X169193D01*
Y357106D01*
G37*
G36*
G01X171752D02*
X173366D01*
Y359035D01*
X171752D01*
Y357106D01*
G37*
G36*
G01X166634D02*
X168248D01*
Y359035D01*
X166634D01*
Y357106D01*
G37*
G36*
G01X171752Y360965D02*
X173366D01*
Y362894D01*
X171752D01*
Y360965D01*
G37*
G36*
G01X169193D02*
X170807D01*
Y362894D01*
X169193D01*
Y360965D01*
G37*
G36*
G01X166634D02*
X168248D01*
Y362894D01*
X166634D01*
Y360965D01*
G37*
G36*
G01X170807Y562894D02*
X169193D01*
Y560965D01*
X170807D01*
Y562894D01*
G37*
G36*
G01X168248D02*
X166634D01*
Y560965D01*
X168248D01*
Y562894D01*
G37*
G36*
G01Y559035D02*
X166634D01*
Y557106D01*
X168248D01*
Y559035D01*
G37*
G36*
G01X170807D02*
X169193D01*
Y557106D01*
X170807D01*
Y559035D01*
G37*
G36*
G01X173366D02*
X171752D01*
Y557106D01*
X173366D01*
Y559035D01*
G37*
G36*
G01Y562894D02*
X171752D01*
Y560965D01*
X173366D01*
Y562894D01*
G37*
G36*
G01X177106Y180807D02*
Y179193D01*
X179035D01*
Y180807D01*
X177106D01*
G37*
G36*
G01Y178248D02*
Y176634D01*
X179035D01*
Y178248D01*
X177106D01*
G37*
G36*
G01X180965D02*
Y176634D01*
X182894D01*
Y178248D01*
X180965D01*
G37*
G36*
G01Y180807D02*
Y179193D01*
X182894D01*
Y180807D01*
X180965D01*
G37*
G36*
G01Y183366D02*
Y181752D01*
X182894D01*
Y183366D01*
X180965D01*
G37*
G36*
G01X177106D02*
Y181752D01*
X179035D01*
Y183366D01*
X177106D01*
G37*
G36*
G01Y458248D02*
Y456634D01*
X179035D01*
Y458248D01*
X177106D01*
G37*
G36*
G01X180965D02*
Y456634D01*
X182894D01*
Y458248D01*
X180965D01*
G37*
G36*
G01X177106Y460807D02*
Y459193D01*
X179035D01*
Y460807D01*
X177106D01*
G37*
G36*
G01X180965D02*
Y459193D01*
X182894D01*
Y460807D01*
X180965D01*
G37*
G36*
G01Y463366D02*
Y461752D01*
X182894D01*
Y463366D01*
X180965D01*
G37*
G36*
G01X177106D02*
Y461752D01*
X179035D01*
Y463366D01*
X177106D01*
G37*
G36*
G01X237441Y290985D02*
X235270D01*
Y289016D01*
X237441D01*
Y290985D01*
G37*
G36*
G01Y350985D02*
X235270D01*
Y349016D01*
X237441D01*
Y350985D01*
G37*
G36*
G01Y570985D02*
X235270D01*
Y569016D01*
X237441D01*
Y570985D01*
G37*
G36*
G01X243546Y68225D02*
X236847D01*
Y65669D01*
X243546D01*
Y68225D01*
G37*
G36*
G01Y74343D02*
X236844D01*
Y71772D01*
X243546D01*
Y74343D01*
G37*
G36*
G01X244924Y70987D02*
X242767D01*
Y69016D01*
X244924D01*
Y70987D01*
G37*
G36*
G01X237641Y70985D02*
X235470D01*
Y69016D01*
X237641D01*
Y70985D01*
G37*
G36*
G01X243346Y288225D02*
X236647D01*
Y285669D01*
X243346D01*
Y288225D01*
G37*
G36*
G01Y294343D02*
X236644D01*
Y291772D01*
X243346D01*
Y294343D01*
G37*
G36*
G01X244724Y290987D02*
X242567D01*
Y289016D01*
X244724D01*
Y290987D01*
G37*
G36*
G01X243346Y348225D02*
X236647D01*
Y345669D01*
X243346D01*
Y348225D01*
G37*
G36*
G01X244724Y350987D02*
X242567D01*
Y349016D01*
X244724D01*
Y350987D01*
G37*
G36*
G01X243346Y354343D02*
X236644D01*
Y351772D01*
X243346D01*
Y354343D01*
G37*
G36*
G01Y574343D02*
X236644D01*
Y571772D01*
X243346D01*
Y574343D01*
G37*
G36*
G01Y568225D02*
X236647D01*
Y565669D01*
X243346D01*
Y568225D01*
G37*
G36*
G01X244724Y570987D02*
X242567D01*
Y569016D01*
X244724D01*
Y570987D01*
G37*
G36*
G01X306634Y187106D02*
X308248D01*
Y189035D01*
X306634D01*
Y187106D01*
G37*
G36*
G01Y190965D02*
X308248D01*
Y192894D01*
X306634D01*
Y190965D01*
G37*
G36*
G01X308248Y449035D02*
X306634D01*
Y447106D01*
X308248D01*
Y449035D01*
G37*
G36*
G01Y452894D02*
X306634D01*
Y450965D01*
X308248D01*
Y452894D01*
G37*
G36*
G01X309193Y187106D02*
X310807D01*
Y189035D01*
X309193D01*
Y187106D01*
G37*
G36*
G01X311752D02*
X313366D01*
Y189035D01*
X311752D01*
Y187106D01*
G37*
G36*
G01Y190965D02*
X313366D01*
Y192894D01*
X311752D01*
Y190965D01*
G37*
G36*
G01X309193D02*
X310807D01*
Y192894D01*
X309193D01*
Y190965D01*
G37*
G36*
G01X310807Y449035D02*
X309193D01*
Y447106D01*
X310807D01*
Y449035D01*
G37*
G36*
G01X313366D02*
X311752D01*
Y447106D01*
X313366D01*
Y449035D01*
G37*
G36*
G01X310807Y452894D02*
X309193D01*
Y450965D01*
X310807D01*
Y452894D01*
G37*
G36*
G01X313366D02*
X311752D01*
Y450965D01*
X313366D01*
Y452894D01*
G37*
G36*
G01X317106Y320807D02*
Y319193D01*
X319035D01*
Y320807D01*
X317106D01*
G37*
G36*
G01Y318248D02*
Y316634D01*
X319035D01*
Y318248D01*
X317106D01*
G37*
G36*
G01X320965D02*
Y316634D01*
X322894D01*
Y318248D01*
X320965D01*
G37*
G36*
G01Y320807D02*
Y319193D01*
X322894D01*
Y320807D01*
X320965D01*
G37*
G36*
G01Y323366D02*
Y321752D01*
X322894D01*
Y323366D01*
X320965D01*
G37*
G36*
G01X317106D02*
Y321752D01*
X319035D01*
Y323366D01*
X317106D01*
G37*
G36*
G01X343346Y318225D02*
X336647D01*
Y315669D01*
X343346D01*
Y318225D01*
G37*
G36*
G01Y324343D02*
X336644D01*
Y321772D01*
X343346D01*
Y324343D01*
G37*
G36*
G01X337441Y320985D02*
X335270D01*
Y319016D01*
X337441D01*
Y320985D01*
G37*
G36*
G01X344724Y320987D02*
X342567D01*
Y319016D01*
X344724D01*
Y320987D01*
G37*
G36*
G01X386654Y65657D02*
X393356D01*
Y68228D01*
X386654D01*
Y65657D01*
G37*
G36*
G01Y71775D02*
X393353D01*
Y74331D01*
X386654D01*
Y71775D01*
G37*
G36*
G01X385276Y69013D02*
X387433D01*
Y70984D01*
X385276D01*
Y69013D01*
G37*
G36*
G01X386654Y285657D02*
X393356D01*
Y288228D01*
X386654D01*
Y285657D01*
G37*
G36*
G01Y291775D02*
X393353D01*
Y294331D01*
X386654D01*
Y291775D01*
G37*
G36*
G01X385276Y289013D02*
X387433D01*
Y290984D01*
X385276D01*
Y289013D01*
G37*
G36*
G01X386654Y345657D02*
X393356D01*
Y348228D01*
X386654D01*
Y345657D01*
G37*
G36*
G01X385276Y349013D02*
X387433D01*
Y350984D01*
X385276D01*
Y349013D01*
G37*
G36*
G01X386654Y351775D02*
X393353D01*
Y354331D01*
X386654D01*
Y351775D01*
G37*
G36*
G01Y565657D02*
X393356D01*
Y568228D01*
X386654D01*
Y565657D01*
G37*
G36*
G01Y571775D02*
X393353D01*
Y574331D01*
X386654D01*
Y571775D01*
G37*
G36*
G01X385276Y569013D02*
X387433D01*
Y570984D01*
X385276D01*
Y569013D01*
G37*
G36*
G01X392559Y69015D02*
X394730D01*
Y70984D01*
X392559D01*
Y69015D01*
G37*
G36*
G01Y289015D02*
X394730D01*
Y290984D01*
X392559D01*
Y289015D01*
G37*
G36*
G01Y349015D02*
X394730D01*
Y350984D01*
X392559D01*
Y349015D01*
G37*
G36*
G01Y569015D02*
X394730D01*
Y570984D01*
X392559D01*
Y569015D01*
G37*
G36*
G01X449035Y181752D02*
Y183366D01*
X447106D01*
Y181752D01*
X449035D01*
G37*
G36*
G01Y179193D02*
Y180807D01*
X447106D01*
Y179193D01*
X449035D01*
G37*
G36*
G01Y176634D02*
Y178248D01*
X447106D01*
Y176634D01*
X449035D01*
G37*
G36*
G01Y456634D02*
Y458248D01*
X447106D01*
Y456634D01*
X449035D01*
G37*
G36*
G01Y461752D02*
Y463366D01*
X447106D01*
Y461752D01*
X449035D01*
G37*
G36*
G01Y459193D02*
Y460807D01*
X447106D01*
Y459193D01*
X449035D01*
G37*
G36*
G01X456634Y80965D02*
X458248D01*
Y82894D01*
X456634D01*
Y80965D01*
G37*
G36*
G01Y77106D02*
X458248D01*
Y79035D01*
X456634D01*
Y77106D01*
G37*
G36*
G01X452894Y179193D02*
Y180807D01*
X450965D01*
Y179193D01*
X452894D01*
G37*
G36*
G01Y181752D02*
Y183366D01*
X450965D01*
Y181752D01*
X452894D01*
G37*
G36*
G01Y176634D02*
Y178248D01*
X450965D01*
Y176634D01*
X452894D01*
G37*
G36*
G01X458248Y279035D02*
X456634D01*
Y277106D01*
X458248D01*
Y279035D01*
G37*
G36*
G01Y282894D02*
X456634D01*
Y280965D01*
X458248D01*
Y282894D01*
G37*
G36*
G01X456634Y357106D02*
X458248D01*
Y359035D01*
X456634D01*
Y357106D01*
G37*
G36*
G01Y360965D02*
X458248D01*
Y362894D01*
X456634D01*
Y360965D01*
G37*
G36*
G01X452894Y456634D02*
Y458248D01*
X450965D01*
Y456634D01*
X452894D01*
G37*
G36*
G01Y459193D02*
Y460807D01*
X450965D01*
Y459193D01*
X452894D01*
G37*
G36*
G01Y461752D02*
Y463366D01*
X450965D01*
Y461752D01*
X452894D01*
G37*
G36*
G01X458248Y562894D02*
X456634D01*
Y560965D01*
X458248D01*
Y562894D01*
G37*
G36*
G01Y559035D02*
X456634D01*
Y557106D01*
X458248D01*
Y559035D01*
G37*
G36*
G01X459193Y77106D02*
X460807D01*
Y79035D01*
X459193D01*
Y77106D01*
G37*
G36*
G01X461752D02*
X463366D01*
Y79035D01*
X461752D01*
Y77106D01*
G37*
G36*
G01Y80965D02*
X463366D01*
Y82894D01*
X461752D01*
Y80965D01*
G37*
G36*
G01X459193D02*
X460807D01*
Y82894D01*
X459193D01*
Y80965D01*
G37*
G36*
G01X460807Y279035D02*
X459193D01*
Y277106D01*
X460807D01*
Y279035D01*
G37*
G36*
G01X463366D02*
X461752D01*
Y277106D01*
X463366D01*
Y279035D01*
G37*
G36*
G01X460807Y282894D02*
X459193D01*
Y280965D01*
X460807D01*
Y282894D01*
G37*
G36*
G01X463366D02*
X461752D01*
Y280965D01*
X463366D01*
Y282894D01*
G37*
G36*
G01X459193Y357106D02*
X460807D01*
Y359035D01*
X459193D01*
Y357106D01*
G37*
G36*
G01X461752D02*
X463366D01*
Y359035D01*
X461752D01*
Y357106D01*
G37*
G36*
G01Y360965D02*
X463366D01*
Y362894D01*
X461752D01*
Y360965D01*
G37*
G36*
G01X459193D02*
X460807D01*
Y362894D01*
X459193D01*
Y360965D01*
G37*
G36*
G01X460807Y562894D02*
X459193D01*
Y560965D01*
X460807D01*
Y562894D01*
G37*
G36*
G01Y559035D02*
X459193D01*
Y557106D01*
X460807D01*
Y559035D01*
G37*
G36*
G01X463366D02*
X461752D01*
Y557106D01*
X463366D01*
Y559035D01*
G37*
G36*
G01Y562894D02*
X461752D01*
Y560965D01*
X463366D01*
Y562894D01*
G37*
G36*
G01X533346Y68225D02*
X526647D01*
Y65669D01*
X533346D01*
Y68225D01*
G37*
G36*
G01Y74343D02*
X526644D01*
Y71772D01*
X533346D01*
Y74343D01*
G37*
G36*
G01X527441Y70985D02*
X525270D01*
Y69016D01*
X527441D01*
Y70985D01*
G37*
G36*
G01X533346Y288225D02*
X526647D01*
Y285669D01*
X533346D01*
Y288225D01*
G37*
G36*
G01Y294343D02*
X526644D01*
Y291772D01*
X533346D01*
Y294343D01*
G37*
G36*
G01X527441Y290985D02*
X525270D01*
Y289016D01*
X527441D01*
Y290985D01*
G37*
G36*
G01X533346Y348225D02*
X526647D01*
Y345669D01*
X533346D01*
Y348225D01*
G37*
G36*
G01X527441Y350985D02*
X525270D01*
Y349016D01*
X527441D01*
Y350985D01*
G37*
G36*
G01X533346Y354343D02*
X526644D01*
Y351772D01*
X533346D01*
Y354343D01*
G37*
G36*
G01Y574343D02*
X526644D01*
Y571772D01*
X533346D01*
Y574343D01*
G37*
G36*
G01Y568225D02*
X526647D01*
Y565669D01*
X533346D01*
Y568225D01*
G37*
G36*
G01X527441Y570985D02*
X525270D01*
Y569016D01*
X527441D01*
Y570985D01*
G37*
G36*
G01X534724Y70987D02*
X532567D01*
Y69016D01*
X534724D01*
Y70987D01*
G37*
G36*
G01Y290987D02*
X532567D01*
Y289016D01*
X534724D01*
Y290987D01*
G37*
G36*
G01Y350987D02*
X532567D01*
Y349016D01*
X534724D01*
Y350987D01*
G37*
G36*
G01Y570987D02*
X532567D01*
Y569016D01*
X534724D01*
Y570987D01*
G37*
M02*
