G04 ================== begin FILE IDENTIFICATION RECORD ==================*
G04 Layout Name:  1-16_Power_Splitter.brd*
G04 Film Name:    TOP_LAYER*
G04 File Format:  Gerber RS274X*
G04 File Origin:  Cadence Allegro 17.2-S047*
G04 Origin Date:  Fri Apr 26 13:07:36 2019*
G04 *
G04 Layer:  VIA CLASS/TOP*
G04 Layer:  PIN/TOP*
G04 Layer:  ETCH/TOP*
G04 Layer:  BOARD GEOMETRY/DESIGN_OUTLINE*
G04 *
G04 Offset:    (0.0000 0.0000)*
G04 Mirror:    No*
G04 Mode:      Positive*
G04 Rotation:  0*
G04 FullContactRelief:  No*
G04 UndefLineWidth:     0.0000*
G04 ================== end FILE IDENTIFICATION RECORD ====================*
%FSLAX55Y55*MOIN*%
%IR0*IPPOS*OFA0.00000B0.00000*MIA0B0*SFA1.00000B1.00000*%
%ADD15C,.000079*%
%ADD10C,.025591*%
%ADD11C,.019646*%
%AMMACRO14*
4,1,8,.033461,.011811,
-.033461,.011811,
-.033461,-.011811,
-.019689,-.011811,
-.005909,-.003941,
.005909,-.003941,
.019689,-.011811,
.033461,-.011811,
.033461,.011811,
0.0*
%
%ADD14MACRO14*%
%ADD13R,.019689X.015748*%
%ADD16R,.012988X.016142*%
%ADD17R,.016142X.012988*%
%AMMACRO12*
4,1,8,-.033461,-.011811,
.033461,-.011811,
.033461,.011811,
.019689,.011811,
.005909,.003941,
-.005909,.003941,
-.019689,.011811,
-.033461,.011811,
-.033461,-.011811,
0.0*
%
%ADD12MACRO12*%
G75*
%LPD*%
G75*
G36*
G01X629900Y100D02*
X100D01*
Y629900D01*
X629900D01*
Y100D01*
G37*
%LPC*%
G75*
G36*
G01X456130Y573001D02*
X459995Y569136D01*
X463859Y573001D01*
X523777D01*
Y572873D01*
X525277Y572161D01*
Y571969D01*
X528031D01*
X529409Y572757D01*
X530591D01*
X531969Y571969D01*
X532757D01*
Y568031D01*
X531969D01*
X530591Y567243D01*
X529409D01*
X528031Y568031D01*
X525277D01*
Y567839D01*
X523777Y567127D01*
Y566999D01*
X465560D01*
Y564235D01*
X465378D01*
X464528Y562735D01*
X463938D01*
Y557637D01*
X463346D01*
Y559015D01*
X461772D01*
Y557265D01*
X461969D01*
X462819Y555765D01*
X463001D01*
Y463870D01*
X459131Y460000D01*
X463001Y456130D01*
Y364235D01*
X462819D01*
X461969Y362735D01*
X461772D01*
Y360985D01*
X463346D01*
Y362363D01*
X463938D01*
Y357322D01*
X464496D01*
X465346Y355822D01*
X465529D01*
Y353001D01*
X523777D01*
Y352873D01*
X525277Y352161D01*
Y351969D01*
X528031D01*
X529409Y352757D01*
X530591D01*
X531969Y351969D01*
X532757D01*
Y348031D01*
X531969D01*
X530591Y347243D01*
X529409D01*
X528031Y348031D01*
X525277D01*
Y347839D01*
X523777Y347127D01*
Y346999D01*
X463840D01*
X459990Y350849D01*
X456141Y346999D01*
X396224D01*
Y347127D01*
X394724Y347839D01*
Y348031D01*
X391969D01*
X390591Y347243D01*
X389409D01*
X388031Y348031D01*
X387243D01*
Y351969D01*
X388031D01*
X389409Y352757D01*
X390591D01*
X391969Y351969D01*
X394724D01*
Y352161D01*
X396224Y352873D01*
Y353001D01*
X454440D01*
Y355765D01*
X454622D01*
X455472Y357265D01*
X456062D01*
Y362363D01*
X456654D01*
Y360985D01*
X458228D01*
Y362735D01*
X458031D01*
X457181Y364235D01*
X456999D01*
Y454440D01*
X454235D01*
Y454622D01*
X452735Y455472D01*
Y456062D01*
X447637D01*
Y456654D01*
X449015D01*
Y458228D01*
X447265D01*
Y458031D01*
X445765Y457181D01*
Y456999D01*
X315560D01*
Y454235D01*
X315378D01*
X314528Y452735D01*
X313938D01*
Y447637D01*
X313346D01*
Y449015D01*
X311772D01*
Y447265D01*
X311969D01*
X312819Y445765D01*
X313001D01*
Y325560D01*
X315765D01*
Y325378D01*
X317265Y324528D01*
Y323938D01*
X322363D01*
Y323346D01*
X320985D01*
Y321772D01*
X322735D01*
Y321969D01*
X324235Y322819D01*
Y323001D01*
X333857D01*
Y322873D01*
X335357Y322161D01*
Y321969D01*
X338031D01*
X339409Y322757D01*
X340591D01*
X341969Y321969D01*
X342757D01*
Y318031D01*
X341969D01*
X340591Y317243D01*
X339409D01*
X338031Y318031D01*
X335357D01*
Y317839D01*
X333857Y317127D01*
Y316999D01*
X324235D01*
Y317181D01*
X322735Y318031D01*
Y318228D01*
X320985D01*
Y316654D01*
X322363D01*
Y316062D01*
X317265D01*
Y315472D01*
X315765Y314622D01*
Y314440D01*
X313001D01*
Y194235D01*
X312819D01*
X311969Y192735D01*
X311772D01*
Y190985D01*
X313346D01*
Y192363D01*
X313938D01*
Y187265D01*
X314528D01*
X315378Y185765D01*
X315560D01*
Y183001D01*
X445765D01*
Y182819D01*
X447265Y181969D01*
Y181772D01*
X449015D01*
Y183346D01*
X447637D01*
Y183938D01*
X452735D01*
Y184528D01*
X454235Y185378D01*
Y185560D01*
X456999D01*
Y275803D01*
X457181D01*
X458031Y277303D01*
X458228D01*
Y279015D01*
X456654D01*
Y277637D01*
X456062D01*
Y282682D01*
X455454D01*
X454604Y284182D01*
X454421D01*
Y286999D01*
X396223D01*
Y287127D01*
X394723Y287839D01*
Y288031D01*
X391969D01*
X390591Y287243D01*
X389409D01*
X388031Y288031D01*
X387243D01*
Y291969D01*
X388031D01*
X389409Y292757D01*
X390591D01*
X391969Y291969D01*
X394723D01*
Y292161D01*
X396223Y292873D01*
Y293001D01*
X456110D01*
X459990Y289121D01*
X463870Y293001D01*
X523777D01*
Y292873D01*
X525277Y292161D01*
Y291969D01*
X528031D01*
X529409Y292757D01*
X530591D01*
X531969Y291969D01*
X532757D01*
Y288031D01*
X531969D01*
X530591Y287243D01*
X529409D01*
X528031Y288031D01*
X525277D01*
Y287839D01*
X523777Y287127D01*
Y286999D01*
X465560D01*
Y284235D01*
X465378D01*
X464528Y282735D01*
X463938D01*
Y277637D01*
X463346D01*
Y279015D01*
X461772D01*
Y277303D01*
X461969D01*
X462819Y275803D01*
X463001D01*
Y183870D01*
X459131Y180000D01*
X463001Y176130D01*
Y84235D01*
X462819D01*
X461969Y82735D01*
X461772D01*
Y80985D01*
X463346D01*
Y82363D01*
X463938D01*
Y77265D01*
X464528D01*
X465378Y75765D01*
X465560D01*
Y73001D01*
X523837D01*
Y72873D01*
X525337Y72161D01*
Y71969D01*
X528031D01*
X529409Y72757D01*
X530591D01*
X531969Y71969D01*
X532757D01*
Y68031D01*
X531969D01*
X530591Y67243D01*
X529409D01*
X528031Y68031D01*
X525337D01*
Y67839D01*
X523837Y67127D01*
Y66999D01*
X463870D01*
X460000Y70869D01*
X456130Y66999D01*
X396224D01*
Y67127D01*
X394724Y67839D01*
Y68031D01*
X391969D01*
X390591Y67243D01*
X389409D01*
X388031Y68031D01*
X387243D01*
Y71969D01*
X388031D01*
X389409Y72757D01*
X390591D01*
X391969Y71969D01*
X394724D01*
Y72161D01*
X396224Y72873D01*
Y73001D01*
X454440D01*
Y75765D01*
X454622D01*
X455472Y77265D01*
X456062D01*
Y82363D01*
X456654D01*
Y80985D01*
X458228D01*
Y82735D01*
X458031D01*
X457181Y84235D01*
X456999D01*
Y174440D01*
X454235D01*
Y174622D01*
X452735Y175472D01*
Y176062D01*
X447637D01*
Y176654D01*
X449015D01*
Y178228D01*
X447265D01*
Y178031D01*
X445765Y177181D01*
Y176999D01*
X313870D01*
X309995Y180874D01*
X306120Y176999D01*
X184235D01*
Y177181D01*
X182735Y178031D01*
Y178228D01*
X180985D01*
Y176654D01*
X182363D01*
Y176062D01*
X177265D01*
Y175472D01*
X175765Y174622D01*
Y174440D01*
X173001D01*
Y84235D01*
X172819D01*
X171969Y82735D01*
X171772D01*
Y80985D01*
X173346D01*
Y82363D01*
X173938D01*
Y77265D01*
X174528D01*
X175378Y75765D01*
X175560D01*
Y73001D01*
X234113D01*
Y72874D01*
X235614Y72161D01*
Y71969D01*
X238231D01*
X239609Y72757D01*
X240791D01*
X242169Y71969D01*
X242957D01*
Y68031D01*
X242169D01*
X240791Y67243D01*
X239609D01*
X238231Y68031D01*
X235614D01*
Y67839D01*
X234113Y67126D01*
Y66999D01*
X173870D01*
X170000Y70869D01*
X166130Y66999D01*
X106224D01*
Y67127D01*
X104724Y67839D01*
Y68031D01*
X101969D01*
X100591Y67243D01*
X99409D01*
X98031Y68031D01*
X97243D01*
Y71969D01*
X98031D01*
X99409Y72757D01*
X100591D01*
X101969Y71969D01*
X104724D01*
Y72161D01*
X106224Y72873D01*
Y73001D01*
X164440D01*
Y75765D01*
X164622D01*
X165472Y77265D01*
X166062D01*
Y82363D01*
X166654D01*
Y80985D01*
X168228D01*
Y82735D01*
X168031D01*
X167181Y84235D01*
X166999D01*
Y176130D01*
X170869Y180000D01*
X166999Y183870D01*
Y275765D01*
X167181D01*
X168031Y277265D01*
X168228D01*
Y279015D01*
X166654D01*
Y277637D01*
X166062D01*
Y282735D01*
X165472D01*
X164622Y284235D01*
X164440D01*
Y286999D01*
X106223D01*
Y287127D01*
X104724Y287839D01*
Y288031D01*
X101969D01*
X100591Y287243D01*
X99409D01*
X98031Y288031D01*
X97243D01*
Y291969D01*
X98031D01*
X99409Y292757D01*
X100591D01*
X101969Y291969D01*
X104724D01*
Y292161D01*
X106223Y292873D01*
Y293001D01*
X166130D01*
X170000Y289131D01*
X173870Y293001D01*
X233777D01*
Y292873D01*
X235277Y292161D01*
Y291969D01*
X238031D01*
X239409Y292757D01*
X240591D01*
X241969Y291969D01*
X242757D01*
Y288031D01*
X241969D01*
X240591Y287243D01*
X239409D01*
X238031Y288031D01*
X235277D01*
Y287839D01*
X233777Y287127D01*
Y286999D01*
X175560D01*
Y284235D01*
X175378D01*
X174528Y282735D01*
X173938D01*
Y277637D01*
X173346D01*
Y279015D01*
X171772D01*
Y277265D01*
X171969D01*
X172819Y275765D01*
X173001D01*
Y185560D01*
X175765D01*
Y185378D01*
X177265Y184528D01*
Y183938D01*
X182363D01*
Y183346D01*
X180985D01*
Y181772D01*
X182735D01*
Y181969D01*
X184235Y182819D01*
Y183001D01*
X304440D01*
Y185765D01*
X304622D01*
X305472Y187265D01*
X306062D01*
Y192363D01*
X306654D01*
Y190985D01*
X308228D01*
Y192735D01*
X308031D01*
X307181Y194235D01*
X306999D01*
Y316130D01*
X310869Y320000D01*
X306999Y323870D01*
Y445765D01*
X307181D01*
X308031Y447265D01*
X308228D01*
Y449015D01*
X306654D01*
Y447637D01*
X306062D01*
Y452735D01*
X305472D01*
X304622Y454235D01*
X304440D01*
Y456999D01*
X184235D01*
Y457181D01*
X182735Y458031D01*
Y458228D01*
X180985D01*
Y456654D01*
X182363D01*
Y456062D01*
X177265D01*
Y455472D01*
X175765Y454622D01*
Y454440D01*
X173001D01*
Y364235D01*
X172819D01*
X171969Y362735D01*
X171772D01*
Y360985D01*
X173346D01*
Y362363D01*
X173938D01*
Y357265D01*
X174528D01*
X175378Y355765D01*
X175560D01*
Y353001D01*
X233777D01*
Y352873D01*
X235277Y352161D01*
Y351969D01*
X238031D01*
X239409Y352757D01*
X240591D01*
X241969Y351969D01*
X242757D01*
Y348031D01*
X241969D01*
X240591Y347243D01*
X239409D01*
X238031Y348031D01*
X235277D01*
Y347839D01*
X233777Y347127D01*
Y346999D01*
X173870D01*
X170000Y350869D01*
X166130Y346999D01*
X106224D01*
Y347127D01*
X104724Y347839D01*
Y348031D01*
X101969D01*
X100591Y347243D01*
X99409D01*
X98031Y348031D01*
X97243D01*
Y351969D01*
X98031D01*
X99409Y352757D01*
X100591D01*
X101969Y351969D01*
X104724D01*
Y352161D01*
X106224Y352873D01*
Y353001D01*
X164440D01*
Y355765D01*
X164622D01*
X165472Y357265D01*
X166062D01*
Y362363D01*
X166654D01*
Y360985D01*
X168228D01*
Y362735D01*
X168031D01*
X167181Y364235D01*
X166999D01*
Y456130D01*
X170869Y460000D01*
X166999Y463870D01*
Y555765D01*
X167181D01*
X168031Y557265D01*
X168228D01*
Y559015D01*
X166654D01*
Y557637D01*
X166062D01*
Y562735D01*
X165472D01*
X164622Y564235D01*
X164440D01*
Y566999D01*
X106223D01*
Y567127D01*
X104724Y567839D01*
Y568031D01*
X101969D01*
X100591Y567243D01*
X99409D01*
X98031Y568031D01*
X97243D01*
Y571969D01*
X98031D01*
X99409Y572757D01*
X100591D01*
X101969Y571969D01*
X104724D01*
Y572161D01*
X106223Y572873D01*
Y573001D01*
X166130D01*
X170000Y569131D01*
X173870Y573001D01*
X233777D01*
Y572873D01*
X235277Y572161D01*
Y571969D01*
X238031D01*
X239409Y572757D01*
X240591D01*
X241969Y571969D01*
X242757D01*
Y568031D01*
X241969D01*
X240591Y567243D01*
X239409D01*
X238031Y568031D01*
X235277D01*
Y567839D01*
X233777Y567127D01*
Y566999D01*
X175560D01*
Y564235D01*
X175378D01*
X174528Y562735D01*
X173938D01*
Y557637D01*
X173346D01*
Y559015D01*
X171772D01*
Y557265D01*
X171969D01*
X172819Y555765D01*
X173001D01*
Y465560D01*
X175765D01*
Y465378D01*
X177265Y464528D01*
Y463938D01*
X182363D01*
Y463346D01*
X180985D01*
Y461772D01*
X182735D01*
Y461969D01*
X184235Y462819D01*
Y463001D01*
X306130D01*
X310000Y459131D01*
X313870Y463001D01*
X445765D01*
Y462819D01*
X447265Y461969D01*
Y461772D01*
X449015D01*
Y463346D01*
X447637D01*
Y463938D01*
X452735D01*
Y464528D01*
X454235Y465378D01*
Y465560D01*
X456999D01*
Y555765D01*
X457181D01*
X458031Y557265D01*
X458228D01*
Y559015D01*
X456654D01*
Y557637D01*
X456062D01*
Y562735D01*
X455472D01*
X454622Y564235D01*
X454440D01*
Y566999D01*
X396198D01*
Y567127D01*
X394698Y567839D01*
Y568031D01*
X391969D01*
X390591Y567243D01*
X389409D01*
X388031Y568031D01*
X387243D01*
Y571969D01*
X388031D01*
X389409Y572757D01*
X390591D01*
X391969Y571969D01*
X394698D01*
Y572161D01*
X396198Y572873D01*
Y573001D01*
X456130D01*
G37*
%LPD*%
G75*
G36*
G01X165511Y71500D02*
X106225D01*
Y68500D01*
X165511D01*
Y71500D01*
G37*
G36*
G01X103740Y69213D02*
X104725D01*
Y70788D01*
X103740D01*
Y69213D01*
G37*
G36*
G01X104725D02*
X106225Y68500D01*
Y71500D01*
X104725Y70788D01*
Y69213D01*
G37*
G36*
G01X165511Y291500D02*
X106224D01*
Y288500D01*
X165511D01*
Y291500D01*
G37*
G36*
G01X104725Y289212D02*
X106225Y288500D01*
Y291500D01*
X104725Y290788D01*
Y289212D01*
G37*
G36*
G01X103740D02*
X104725D01*
Y290788D01*
X103740D01*
Y289212D01*
G37*
G36*
G01X165511Y351500D02*
X106225D01*
Y348500D01*
X165511D01*
Y351500D01*
G37*
G36*
G01X103740Y349212D02*
X104725D01*
Y350788D01*
X103740D01*
Y349212D01*
G37*
G36*
G01X104725D02*
X106225Y348500D01*
Y351500D01*
X104725Y350788D01*
Y349212D01*
G37*
G36*
G01Y569212D02*
X106225Y568500D01*
Y571500D01*
X104725Y570788D01*
Y569212D01*
G37*
G36*
G01X103740D02*
X104725D01*
Y570788D01*
X103740D01*
Y569212D01*
G37*
G36*
G01X165511Y571500D02*
X106224D01*
Y568500D01*
X165511D01*
Y571500D01*
G37*
G36*
G01X165941Y71500D02*
Y71930D01*
X168941D01*
X165511Y68500D01*
Y71500D01*
X165941D01*
G37*
G36*
G01Y75764D02*
Y71930D01*
X168941D01*
Y75764D01*
X165941D01*
G37*
G36*
G01X174059Y71500D02*
X174489D01*
Y68500D01*
X171059Y71930D01*
X174059D01*
Y71500D01*
G37*
G36*
G01Y71930D02*
Y75764D01*
X171059D01*
Y71930D01*
X174059D01*
G37*
G36*
G01X166792Y78071D02*
Y77264D01*
X168091D01*
Y78071D01*
X166792D01*
G37*
G36*
G01Y77264D02*
X165941Y75764D01*
X168941D01*
X168091Y77264D01*
X166792D01*
G37*
G36*
G01X171909Y78071D02*
Y77264D01*
X173208D01*
Y78071D01*
X171909D01*
G37*
G36*
G01Y77264D02*
X171059Y75764D01*
X174059D01*
X173208Y77264D01*
X171909D01*
G37*
G36*
G01X170650Y81929D02*
Y82736D01*
X169350D01*
Y81929D01*
X170650D01*
G37*
G36*
G01Y82736D02*
X171500Y84236D01*
X168500D01*
X169350Y82736D01*
X170650D01*
G37*
G36*
G01X171500Y84236D02*
Y175511D01*
X168500D01*
Y84236D01*
X171500D01*
G37*
G36*
G01Y175941D02*
Y175511D01*
X168500D01*
X171930Y178941D01*
Y175941D01*
X171500D01*
G37*
G36*
G01X175764Y178941D02*
X171930D01*
Y175941D01*
X175764D01*
Y178941D01*
G37*
G36*
G01X171500Y184059D02*
X171930D01*
Y181059D01*
X168500Y184489D01*
X171500D01*
Y184059D01*
G37*
G36*
G01X175764D02*
X171930D01*
Y181059D01*
X175764D01*
Y184059D01*
G37*
G36*
G01X171500Y184489D02*
Y275764D01*
X168500D01*
Y184489D01*
X171500D01*
G37*
G36*
G01X169350Y278071D02*
Y277264D01*
X170650D01*
Y278071D01*
X169350D01*
G37*
G36*
G01Y277264D02*
X168500Y275764D01*
X171500D01*
X170650Y277264D01*
X169350D01*
G37*
G36*
G01X174059Y288500D02*
Y288070D01*
X171059D01*
X174489Y291500D01*
Y288500D01*
X174059D01*
G37*
G36*
G01Y284236D02*
Y288070D01*
X171059D01*
Y284236D01*
X174059D01*
G37*
G36*
G01X173208Y281929D02*
Y282736D01*
X171910D01*
Y281929D01*
X173208D01*
G37*
G36*
G01Y282736D02*
X174059Y284236D01*
X171059D01*
X171910Y282736D01*
X173208D01*
G37*
G36*
G01X165941Y288500D02*
X165511D01*
Y291500D01*
X168941Y288070D01*
X165941D01*
Y288500D01*
G37*
G36*
G01X168941Y284236D02*
Y288070D01*
X165941D01*
Y284236D01*
X168941D01*
G37*
G36*
G01X168090Y281929D02*
Y282736D01*
X166792D01*
Y281929D01*
X168090D01*
G37*
G36*
G01Y282736D02*
X168941Y284236D01*
X165941D01*
X166792Y282736D01*
X168090D01*
G37*
G36*
G01X174059Y351500D02*
X174489D01*
Y348500D01*
X171059Y351930D01*
X174059D01*
Y351500D01*
G37*
G36*
G01X165941D02*
Y351930D01*
X168941D01*
X165511Y348500D01*
Y351500D01*
X165941D01*
G37*
G36*
G01X174059Y351930D02*
Y355764D01*
X171059D01*
Y351930D01*
X174059D01*
G37*
G36*
G01X171910Y358071D02*
Y357264D01*
X173208D01*
Y358071D01*
X171910D01*
G37*
G36*
G01Y357264D02*
X171059Y355764D01*
X174059D01*
X173208Y357264D01*
X171910D01*
G37*
G36*
G01X165941Y355764D02*
Y351930D01*
X168941D01*
Y355764D01*
X165941D01*
G37*
G36*
G01X166792Y358071D02*
Y357264D01*
X168090D01*
Y358071D01*
X166792D01*
G37*
G36*
G01Y357264D02*
X165941Y355764D01*
X168941D01*
X168090Y357264D01*
X166792D01*
G37*
G36*
G01X171500Y364236D02*
Y455511D01*
X168500D01*
Y364236D01*
X171500D01*
G37*
G36*
G01X170650Y361929D02*
Y362736D01*
X169350D01*
Y361929D01*
X170650D01*
G37*
G36*
G01Y362736D02*
X171500Y364236D01*
X168500D01*
X169350Y362736D01*
X170650D01*
G37*
G36*
G01X171500Y455941D02*
Y455511D01*
X168500D01*
X171930Y458941D01*
Y455941D01*
X171500D01*
G37*
G36*
G01X175764Y458941D02*
X171930D01*
Y455941D01*
X175764D01*
Y458941D01*
G37*
G36*
G01X171500Y464059D02*
X171930D01*
Y461059D01*
X168500Y464489D01*
X171500D01*
Y464059D01*
G37*
G36*
G01X175764D02*
X171930D01*
Y461059D01*
X175764D01*
Y464059D01*
G37*
G36*
G01X171500Y464489D02*
Y555764D01*
X168500D01*
Y464489D01*
X171500D01*
G37*
G36*
G01X169350Y557264D02*
X168500Y555764D01*
X171500D01*
X170650Y557264D01*
X169350D01*
G37*
G36*
G01Y558071D02*
Y557264D01*
X170650D01*
Y558071D01*
X169350D01*
G37*
G36*
G01X174059Y564236D02*
Y568070D01*
X171059D01*
Y564236D01*
X174059D01*
G37*
G36*
G01X173208Y561929D02*
Y562736D01*
X171910D01*
Y561929D01*
X173208D01*
G37*
G36*
G01Y562736D02*
X174059Y564236D01*
X171059D01*
X171910Y562736D01*
X173208D01*
G37*
G36*
G01X168090D02*
X168941Y564236D01*
X165941D01*
X166792Y562736D01*
X168090D01*
G37*
G36*
G01Y561929D02*
Y562736D01*
X166792D01*
Y561929D01*
X168090D01*
G37*
G36*
G01X168941Y564236D02*
Y568070D01*
X165941D01*
Y564236D01*
X168941D01*
G37*
G36*
G01X174059Y568500D02*
Y568070D01*
X171059D01*
X174489Y571500D01*
Y568500D01*
X174059D01*
G37*
G36*
G01X165941D02*
X165511D01*
Y571500D01*
X168941Y568070D01*
X165941D01*
Y568500D01*
G37*
G36*
G01X174489Y68500D02*
X234112D01*
Y71500D01*
X174489D01*
Y68500D01*
G37*
G36*
G01X178071Y178090D02*
X177264D01*
Y176792D01*
X178071D01*
Y178090D01*
G37*
G36*
G01X177264D02*
X175764Y178941D01*
Y175941D01*
X177264Y176792D01*
Y178090D01*
G37*
G36*
G01Y183208D02*
X175764Y184059D01*
Y181059D01*
X177264Y181909D01*
Y183208D01*
G37*
G36*
G01X178071D02*
X177264D01*
Y181909D01*
X178071D01*
Y183208D01*
G37*
G36*
G01X233776Y291500D02*
X174489D01*
Y288500D01*
X233776D01*
Y291500D01*
G37*
G36*
G01Y351500D02*
X174489D01*
Y348500D01*
X233776D01*
Y351500D01*
G37*
G36*
G01X178071Y458090D02*
X177264D01*
Y456792D01*
X178071D01*
Y458090D01*
G37*
G36*
G01X177264D02*
X175764Y458941D01*
Y455941D01*
X177264Y456792D01*
Y458090D01*
G37*
G36*
G01X178071Y463208D02*
X177264D01*
Y461910D01*
X178071D01*
Y463208D01*
G37*
G36*
G01X177264D02*
X175764Y464059D01*
Y461059D01*
X177264Y461910D01*
Y463208D01*
G37*
G36*
G01X233776Y571500D02*
X174489D01*
Y568500D01*
X233776D01*
Y571500D01*
G37*
G36*
G01X305511Y181500D02*
X184236D01*
Y178500D01*
X305511D01*
Y181500D01*
G37*
G36*
G01X181929Y179351D02*
X182736D01*
Y180650D01*
X181929D01*
Y179351D01*
G37*
G36*
G01X182736D02*
X184236Y178500D01*
Y181500D01*
X182736Y180650D01*
Y179351D01*
G37*
G36*
G01X305511Y461500D02*
X184236D01*
Y458500D01*
X305511D01*
Y461500D01*
G37*
G36*
G01X182736Y459350D02*
X184236Y458500D01*
Y461500D01*
X182736Y460650D01*
Y459350D01*
G37*
G36*
G01X181929D02*
X182736D01*
Y460650D01*
X181929D01*
Y459350D01*
G37*
G36*
G01X235613Y70788D02*
X234113Y71500D01*
Y68500D01*
X235613Y69212D01*
Y70788D01*
G37*
G36*
G01X235276Y290788D02*
X233776Y291500D01*
Y288500D01*
X235276Y289212D01*
Y290788D01*
G37*
G36*
G01X236260D02*
X235276D01*
Y289212D01*
X236260D01*
Y290788D01*
G37*
G36*
G01Y350788D02*
X235276D01*
Y349212D01*
X236260D01*
Y350788D01*
G37*
G36*
G01X235276D02*
X233776Y351500D01*
Y348500D01*
X235276Y349212D01*
Y350788D01*
G37*
G36*
G01X236260Y570788D02*
X235276D01*
Y569212D01*
X236260D01*
Y570788D01*
G37*
G36*
G01X235276D02*
X233776Y571500D01*
Y568500D01*
X235276Y569212D01*
Y570788D01*
G37*
G36*
G01X236597Y70788D02*
X235613D01*
Y69212D01*
X236597D01*
Y70788D01*
G37*
G36*
G01X305941Y181500D02*
Y181930D01*
X308941D01*
X305511Y178500D01*
Y181500D01*
X305941D01*
G37*
G36*
G01Y185764D02*
Y181930D01*
X308941D01*
Y185764D01*
X305941D01*
G37*
G36*
G01X306792Y188071D02*
Y187264D01*
X308090D01*
Y188071D01*
X306792D01*
G37*
G36*
G01Y187264D02*
X305941Y185764D01*
X308941D01*
X308090Y187264D01*
X306792D01*
G37*
G36*
G01X305941Y458500D02*
X305511D01*
Y461500D01*
X308941Y458070D01*
X305941D01*
Y458500D01*
G37*
G36*
G01X308941Y454236D02*
Y458070D01*
X305941D01*
Y454236D01*
X308941D01*
G37*
G36*
G01X308090Y451929D02*
Y452736D01*
X306792D01*
Y451929D01*
X308090D01*
G37*
G36*
G01Y452736D02*
X308941Y454236D01*
X305941D01*
X306792Y452736D01*
X308090D01*
G37*
G36*
G01X314059Y181500D02*
X314489D01*
Y178500D01*
X311059Y181930D01*
X314059D01*
Y181500D01*
G37*
G36*
G01X445764D02*
X314489D01*
Y178500D01*
X445764D01*
Y181500D01*
G37*
G36*
G01X314059Y181930D02*
Y185764D01*
X311059D01*
Y181930D01*
X314059D01*
G37*
G36*
G01X311910Y188071D02*
Y187264D01*
X313208D01*
Y188071D01*
X311910D01*
G37*
G36*
G01Y187264D02*
X311059Y185764D01*
X314059D01*
X313208Y187264D01*
X311910D01*
G37*
G36*
G01X311500Y194236D02*
Y315511D01*
X308500D01*
Y194236D01*
X311500D01*
G37*
G36*
G01X310650Y191929D02*
Y192736D01*
X309350D01*
Y191929D01*
X310650D01*
G37*
G36*
G01Y192736D02*
X311500Y194236D01*
X308500D01*
X309350Y192736D01*
X310650D01*
G37*
G36*
G01X311500Y315941D02*
Y315511D01*
X308500D01*
X311930Y318941D01*
Y315941D01*
X311500D01*
G37*
G36*
G01X315764Y318941D02*
X311930D01*
Y315941D01*
X315764D01*
Y318941D01*
G37*
G36*
G01X311500Y324059D02*
X311930D01*
Y321059D01*
X308500Y324489D01*
X311500D01*
Y324059D01*
G37*
G36*
G01X315764D02*
X311930D01*
Y321059D01*
X315764D01*
Y324059D01*
G37*
G36*
G01X311500Y324489D02*
Y445764D01*
X308500D01*
Y324489D01*
X311500D01*
G37*
G36*
G01X309350Y448071D02*
Y447264D01*
X310650D01*
Y448071D01*
X309350D01*
G37*
G36*
G01Y447264D02*
X308500Y445764D01*
X311500D01*
X310650Y447264D01*
X309350D01*
G37*
G36*
G01X314059Y458500D02*
Y458070D01*
X311059D01*
X314489Y461500D01*
Y458500D01*
X314059D01*
G37*
G36*
G01Y454236D02*
Y458070D01*
X311059D01*
Y454236D01*
X314059D01*
G37*
G36*
G01X313208Y451929D02*
Y452736D01*
X311910D01*
Y451929D01*
X313208D01*
G37*
G36*
G01Y452736D02*
X314059Y454236D01*
X311059D01*
X311910Y452736D01*
X313208D01*
G37*
G36*
G01X445764Y461500D02*
X314489D01*
Y458500D01*
X445764D01*
Y461500D01*
G37*
G36*
G01X321929Y319350D02*
X322736D01*
Y320650D01*
X321929D01*
Y319350D01*
G37*
G36*
G01X322736D02*
X324236Y318500D01*
Y321500D01*
X322736Y320650D01*
Y319350D01*
G37*
G36*
G01X324236Y318500D02*
X329015D01*
Y321500D01*
X324236D01*
Y318500D01*
G37*
G36*
G01X318071Y318090D02*
X317264D01*
Y316792D01*
X318071D01*
Y318090D01*
G37*
G36*
G01X317264D02*
X315764Y318941D01*
Y315941D01*
X317264Y316792D01*
Y318090D01*
G37*
G36*
G01X318071Y323208D02*
X317264D01*
Y321910D01*
X318071D01*
Y323208D01*
G37*
G36*
G01X317264D02*
X315764Y324059D01*
Y321059D01*
X317264Y321910D01*
Y323208D01*
G37*
G36*
G01X329015Y318500D02*
X333856D01*
Y321500D01*
X329015D01*
Y318500D01*
G37*
G36*
G01X336341Y320788D02*
X335356D01*
Y319212D01*
X336341D01*
Y320788D01*
G37*
G36*
G01X335356D02*
X333856Y321500D01*
Y318500D01*
X335356Y319212D01*
Y320788D01*
G37*
G36*
G01X393740Y69213D02*
X394725D01*
Y70788D01*
X393740D01*
Y69213D01*
G37*
G36*
G01X394725D02*
X396225Y68500D01*
Y71500D01*
X394725Y70788D01*
Y69213D01*
G37*
G36*
G01X394724Y289212D02*
X396224Y288500D01*
Y291500D01*
X394724Y290788D01*
Y289212D01*
G37*
G36*
G01X393740D02*
X394724D01*
Y290788D01*
X393740D01*
Y289212D01*
G37*
G36*
G01Y349212D02*
X394725D01*
Y350788D01*
X393740D01*
Y349212D01*
G37*
G36*
G01X394725D02*
X396225Y348500D01*
Y351500D01*
X394725Y350788D01*
Y349212D01*
G37*
G36*
G01X393714Y569212D02*
X394699D01*
Y570788D01*
X393714D01*
Y569212D01*
G37*
G36*
G01X394699D02*
X396199Y568500D01*
Y571500D01*
X394699Y570788D01*
Y569212D01*
G37*
G36*
G01X455511Y71500D02*
X396225D01*
Y68500D01*
X455511D01*
Y71500D01*
G37*
G36*
G01X396224Y288500D02*
X455492D01*
Y291500D01*
X396224D01*
Y288500D01*
G37*
G36*
G01X455511Y351500D02*
X396225D01*
Y348500D01*
X455511D01*
Y351500D01*
G37*
G36*
G01Y571500D02*
X396199D01*
Y568500D01*
X455511D01*
Y571500D01*
G37*
G36*
G01X448071Y180650D02*
X447264D01*
Y179350D01*
X448071D01*
Y180650D01*
G37*
G36*
G01X447264D02*
X445764Y181500D01*
Y178500D01*
X447264Y179350D01*
Y180650D01*
G37*
G36*
G01Y460650D02*
X445764Y461500D01*
Y458500D01*
X447264Y459350D01*
Y460650D01*
G37*
G36*
G01X448071D02*
X447264D01*
Y459350D01*
X448071D01*
Y460650D01*
G37*
G36*
G01X455941Y71500D02*
Y71930D01*
X458941D01*
X455511Y68500D01*
Y71500D01*
X455941D01*
G37*
G36*
G01Y75764D02*
Y71930D01*
X458941D01*
Y75764D01*
X455941D01*
G37*
G36*
G01X456792Y78071D02*
Y77264D01*
X458090D01*
Y78071D01*
X456792D01*
G37*
G36*
G01Y77264D02*
X455941Y75764D01*
X458941D01*
X458090Y77264D01*
X456792D01*
G37*
G36*
G01X461500Y84236D02*
Y175511D01*
X458500D01*
Y84236D01*
X461500D01*
G37*
G36*
G01X460650Y82736D02*
X461500Y84236D01*
X458500D01*
X459350Y82736D01*
X460650D01*
G37*
G36*
G01X458500Y184059D02*
Y184489D01*
X461500D01*
X458070Y181059D01*
Y184059D01*
X458500D01*
G37*
G36*
G01X458070D02*
X454236D01*
Y181059D01*
X458070D01*
Y184059D01*
G37*
G36*
G01X452736Y181910D02*
X454236Y181059D01*
Y184059D01*
X452736Y183208D01*
Y181910D01*
G37*
G36*
G01X458500Y175941D02*
X458070D01*
Y178941D01*
X461500Y175511D01*
X458500D01*
Y175941D01*
G37*
G36*
G01X454236D02*
X458070D01*
Y178941D01*
X454236D01*
Y175941D01*
G37*
G36*
G01X451929Y176792D02*
X452736D01*
Y178091D01*
X451929D01*
Y176792D01*
G37*
G36*
G01X452736D02*
X454236Y175941D01*
Y178941D01*
X452736Y178091D01*
Y176792D01*
G37*
G36*
G01X461500Y184489D02*
Y275802D01*
X458500D01*
Y184489D01*
X461500D01*
G37*
G36*
G01X451929Y181910D02*
X452736D01*
Y183208D01*
X451929D01*
Y181910D01*
G37*
G36*
G01X459350Y277302D02*
X458500Y275802D01*
X461500D01*
X460650Y277302D01*
X459350D01*
G37*
G36*
G01X455922Y288500D02*
X455492D01*
Y291500D01*
X458922Y288070D01*
X455922D01*
Y288500D01*
G37*
G36*
G01Y288070D02*
Y284183D01*
X458922D01*
Y288070D01*
X455922D01*
G37*
G36*
G01X458072Y281876D02*
Y282683D01*
X456773D01*
Y281876D01*
X458072D01*
G37*
G36*
G01Y282683D02*
X458922Y284183D01*
X455922D01*
X456773Y282683D01*
X458072D01*
G37*
G36*
G01X455941Y351500D02*
Y351930D01*
X458941D01*
X455511Y348500D01*
Y351500D01*
X455941D01*
G37*
G36*
G01Y355764D02*
Y351930D01*
X458941D01*
Y355764D01*
X455941D01*
G37*
G36*
G01X456792Y358071D02*
Y357264D01*
X458090D01*
Y358071D01*
X456792D01*
G37*
G36*
G01Y357264D02*
X455941Y355764D01*
X458941D01*
X458090Y357264D01*
X456792D01*
G37*
G36*
G01X461500Y364236D02*
Y455511D01*
X458500D01*
Y364236D01*
X461500D01*
G37*
G36*
G01X460650Y362736D02*
X461500Y364236D01*
X458500D01*
X459350Y362736D01*
X460650D01*
G37*
G36*
G01X458500Y455941D02*
X458070D01*
Y458941D01*
X461500Y455511D01*
X458500D01*
Y455941D01*
G37*
G36*
G01X454236D02*
X458070D01*
Y458941D01*
X454236D01*
Y455941D01*
G37*
G36*
G01X451929Y456792D02*
X452736D01*
Y458090D01*
X451929D01*
Y456792D01*
G37*
G36*
G01X452736D02*
X454236Y455941D01*
Y458941D01*
X452736Y458090D01*
Y456792D01*
G37*
G36*
G01X458500Y464059D02*
Y464489D01*
X461500D01*
X458070Y461059D01*
Y464059D01*
X458500D01*
G37*
G36*
G01X458070D02*
X454236D01*
Y461059D01*
X458070D01*
Y464059D01*
G37*
G36*
G01X451929Y461910D02*
X452736D01*
Y463208D01*
X451929D01*
Y461910D01*
G37*
G36*
G01X452736D02*
X454236Y461059D01*
Y464059D01*
X452736Y463208D01*
Y461910D01*
G37*
G36*
G01X461500Y464489D02*
Y555764D01*
X458500D01*
Y464489D01*
X461500D01*
G37*
G36*
G01X459350Y557264D02*
X458500Y555764D01*
X461500D01*
X460650Y557264D01*
X459350D01*
G37*
G36*
G01X458941Y564236D02*
Y568070D01*
X455941D01*
Y564236D01*
X458941D01*
G37*
G36*
G01X458090Y561929D02*
Y562736D01*
X456792D01*
Y561929D01*
X458090D01*
G37*
G36*
G01Y562736D02*
X458941Y564236D01*
X455941D01*
X456792Y562736D01*
X458090D01*
G37*
G36*
G01X455941Y568500D02*
Y568070D01*
X458941D01*
X455511Y571500D01*
Y568500D01*
X455941D01*
G37*
G36*
G01X464059Y71500D02*
X464489D01*
Y68500D01*
X461059Y71930D01*
X464059D01*
Y71500D01*
G37*
G36*
G01Y71930D02*
Y75764D01*
X461059D01*
Y71930D01*
X464059D01*
G37*
G36*
G01X464489Y68500D02*
X523836D01*
Y71500D01*
X464489D01*
Y68500D01*
G37*
G36*
G01X460650Y81929D02*
Y82736D01*
X459350D01*
Y81929D01*
X460650D01*
G37*
G36*
G01X461910Y78071D02*
Y77264D01*
X463208D01*
Y78071D01*
X461910D01*
G37*
G36*
G01Y77264D02*
X461059Y75764D01*
X464059D01*
X463208Y77264D01*
X461910D01*
G37*
G36*
G01X459350Y278109D02*
Y277302D01*
X460650D01*
Y278109D01*
X459350D01*
G37*
G36*
G01X464059Y288500D02*
Y288070D01*
X461059D01*
X464489Y291500D01*
Y288500D01*
X464059D01*
G37*
G36*
G01X523776Y291500D02*
X464489D01*
Y288500D01*
X523776D01*
Y291500D01*
G37*
G36*
G01X464059Y284236D02*
Y288070D01*
X461059D01*
Y284236D01*
X464059D01*
G37*
G36*
G01X463208Y281929D02*
Y282736D01*
X461910D01*
Y281929D01*
X463208D01*
G37*
G36*
G01Y282736D02*
X464059Y284236D01*
X461059D01*
X461910Y282736D01*
X463208D01*
G37*
G36*
G01X523776Y351500D02*
X464458D01*
Y348500D01*
X523776D01*
Y351500D01*
G37*
G36*
G01X464028D02*
X464458D01*
Y348500D01*
X461028Y351930D01*
X464028D01*
Y351500D01*
G37*
G36*
G01Y351930D02*
Y355821D01*
X461028D01*
Y351930D01*
X464028D01*
G37*
G36*
G01X461878Y358128D02*
Y357321D01*
X463177D01*
Y358128D01*
X461878D01*
G37*
G36*
G01Y357321D02*
X461028Y355821D01*
X464028D01*
X463177Y357321D01*
X461878D01*
G37*
G36*
G01X460650Y361929D02*
Y362736D01*
X459350D01*
Y361929D01*
X460650D01*
G37*
G36*
G01X459350Y558071D02*
Y557264D01*
X460650D01*
Y558071D01*
X459350D01*
G37*
G36*
G01X464059Y564236D02*
Y568070D01*
X461059D01*
Y564236D01*
X464059D01*
G37*
G36*
G01X463208Y561929D02*
Y562736D01*
X461910D01*
Y561929D01*
X463208D01*
G37*
G36*
G01Y562736D02*
X464059Y564236D01*
X461059D01*
X461910Y562736D01*
X463208D01*
G37*
G36*
G01X464059Y568500D02*
Y568070D01*
X461059D01*
X464489Y571500D01*
Y568500D01*
X464059D01*
G37*
G36*
G01X523776Y571500D02*
X464489D01*
Y568500D01*
X523776D01*
Y571500D01*
G37*
G36*
G01X526321Y70788D02*
X525336D01*
Y69212D01*
X526321D01*
Y70788D01*
G37*
G36*
G01X525336D02*
X523836Y71500D01*
Y68500D01*
X525336Y69212D01*
Y70788D01*
G37*
G36*
G01X525276Y290788D02*
X523776Y291500D01*
Y288500D01*
X525276Y289212D01*
Y290788D01*
G37*
G36*
G01X526260D02*
X525276D01*
Y289212D01*
X526260D01*
Y290788D01*
G37*
G36*
G01Y350788D02*
X525276D01*
Y349212D01*
X526260D01*
Y350788D01*
G37*
G36*
G01X525276D02*
X523776Y351500D01*
Y348500D01*
X525276Y349212D01*
Y350788D01*
G37*
G36*
G01X526260Y570788D02*
X525276D01*
Y569212D01*
X526260D01*
Y570788D01*
G37*
G36*
G01X525276D02*
X523776Y571500D01*
Y568500D01*
X525276Y569212D01*
Y570788D01*
G37*
G54D10*
X9387Y7985D03*
X8515Y23983D03*
Y39731D03*
Y55480D03*
Y71228D03*
Y86976D03*
Y102724D03*
Y118472D03*
Y134220D03*
Y149968D03*
Y165716D03*
Y181464D03*
Y197212D03*
Y212960D03*
Y228708D03*
Y244456D03*
Y260204D03*
Y275952D03*
Y291700D03*
Y307448D03*
Y323196D03*
Y338944D03*
Y354692D03*
Y370440D03*
Y386188D03*
Y401936D03*
Y417684D03*
Y433432D03*
Y449180D03*
Y464928D03*
Y480676D03*
Y496424D03*
Y512172D03*
Y527920D03*
Y543669D03*
Y559417D03*
Y575165D03*
Y590913D03*
Y606661D03*
X9087Y622285D03*
X25135Y7985D03*
X24835Y622285D03*
X40883Y7985D03*
X40583Y622285D03*
X56631Y7985D03*
X56331Y622285D03*
X72380Y7985D03*
X72080Y622285D03*
X88128Y7985D03*
X87828Y622285D03*
X103876Y7985D03*
X103576Y622285D03*
X119624Y7985D03*
X119324Y622285D03*
X135372Y7985D03*
X135072Y622285D03*
X151120Y7985D03*
X150820Y622285D03*
X166868Y7985D03*
X166568Y622285D03*
X182616Y7985D03*
X182316Y622285D03*
X198364Y7985D03*
X198064Y622285D03*
X214112Y7985D03*
X213812Y622285D03*
X229860Y7985D03*
X229560Y622285D03*
X245608Y7985D03*
X245308Y622285D03*
X261356Y7985D03*
X261056Y622285D03*
X277104Y7985D03*
X276804Y622285D03*
X292852Y7985D03*
X292552Y622285D03*
X308600Y7985D03*
X308300Y622285D03*
X324348Y7985D03*
X324048Y622285D03*
X340096Y7985D03*
X339796Y622285D03*
X355844Y7985D03*
X355544Y622285D03*
X371592Y7985D03*
X371292Y622285D03*
X387340Y7985D03*
X387040Y622285D03*
X403088Y7985D03*
X402788Y622285D03*
X418836Y7985D03*
X418536Y622285D03*
X434584Y7985D03*
X434284Y622285D03*
X450332Y7985D03*
X450032Y622285D03*
X466080Y7985D03*
X465780Y622285D03*
X481828Y7985D03*
X481528Y622285D03*
X497576Y7985D03*
X497276Y622285D03*
X513324Y7985D03*
X513024Y622285D03*
X529072Y7985D03*
X528772Y622285D03*
X544820Y7985D03*
X544520Y622285D03*
X560569Y7985D03*
X560269Y622285D03*
X576317Y7985D03*
X576017Y622285D03*
X592065Y7985D03*
X591765Y622285D03*
X607813Y7985D03*
X607513Y622285D03*
X623561Y7985D03*
X623415Y23883D03*
Y39631D03*
Y55380D03*
Y71128D03*
Y86876D03*
Y102624D03*
Y118372D03*
Y134120D03*
Y149868D03*
Y165616D03*
Y181364D03*
Y197112D03*
Y212860D03*
Y228608D03*
Y244356D03*
Y260104D03*
Y275852D03*
Y291600D03*
Y307348D03*
Y323096D03*
Y338844D03*
Y354592D03*
Y370340D03*
Y386088D03*
Y401836D03*
Y417584D03*
Y433332D03*
Y449080D03*
Y464828D03*
Y480576D03*
Y496324D03*
Y512072D03*
Y527820D03*
Y543569D03*
Y559317D03*
Y575065D03*
Y590813D03*
Y606561D03*
X623261Y622285D03*
G54D11*
X92500Y64700D03*
X90900Y73500D03*
X91600Y289400D03*
X93307Y343688D03*
X92200Y353100D03*
X93307Y563688D03*
X91300Y570200D03*
X101000Y62600D03*
X97400Y77600D03*
X95000Y282900D03*
X93800Y296500D03*
X101800Y342800D03*
X98200Y357200D03*
X101181Y563688D03*
X95206Y576299D03*
X108769Y65031D03*
X105800Y76300D03*
X103600Y282900D03*
X103500Y297100D03*
X108769Y345031D03*
X106460Y354969D03*
X103080Y576299D03*
X116643Y65031D03*
X114334Y74969D03*
X111525Y285031D03*
X119399D03*
X119701Y294969D03*
X111827D03*
X116643Y345031D03*
X114334Y354969D03*
X111525Y565031D03*
X119399D03*
X119701Y574969D03*
X111827D03*
X124517Y65031D03*
X122208Y74969D03*
X127273Y285031D03*
X127575Y294969D03*
X124517Y345031D03*
X122208Y354969D03*
X127273Y565031D03*
X127575Y574969D03*
X132391Y65031D03*
X137956Y74969D03*
X130082D03*
X135147Y285031D03*
X135449Y294969D03*
X132391Y345031D03*
X137956Y354969D03*
X130082D03*
X135147Y565031D03*
X135449Y574969D03*
X140265Y65031D03*
X145830Y74969D03*
X143021Y285031D03*
X143323Y294969D03*
X140265Y345031D03*
X145830Y354969D03*
X143021Y565031D03*
X143323Y574969D03*
X148139Y65031D03*
X156013D03*
X153704Y74969D03*
X150895Y285031D03*
X151197Y294969D03*
X148139Y345031D03*
X156013D03*
X153704Y354969D03*
X150895Y565031D03*
X151197Y574969D03*
X163887Y65031D03*
X161578Y74969D03*
X163100Y81800D03*
Y278100D03*
X158769Y285031D03*
X159071Y294969D03*
X163887Y345031D03*
X161578Y354969D03*
X158769Y565031D03*
X163000Y558400D03*
X159071Y574969D03*
X171631Y66455D03*
X165031Y88756D03*
Y96630D03*
Y104504D03*
Y120252D03*
Y112378D03*
Y128126D03*
Y136000D03*
Y143874D03*
Y151748D03*
Y159622D03*
Y167496D03*
Y175370D03*
Y191119D03*
Y183244D03*
Y198993D03*
Y206867D03*
Y214741D03*
Y222615D03*
Y230489D03*
Y238363D03*
Y254111D03*
Y246237D03*
Y261985D03*
Y269859D03*
X166945Y294969D03*
X171631Y346455D03*
X165100Y368300D03*
X165031Y376630D03*
Y384504D03*
Y392378D03*
Y400252D03*
Y408126D03*
Y416000D03*
Y431748D03*
Y423874D03*
Y439622D03*
Y447496D03*
Y455370D03*
Y463244D03*
Y471119D03*
Y478993D03*
Y494741D03*
Y486867D03*
Y502615D03*
Y510489D03*
Y518363D03*
Y526237D03*
Y534111D03*
Y541985D03*
Y549859D03*
X166945Y574969D03*
X179376Y65031D03*
X181200Y75100D03*
X177000Y82100D03*
X174969Y90127D03*
Y98001D03*
Y105875D03*
Y113749D03*
Y121623D03*
Y129497D03*
Y137371D03*
Y145245D03*
Y153119D03*
Y160993D03*
Y168867D03*
X179800Y173500D03*
X174969Y188789D03*
Y196663D03*
Y204537D03*
Y212411D03*
Y220285D03*
Y228159D03*
Y236033D03*
Y243907D03*
Y251781D03*
Y259655D03*
Y267529D03*
X176900Y276900D03*
X178691Y285031D03*
X176018Y294969D03*
X179376Y345031D03*
X176600Y360300D03*
X174969Y370127D03*
Y378001D03*
Y385875D03*
Y393749D03*
Y401623D03*
Y409497D03*
Y417371D03*
Y425245D03*
Y433119D03*
Y440993D03*
Y448867D03*
X181000Y453400D03*
X181200Y466000D03*
X174969Y468789D03*
Y476663D03*
Y484537D03*
Y492411D03*
Y500285D03*
Y508159D03*
Y516033D03*
Y523907D03*
Y531781D03*
Y539655D03*
Y547529D03*
X175800Y553600D03*
X178691Y565031D03*
X177200Y559000D03*
X176018Y574969D03*
X187250Y65031D03*
X189157Y74969D03*
X187286Y175031D03*
X191342Y184969D03*
X182900Y187000D03*
X186565Y285031D03*
X191766Y294969D03*
X183892D03*
X187250Y345031D03*
X191580Y354969D03*
X183706D03*
X190126Y455031D03*
X188835Y464969D03*
X186565Y565031D03*
X191766Y574969D03*
X183892D03*
X195124Y65031D03*
X197031Y74969D03*
X195160Y175031D03*
X199216Y184969D03*
X194439Y285031D03*
X199640Y294969D03*
X195124Y345031D03*
X199454Y354969D03*
X198000Y455031D03*
X196709Y464969D03*
X194439Y565031D03*
X199640Y574969D03*
X202998Y65031D03*
X204905Y74969D03*
X203034Y175031D03*
X207090Y184969D03*
X202313Y285031D03*
X207514Y294969D03*
X202998Y345031D03*
X207328Y354969D03*
X205874Y455031D03*
X204583Y464969D03*
X202313Y565031D03*
X207514Y574969D03*
X210872Y65031D03*
X212779Y74969D03*
X210908Y175031D03*
X214964Y184969D03*
X210187Y285031D03*
X218061D03*
X215388Y294969D03*
X210872Y345031D03*
X215202Y354969D03*
X213748Y455031D03*
X212457Y464969D03*
X210187Y565031D03*
X218061D03*
X215388Y574969D03*
X218746Y65031D03*
X226620D03*
X220653Y74969D03*
X218782Y175031D03*
X226656D03*
X222838Y184969D03*
X225935Y285031D03*
X223262Y294969D03*
X218746Y345031D03*
X226620D03*
X223076Y354969D03*
X221622Y455031D03*
X220331Y464969D03*
X225935Y565031D03*
X223262Y574969D03*
X232300Y65100D03*
X228527Y74969D03*
X236000Y76700D03*
X234530Y175031D03*
X230712Y184969D03*
X232600Y284900D03*
X231136Y294969D03*
X233200Y343900D03*
X230950Y354969D03*
X229496Y455031D03*
X236079Y464969D03*
X228205D03*
X233000Y564300D03*
X231136Y574969D03*
X240000Y62900D03*
X244000Y77100D03*
X242404Y175031D03*
X238586Y184969D03*
X241400Y282700D03*
X238700Y297500D03*
X240400Y342900D03*
X238300Y357500D03*
X237370Y455031D03*
X245244D03*
X243953Y464969D03*
X239300Y562700D03*
X238819Y576312D03*
X247700Y65100D03*
X248100Y72000D03*
X250278Y175031D03*
X246460Y184969D03*
X248000Y286600D03*
X247400Y295300D03*
X247200Y347000D03*
X246500Y356200D03*
X253118Y455031D03*
X251827Y464969D03*
X245700Y563600D03*
X248000Y570000D03*
X245900Y576100D03*
X258152Y175031D03*
X262208Y184969D03*
X254334D03*
X260992Y455031D03*
X259701Y464969D03*
X266026Y175031D03*
X270082Y184969D03*
X268866Y455031D03*
X267575Y464969D03*
X273900Y175031D03*
X277956Y184969D03*
X276740Y455031D03*
X275449Y464969D03*
X281774Y175031D03*
X289648D03*
X285830Y184969D03*
X284614Y455031D03*
X283323Y464969D03*
X297522Y175031D03*
X293704Y184969D03*
X292488Y455031D03*
X291197Y464969D03*
X305396Y175031D03*
X301578Y184969D03*
X305031Y195952D03*
Y203826D03*
Y211700D03*
Y227448D03*
Y219574D03*
Y235322D03*
Y243196D03*
Y251070D03*
Y258944D03*
Y266818D03*
Y274692D03*
Y282566D03*
Y298314D03*
Y290440D03*
Y306188D03*
Y314062D03*
X306244Y321842D03*
X305031Y329622D03*
Y337496D03*
Y345370D03*
Y361119D03*
Y353244D03*
Y368993D03*
Y376867D03*
Y384741D03*
Y392615D03*
Y400489D03*
Y408363D03*
Y416237D03*
Y431985D03*
Y424111D03*
Y439859D03*
X302800Y447900D03*
X300362Y455031D03*
X306945Y464969D03*
X299071D03*
X313270Y175031D03*
X314969Y196181D03*
Y204055D03*
Y211929D03*
Y219803D03*
Y227677D03*
Y235551D03*
Y243425D03*
Y251299D03*
Y259173D03*
Y267047D03*
Y274921D03*
Y282795D03*
Y290669D03*
Y298543D03*
Y306417D03*
X315246Y327528D03*
X314969Y335397D03*
Y343271D03*
Y351145D03*
Y359019D03*
Y366893D03*
Y374767D03*
Y382641D03*
Y390515D03*
Y398389D03*
Y406263D03*
Y414137D03*
Y422011D03*
Y429885D03*
Y437759D03*
X316500Y446300D03*
X321144Y175031D03*
X318200Y188300D03*
X324504Y184969D03*
X317500Y312500D03*
X324700Y313800D03*
X325333Y324969D03*
X320283Y455031D03*
X324659Y464969D03*
X316785D03*
X329019Y175031D03*
X332378Y184969D03*
X331700Y313200D03*
X333207Y324969D03*
X328157Y455031D03*
X332533Y464969D03*
X336893Y175031D03*
X340252Y184969D03*
X337600Y313000D03*
X338819Y326312D03*
X336031Y455031D03*
X340407Y464969D03*
X344767Y175031D03*
X348126Y184969D03*
X343700Y312600D03*
X348200Y322300D03*
X347900Y316900D03*
X345300Y326600D03*
X343906Y455031D03*
X351780D03*
X348281Y464969D03*
X352641Y175031D03*
X360515D03*
X356000Y184969D03*
X359654Y455031D03*
X356156Y464969D03*
X368389Y175031D03*
X363874Y184969D03*
X367528Y455031D03*
X364030Y464969D03*
X376263Y175031D03*
X371748Y184969D03*
X375402Y455031D03*
X371904Y464969D03*
X384900Y63200D03*
X383400Y75700D03*
X382100Y69100D03*
X384137Y175031D03*
X387496Y184969D03*
X379622D03*
X385400Y282600D03*
X385300Y296700D03*
X382300Y290000D03*
X383307Y343688D03*
X381400Y350700D03*
X383900Y356600D03*
X383276Y455031D03*
X387652Y464969D03*
X379778D03*
X385400Y563100D03*
X380800Y573800D03*
Y567400D03*
X386100Y577400D03*
X392500Y63000D03*
X396800Y75900D03*
X390300Y76900D03*
X392011Y175031D03*
X395370Y184969D03*
X393500Y282800D03*
X394000Y296700D03*
X391181Y343688D03*
X390400Y357500D03*
X391150Y455031D03*
X395526Y464969D03*
X393600Y563700D03*
X394300Y576200D03*
X400042Y65031D03*
X404334Y74969D03*
X399885Y175031D03*
X403244Y184969D03*
X401547Y285031D03*
X401807Y294969D03*
X399788Y345031D03*
X405228Y354969D03*
X397354D03*
X399024Y455031D03*
X403400Y464969D03*
X401468Y565031D03*
X401827Y574969D03*
X407916Y65031D03*
X412208Y74969D03*
X407759Y175031D03*
X411118Y184969D03*
X409421Y285031D03*
X409681Y294969D03*
X407662Y345031D03*
X413102Y354969D03*
X406898Y455031D03*
X414772D03*
X411274Y464969D03*
X409342Y565031D03*
X409701Y574969D03*
X415790Y65031D03*
X423664D03*
X420082Y74969D03*
X415633Y175031D03*
X423507D03*
X418992Y184969D03*
X417295Y285031D03*
X417555Y294969D03*
X415536Y345031D03*
X423410D03*
X420976Y354969D03*
X422646Y455031D03*
X419148Y464969D03*
X417216Y565031D03*
X417575Y574969D03*
X431538Y65031D03*
X427956Y74969D03*
X431381Y175031D03*
X426866Y184969D03*
X425169Y285031D03*
X425429Y294969D03*
X431284Y345031D03*
X428850Y354969D03*
X430520Y455031D03*
X427022Y464969D03*
X425090Y565031D03*
X425449Y574969D03*
X439412Y65031D03*
X435830Y74969D03*
X439255Y175031D03*
X434740Y184969D03*
X433043Y285031D03*
X440917D03*
X441177Y294969D03*
X433303D03*
X439158Y345031D03*
X436724Y354969D03*
X438394Y455031D03*
X434896Y464969D03*
X432964Y565031D03*
X440838D03*
X441197Y574969D03*
X433323D03*
X447286Y65031D03*
X443704Y74969D03*
X447700Y173400D03*
X449600Y186800D03*
X442614Y184969D03*
X448791Y285031D03*
X449051Y294969D03*
X447032Y345031D03*
X444598Y354969D03*
X447100Y453000D03*
X442770Y464969D03*
X449700Y467100D03*
X448712Y565031D03*
X449071Y574969D03*
X455160Y65031D03*
X451578Y74969D03*
X452900Y84100D03*
X455031Y92494D03*
Y100369D03*
Y108243D03*
Y116117D03*
Y123991D03*
Y131865D03*
Y139739D03*
Y155487D03*
Y147613D03*
Y163361D03*
Y171235D03*
Y191156D03*
Y199030D03*
Y206904D03*
Y214778D03*
Y222652D03*
Y230526D03*
Y238400D03*
Y254148D03*
Y246274D03*
Y262022D03*
Y269896D03*
X452900Y277000D03*
X456925Y294969D03*
X454906Y345031D03*
X452472Y354969D03*
X453200Y363700D03*
X455031Y372457D03*
Y380331D03*
Y396079D03*
Y388205D03*
Y403953D03*
Y411827D03*
Y419701D03*
Y427575D03*
Y435449D03*
Y443323D03*
Y451197D03*
Y471119D03*
Y478993D03*
Y494741D03*
Y486867D03*
Y502615D03*
Y510489D03*
Y518363D03*
Y526237D03*
Y534111D03*
Y541985D03*
X453100Y557400D03*
X455031Y549859D03*
X456945Y574969D03*
X463033Y65052D03*
X464969Y86969D03*
Y94843D03*
Y102717D03*
Y110591D03*
Y118465D03*
Y126339D03*
Y134213D03*
Y142087D03*
Y149961D03*
Y157835D03*
Y165709D03*
Y173583D03*
X463160Y181246D03*
X464969Y188910D03*
Y196784D03*
Y204658D03*
Y212532D03*
Y220406D03*
Y228280D03*
Y236154D03*
Y244028D03*
Y251902D03*
Y259776D03*
Y267650D03*
X467200Y275700D03*
X466026Y294969D03*
X462776Y345280D03*
X466900Y359500D03*
X464969Y366983D03*
Y374857D03*
Y382731D03*
Y390605D03*
Y398479D03*
Y406353D03*
Y414227D03*
Y422101D03*
Y429975D03*
Y437849D03*
Y445723D03*
Y453597D03*
X463179Y461265D03*
X464969Y468933D03*
Y476807D03*
Y484681D03*
Y492555D03*
Y500429D03*
Y508303D03*
Y516177D03*
Y524051D03*
Y531925D03*
Y539799D03*
Y547673D03*
X467200Y557000D03*
X466037Y574969D03*
X470907Y65031D03*
X468900Y76800D03*
X468667Y285031D03*
X476541D03*
X473900Y294969D03*
X470646Y345031D03*
X472302Y354969D03*
X468634Y565031D03*
X476508D03*
X473911Y574969D03*
X478781Y65031D03*
X479267Y74969D03*
X484415Y285031D03*
X481774Y294969D03*
X478520Y345031D03*
X480176Y354969D03*
X484382Y565031D03*
X481785Y574969D03*
X486656Y65031D03*
X494530D03*
X495015Y74969D03*
X487141D03*
X492289Y285031D03*
X489648Y294969D03*
X486394Y345031D03*
X494268D03*
X488050Y354969D03*
X492256Y565031D03*
X489659Y574969D03*
X502404Y65031D03*
X502889Y74969D03*
X500163Y285031D03*
X497522Y294969D03*
X502142Y345031D03*
X503798Y354969D03*
X495924D03*
X500130Y565031D03*
X497533Y574969D03*
X510278Y65031D03*
X510763Y74969D03*
X508037Y285031D03*
X505396Y294969D03*
X510016Y345031D03*
X511672Y354969D03*
X508004Y565031D03*
X505407Y574969D03*
X518152Y65031D03*
X518637Y74969D03*
X515911Y285031D03*
X521144Y294969D03*
X513270D03*
X517890Y345031D03*
X519546Y354969D03*
X515878Y565031D03*
X521155Y574969D03*
X513281D03*
X526920Y63701D03*
X528819Y76312D03*
X522400Y284700D03*
X528900Y283000D03*
X528819Y296312D03*
X525400Y343100D03*
X526600Y357300D03*
X523700Y564100D03*
X528819Y576312D03*
X535200Y63200D03*
X537700Y69700D03*
X535900Y76100D03*
X534794Y283701D03*
X537900Y289600D03*
X536100Y296000D03*
X532900Y343000D03*
X538600Y347300D03*
X534200Y357300D03*
X538600Y353700D03*
X537700Y566600D03*
X531300Y562900D03*
X537000Y574900D03*
G54D12*
X100000Y66850D03*
Y286850D03*
Y346850D03*
Y566850D03*
X240200Y66850D03*
X240000Y286850D03*
Y346850D03*
Y566850D03*
X340000Y316850D03*
X390000Y66850D03*
Y286850D03*
Y346850D03*
Y566850D03*
X530000Y66850D03*
Y286850D03*
Y346850D03*
Y566850D03*
G54D13*
X96260Y70000D03*
Y290000D03*
Y350000D03*
Y570000D03*
X103740Y70000D03*
Y290000D03*
Y350000D03*
Y570000D03*
X236260Y290000D03*
Y350000D03*
Y570000D03*
X236460Y70000D03*
X243940D03*
X243740Y290000D03*
Y350000D03*
Y570000D03*
X336260Y320000D03*
X343740D03*
X386260Y70000D03*
Y290000D03*
Y350000D03*
Y570000D03*
X393740Y70000D03*
Y290000D03*
Y350000D03*
Y570000D03*
X526260Y70000D03*
Y290000D03*
Y350000D03*
Y570000D03*
X533740Y70000D03*
Y290000D03*
Y350000D03*
Y570000D03*
G54D14*
X100000Y73150D03*
Y293150D03*
Y353150D03*
Y573150D03*
X240200Y73150D03*
X240000Y293150D03*
Y353150D03*
Y573150D03*
X340000Y323150D03*
X390000Y73150D03*
Y293150D03*
Y353150D03*
Y573150D03*
X530000Y73150D03*
Y293150D03*
Y353150D03*
Y573150D03*
G54D15*
X106226Y70000D03*
X104724D03*
X103741D03*
X106224D03*
X104726D03*
X106226Y290000D03*
X104724D03*
X103741D03*
X106224D03*
X104726D03*
X106226Y350000D03*
X104724D03*
X103741D03*
X106224D03*
X104726D03*
X104724Y570000D03*
X103741D03*
X106226D03*
X106224D03*
X104726D03*
X165510Y70000D03*
X172559Y71931D03*
X167441D03*
X165512Y70000D03*
X167441Y71929D03*
X172559Y71929D03*
Y75763D03*
Y77265D03*
Y78070D03*
X167441Y75763D03*
Y77265D03*
Y78070D03*
X170000Y82735D03*
Y81930D03*
X172559Y75765D03*
Y77263D03*
X167441Y75765D03*
Y77263D03*
X170000Y82737D03*
Y84237D03*
Y84235D03*
Y175510D03*
X171931Y177441D03*
X171929D03*
X170000Y175512D03*
X171931Y182559D03*
X170000Y184490D03*
Y184488D03*
X171929Y182559D03*
X170000Y275763D03*
Y277265D03*
Y278070D03*
Y275765D03*
Y277263D03*
X167441Y288069D03*
Y284237D03*
Y282735D03*
Y281930D03*
X172559Y288069D03*
Y284237D03*
Y282735D03*
Y281930D03*
X167441Y284235D03*
Y282737D03*
X172559Y284235D03*
Y282737D03*
Y288071D03*
X167441Y288071D03*
X165510Y290000D03*
X165512D03*
X165510Y350000D03*
X165512D03*
X172559Y355763D03*
Y351931D03*
Y357265D03*
Y358070D03*
X167441Y351931D03*
Y355763D03*
Y357265D03*
Y358070D03*
X172559Y355765D03*
Y357263D03*
X167441Y355765D03*
Y357263D03*
X172559Y351929D03*
X167441Y351929D03*
X170000Y364237D03*
Y362735D03*
Y361930D03*
Y364235D03*
Y362737D03*
Y455510D03*
X171931Y457441D03*
X171929D03*
X170000Y455512D03*
X171931Y462559D03*
X170000Y464490D03*
Y464488D03*
X171929Y462559D03*
X170000Y555763D03*
Y555765D03*
Y557265D03*
Y558070D03*
X167441Y564237D03*
Y562735D03*
Y561930D03*
X172559Y564237D03*
Y562735D03*
Y561930D03*
X170000Y557263D03*
X167441Y564235D03*
Y562737D03*
X172559Y564235D03*
Y562737D03*
X167441Y568069D03*
X172559D03*
X165510Y570000D03*
X172559Y568071D03*
X167441Y568071D03*
X165512Y570000D03*
X174490Y70000D03*
X174488D03*
X175763Y177441D03*
X177265D03*
X178070D03*
X175765D03*
X177263D03*
X175763Y182559D03*
X177265D03*
X178070D03*
X175765D03*
X177263D03*
X174491Y290000D03*
X174488D03*
X174491Y350000D03*
X174488D03*
X175763Y457441D03*
X177265D03*
X178070D03*
X175765D03*
X177263D03*
X175763Y462559D03*
X177265D03*
X178070D03*
X175765D03*
X177263D03*
X174491Y570000D03*
X174488D03*
X184237Y180000D03*
X182735D03*
X181930D03*
X184235D03*
X182737D03*
X184237Y460000D03*
X182735D03*
X181930D03*
X184235D03*
X182737D03*
X234111Y70000D03*
X234114D03*
X233775Y290000D03*
X235277D03*
X233777D03*
X235275D03*
X233775Y350000D03*
X235277D03*
X233777D03*
X235275D03*
X233775Y570000D03*
X235277D03*
X233777D03*
X235275D03*
X235614Y70000D03*
X236596D03*
X235612D03*
X236259Y290000D03*
Y350000D03*
Y570000D03*
X305510Y180000D03*
X305512D03*
X305510Y460000D03*
X305512D03*
X314490Y180000D03*
X314488D03*
X312559Y185763D03*
Y181931D03*
Y187265D03*
Y188070D03*
X307441Y181931D03*
Y185763D03*
Y187265D03*
Y188070D03*
X312559Y185765D03*
Y187263D03*
X307441Y185765D03*
Y187263D03*
Y181929D03*
X312559Y181929D03*
X310000Y194237D03*
Y192735D03*
Y191930D03*
Y194235D03*
Y192737D03*
Y315510D03*
Y315512D03*
X311931Y317441D03*
Y322559D03*
X310000Y324490D03*
X311929Y317441D03*
X310000Y324488D03*
X311929Y322559D03*
X310000Y445763D03*
Y447265D03*
Y448070D03*
Y445765D03*
Y447263D03*
X307441Y458069D03*
Y454237D03*
Y452735D03*
Y451930D03*
X312559Y458069D03*
Y454237D03*
Y452735D03*
Y451930D03*
X307441Y454235D03*
Y452737D03*
X312559Y454235D03*
Y452737D03*
X307441Y458071D03*
X312559Y458071D03*
X314490Y460000D03*
X314488D03*
X324237Y320000D03*
X322735D03*
X321930D03*
X315763Y317441D03*
X317265D03*
X318070D03*
X315763Y322559D03*
X317265D03*
X318070D03*
X324235Y320000D03*
X322737D03*
X315765Y317441D03*
X317263D03*
X315765Y322559D03*
X317263D03*
X329014Y320000D03*
X329016D03*
X333855D03*
X335358D03*
X336340D03*
X333857D03*
X335355D03*
X394723Y70000D03*
X393741D03*
X394726D03*
X394723Y290000D03*
X393741D03*
X394725D03*
X394723Y350000D03*
X393741D03*
X394726D03*
X394697Y570000D03*
X393715D03*
X394700D03*
X396226Y70000D03*
X396224D03*
X396225Y290000D03*
X396223D03*
X396226Y350000D03*
X396224D03*
X396200Y570000D03*
X396198D03*
X445763Y180000D03*
X447265D03*
X448070D03*
X445765D03*
X447263D03*
X445763Y460000D03*
X447265D03*
X448070D03*
X445765D03*
X447263D03*
X455510Y70000D03*
X457441Y71931D03*
X455512Y70000D03*
X457441Y71929D03*
Y75763D03*
Y77265D03*
Y78070D03*
Y75765D03*
Y77263D03*
X458069Y177441D03*
X454237D03*
X452735D03*
X451930D03*
X454235D03*
X452737D03*
X458071D03*
X454237Y182559D03*
X458069D03*
X452735D03*
X451930D03*
X454235D03*
X452737D03*
X458071D03*
X457422Y284184D03*
Y288069D03*
Y282682D03*
Y281877D03*
Y284182D03*
Y282684D03*
Y288071D03*
X455490Y290000D03*
X455493D03*
X455510Y350000D03*
X455512D03*
X457441Y351931D03*
Y355763D03*
Y357265D03*
Y358070D03*
Y355765D03*
Y357263D03*
Y351929D03*
X458069Y457441D03*
X454237D03*
X452735D03*
X451930D03*
X454235D03*
X452737D03*
X458071D03*
X454237Y462559D03*
X458069D03*
X452735D03*
X451930D03*
X454235D03*
X452737D03*
X458071D03*
X457441Y564237D03*
Y562735D03*
Y561930D03*
Y564235D03*
Y562737D03*
X455510Y570000D03*
X457441Y568069D03*
X455512Y570000D03*
X457441Y568071D03*
X462559Y71931D03*
X464490Y70000D03*
X462559Y71929D03*
X464488Y70000D03*
X460000Y82735D03*
Y81930D03*
X462559Y75763D03*
Y77265D03*
Y78070D03*
X460000Y82737D03*
X462559Y75765D03*
Y77263D03*
X460000Y84237D03*
Y84235D03*
Y175510D03*
Y175512D03*
Y184490D03*
Y184488D03*
Y275801D03*
Y277303D03*
Y278108D03*
Y275803D03*
Y277301D03*
X462559Y288069D03*
Y284237D03*
Y282735D03*
Y281930D03*
Y284235D03*
Y282737D03*
Y288071D03*
X464491Y290000D03*
X464488D03*
X464460Y350000D03*
X464457D03*
X462528Y355820D03*
Y351931D03*
Y357322D03*
Y358127D03*
Y355822D03*
Y357320D03*
Y351929D03*
X460000Y364237D03*
Y362735D03*
Y361930D03*
Y364235D03*
Y362737D03*
Y455510D03*
Y455512D03*
Y464490D03*
Y464488D03*
Y555763D03*
Y555765D03*
Y557265D03*
Y558070D03*
X462559Y564237D03*
Y562735D03*
Y561930D03*
X460000Y557263D03*
X462559Y564235D03*
Y562737D03*
Y568069D03*
X464491Y570000D03*
X464488D03*
X462559Y568071D03*
X523836Y70000D03*
X525337D03*
X526320D03*
X523837D03*
X525335D03*
X523775Y290000D03*
X525276D03*
X526259D03*
X523777D03*
X525275D03*
X523775Y350000D03*
X525276D03*
X526259D03*
X523777D03*
X525275D03*
X523775Y570000D03*
X525276D03*
X526259D03*
X523777D03*
X525275D03*
G54D16*
X167441Y81929D03*
X170000D03*
X172559D03*
Y78071D03*
X170000D03*
X167441D03*
X172559Y278071D03*
X170000D03*
X167441D03*
Y281929D03*
X170000D03*
X172559D03*
Y358071D03*
X170000D03*
X167441D03*
Y361929D03*
X170000D03*
X172559D03*
Y558071D03*
X170000D03*
X167441D03*
Y561929D03*
X170000D03*
X172559D03*
X307441Y188071D03*
Y191929D03*
Y448071D03*
Y451929D03*
X312559Y188071D03*
X310000D03*
Y191929D03*
X312559D03*
Y448071D03*
X310000D03*
Y451929D03*
X312559D03*
X457441Y81929D03*
Y78071D03*
Y278071D03*
Y281929D03*
Y358071D03*
Y361929D03*
Y558071D03*
Y561929D03*
X460000Y81929D03*
X462559D03*
Y78071D03*
X460000D03*
X462559Y278071D03*
X460000D03*
Y281929D03*
X462559D03*
Y358071D03*
X460000D03*
Y361929D03*
X462559D03*
Y558071D03*
X460000D03*
Y561929D03*
X462559D03*
G54D17*
X181929Y182559D03*
Y180000D03*
Y177441D03*
X178071D03*
Y180000D03*
Y182559D03*
X181929Y457441D03*
X178071D03*
X181929Y462559D03*
Y460000D03*
X178071D03*
Y462559D03*
X321929Y322559D03*
Y320000D03*
Y317441D03*
X318071D03*
Y320000D03*
Y322559D03*
X448071Y177441D03*
Y180000D03*
Y182559D03*
Y457441D03*
Y460000D03*
Y462559D03*
X451929Y182559D03*
Y180000D03*
Y177441D03*
Y457441D03*
Y462559D03*
Y460000D03*
M02*
