G04 ================== begin FILE IDENTIFICATION RECORD ==================*
G04 Layout Name:  C:/Users/Raymond/Desktop/1-16_RF_PWR_DIV/1-16_Power_Splitter.brd*
G04 Film Name:    BOTTOM_L*
G04 File Format:  Gerber RS274X*
G04 File Origin:  Cadence Allegro 17.2-P019*
G04 Origin Date:  Tue Apr 30 12:10:11 2019*
G04 *
G04 Layer:  VIA CLASS/BOTTOM*
G04 Layer:  PIN/BOTTOM*
G04 Layer:  ETCH/BOTTOM*
G04 Layer:  BOARD GEOMETRY/DESIGN_OUTLINE*
G04 *
G04 Offset:    (0.000 0.000)*
G04 Mirror:    No*
G04 Mode:      Positive*
G04 Rotation:  0*
G04 FullContactRelief:  No*
G04 UndefLineWidth:     0.000*
G04 ================== end FILE IDENTIFICATION RECORD ====================*
%FSLAX25Y25*MOIN*%
%IR0*IPPOS*OFA0.00000B0.00000*MIA0B0*SFA1.00000B1.00000*%
%ADD10C,.025591*%
%ADD11C,.019646*%
G75*
%LPD*%
G75*
G36*
G01X0Y0D02*
Y630000D01*
X630000D01*
Y0D01*
X0D01*
G37*
G54D10*
X9387Y7985D03*
X8515Y23984D03*
Y39732D03*
Y55479D03*
Y71228D03*
Y86976D03*
Y102724D03*
Y118472D03*
Y134220D03*
Y149968D03*
Y165716D03*
Y181464D03*
Y197212D03*
Y212960D03*
Y228708D03*
Y244456D03*
Y260204D03*
Y275952D03*
Y291700D03*
Y307448D03*
Y323196D03*
Y338944D03*
Y354692D03*
Y370440D03*
Y386188D03*
Y401936D03*
Y417684D03*
Y433432D03*
Y449180D03*
Y464928D03*
Y480676D03*
Y496424D03*
Y512172D03*
Y527920D03*
Y543669D03*
Y559416D03*
Y575165D03*
Y590913D03*
Y606661D03*
X9087Y622285D03*
X25135Y7985D03*
X24835Y622285D03*
X40884Y7985D03*
X40584Y622285D03*
X56632Y7985D03*
X56332Y622285D03*
X72380Y7985D03*
X72080Y622285D03*
X88128Y7985D03*
X87828Y622285D03*
X103876Y7985D03*
X103576Y622285D03*
X119624Y7985D03*
X119324Y622285D03*
X135372Y7985D03*
X135072Y622285D03*
X151120Y7985D03*
X150820Y622285D03*
X166868Y7985D03*
X166568Y622285D03*
X182616Y7985D03*
X182316Y622285D03*
X198364Y7985D03*
X198064Y622285D03*
X214112Y7985D03*
X213812Y622285D03*
X229860Y7985D03*
X229560Y622285D03*
X245608Y7985D03*
X245308Y622285D03*
X261356Y7985D03*
X261056Y622285D03*
X277104Y7985D03*
X276804Y622285D03*
X292852Y7985D03*
X292552Y622285D03*
X308600Y7985D03*
X308300Y622285D03*
X324348Y7985D03*
X324048Y622285D03*
X340096Y7985D03*
X339796Y622285D03*
X355844Y7985D03*
X355544Y622285D03*
X371592Y7985D03*
X371292Y622285D03*
X387340Y7985D03*
X387040Y622285D03*
X403088Y7985D03*
X402788Y622285D03*
X418836Y7985D03*
X418536Y622285D03*
X434584Y7985D03*
X434284Y622285D03*
X450332Y7985D03*
X450032Y622285D03*
X466080Y7985D03*
X465780Y622285D03*
X481828Y7985D03*
X481528Y622285D03*
X497576Y7985D03*
X497276Y622285D03*
X513324Y7985D03*
X513024Y622285D03*
X529072Y7985D03*
X528772Y622285D03*
X544820Y7985D03*
X544520Y622285D03*
X560568Y7985D03*
X560268Y622285D03*
X576316Y7985D03*
X576016Y622285D03*
X592065Y7985D03*
X591765Y622285D03*
X607813Y7985D03*
X607513Y622285D03*
X623561Y7985D03*
X623415Y23884D03*
Y39632D03*
Y55379D03*
Y71128D03*
Y86876D03*
Y102624D03*
Y118372D03*
Y134120D03*
Y149868D03*
Y165616D03*
Y181364D03*
Y197112D03*
Y212860D03*
Y228608D03*
Y244356D03*
Y260104D03*
Y275852D03*
Y291600D03*
Y307348D03*
Y323096D03*
Y338844D03*
Y354592D03*
Y370340D03*
Y386088D03*
Y401836D03*
Y417584D03*
Y433332D03*
Y449080D03*
Y464828D03*
Y480576D03*
Y496324D03*
Y512072D03*
Y527820D03*
Y543568D03*
Y559316D03*
Y575065D03*
Y590813D03*
Y606561D03*
X623261Y622285D03*
G54D11*
X88050Y65050D03*
X92700Y62800D03*
Y58300D03*
X88050Y60550D03*
X92700Y71800D03*
Y67300D03*
X88050Y69550D03*
X92700Y278500D03*
X88050Y280750D03*
Y285250D03*
X92700Y287500D03*
X88050Y289750D03*
X92700Y283000D03*
Y292000D03*
X88050Y340450D03*
X92700Y342700D03*
Y338200D03*
X88050Y349450D03*
X92700Y351700D03*
X88050Y344950D03*
X92700Y347200D03*
Y562900D03*
Y558400D03*
X88050Y565150D03*
Y560650D03*
X92700Y571900D03*
Y567400D03*
X88050Y569650D03*
X97822Y58286D03*
Y71786D03*
Y278486D03*
Y291986D03*
Y338186D03*
Y351686D03*
Y558386D03*
Y571886D03*
X108596Y59000D03*
X102922Y58286D03*
X108186Y71000D03*
X102922Y71786D03*
X107826Y278974D03*
X102922Y278486D03*
X108186Y291000D03*
X102922Y291986D03*
X110096Y339000D03*
X102922Y338186D03*
X108186Y351000D03*
X102922Y351686D03*
X108596Y559000D03*
X102922Y558386D03*
X108186Y571000D03*
X102922Y571886D03*
X116470Y59000D03*
X116060Y71000D03*
X113970Y279000D03*
X116060Y291000D03*
X117970Y339000D03*
X116060Y351000D03*
X113970Y559000D03*
X116060Y571000D03*
X124344Y59000D03*
X123934Y71000D03*
X121844Y279000D03*
X123934Y291000D03*
X125844Y339000D03*
X123934Y351000D03*
X121844Y559000D03*
X123934Y571000D03*
X132218Y59000D03*
X131808Y71000D03*
X137592Y279000D03*
X129718D03*
X131808Y291000D03*
X133718Y339000D03*
X131808Y351000D03*
X137592Y559000D03*
X129718D03*
X131808Y571000D03*
X140092Y59000D03*
X139682Y71000D03*
X145466Y279000D03*
X139682Y291000D03*
X141592Y339000D03*
X139682Y351000D03*
X145466Y559000D03*
X139682Y571000D03*
X155840Y59000D03*
X147966D03*
X147556Y71000D03*
X155430D03*
X153340Y279000D03*
X147556Y291000D03*
X155430D03*
X149466Y339000D03*
X147556Y351000D03*
X155430D03*
X153340Y559000D03*
X147556Y571000D03*
X155430D03*
X163714Y59000D03*
X161301Y75114D03*
X162464Y82929D03*
X163626Y89322D03*
X164000Y96563D03*
Y104437D03*
Y112311D03*
Y120185D03*
Y128059D03*
Y135933D03*
Y143807D03*
Y151681D03*
Y159555D03*
Y167429D03*
X164143Y181451D03*
X164000Y189529D03*
Y197403D03*
Y205277D03*
Y213151D03*
Y221025D03*
Y228899D03*
Y236773D03*
Y244647D03*
Y252521D03*
X164078Y260438D03*
X162657Y267607D03*
X161689Y273419D03*
X161214Y279000D03*
X163304Y291000D03*
X157340Y339000D03*
X161495Y350962D03*
X162076Y357550D03*
X162657Y363039D03*
X163884Y368529D03*
X164000Y376576D03*
Y384450D03*
Y392324D03*
Y400198D03*
Y408072D03*
Y415946D03*
Y423820D03*
Y431694D03*
Y439568D03*
Y447442D03*
X164030Y461368D03*
X164000Y469630D03*
Y477504D03*
Y485378D03*
Y493252D03*
Y501126D03*
Y509000D03*
Y516874D03*
Y524748D03*
Y532622D03*
X162996Y546651D03*
X164000Y540496D03*
X162157Y553142D03*
X161214Y559000D03*
X163304Y571000D03*
X170214Y61906D03*
X173398Y59000D03*
X169988Y77212D03*
X166532Y175058D03*
X169988Y272738D03*
X170011Y286874D03*
X165214Y339000D03*
X170020Y342114D03*
X169988Y357225D03*
X166807Y455136D03*
X169988Y552788D03*
X170011Y568874D03*
X181272Y59000D03*
X178933Y73887D03*
X178158Y80668D03*
X176285Y88160D03*
X176000Y96529D03*
Y104403D03*
Y120151D03*
Y112277D03*
Y128025D03*
Y135899D03*
Y143773D03*
Y151647D03*
Y159521D03*
X176995Y165951D03*
X182212Y175012D03*
X179191Y183970D03*
X176000Y189570D03*
Y197444D03*
Y205318D03*
Y213192D03*
Y221066D03*
Y228940D03*
Y244688D03*
Y236814D03*
Y252562D03*
Y260436D03*
X177964Y267348D03*
X178804Y273549D03*
X181735Y279000D03*
X175951Y291000D03*
X174411Y339014D03*
X181735Y339000D03*
X178803Y354643D03*
X176995Y361748D03*
X176000Y368643D03*
Y376517D03*
Y384391D03*
Y392265D03*
Y400139D03*
Y408013D03*
Y423761D03*
Y415887D03*
Y431635D03*
Y439509D03*
X176236Y446352D03*
X182212Y454988D03*
X179306Y463516D03*
X176000Y469570D03*
Y485318D03*
Y477444D03*
Y493192D03*
Y501066D03*
Y508940D03*
Y516814D03*
Y524688D03*
Y532562D03*
X176947Y546877D03*
X176000Y540436D03*
X177915Y553142D03*
X178238Y558954D03*
X175951Y571000D03*
X189146Y59000D03*
X184025Y71000D03*
X190622Y167760D03*
X184228Y167307D03*
X186295Y182808D03*
X189609Y279000D03*
X183825Y291000D03*
X191699D03*
X189609Y339000D03*
X183825Y351000D03*
X191699D03*
X191220Y448096D03*
X183534Y446740D03*
X186376Y462305D03*
X183599Y559148D03*
X189609Y559000D03*
X183825Y571000D03*
X191699D03*
X197020Y59000D03*
X191899Y71000D03*
X199773D03*
X198339Y169000D03*
X193068Y181000D03*
X197483Y279000D03*
X199573Y291000D03*
X197483Y339000D03*
X199573Y351000D03*
X198294Y449000D03*
X193068Y461000D03*
X197483Y559000D03*
X199573Y571000D03*
X204895Y59000D03*
X207647Y71000D03*
X206213Y169000D03*
X200942Y181000D03*
X208816D03*
X205357Y279000D03*
X207447Y291000D03*
X205357Y339000D03*
X207447Y351000D03*
X206168Y449000D03*
X200942Y461000D03*
X208816D03*
X205357Y559000D03*
X207447Y571000D03*
X212768Y59000D03*
X215521Y71000D03*
X214087Y169000D03*
X216690Y181000D03*
X213231Y279000D03*
X215321Y291000D03*
X213231Y339000D03*
X215321Y351000D03*
X214042Y449000D03*
X216690Y461000D03*
X213231Y559000D03*
X215321Y571000D03*
X220643Y59000D03*
X223395Y71000D03*
X221961Y169000D03*
X224564Y181000D03*
X221105Y279000D03*
X223195Y291000D03*
X221105Y339000D03*
X223195Y351000D03*
X221916Y449000D03*
X224564Y461000D03*
X221105Y559000D03*
X223195Y571000D03*
X228516Y59000D03*
X231269Y71000D03*
X229835Y169000D03*
X232438Y181000D03*
X228979Y279000D03*
X231069Y291000D03*
X228979Y339000D03*
X231069Y351000D03*
X229790Y449000D03*
X232438Y461000D03*
X228979Y559000D03*
X231069Y571000D03*
X242378Y58313D03*
X237278D03*
X242378Y71814D03*
X237278D03*
X237709Y169000D03*
X240312Y181000D03*
X242078Y278514D03*
X236978D03*
X242078Y292014D03*
X236978D03*
X242078Y338214D03*
X236978D03*
X242078Y351714D03*
X236978D03*
X237664Y449000D03*
X240312Y461000D03*
X236678Y558114D03*
X241778D03*
X236678Y571614D03*
X241778D03*
X252150Y65050D03*
X247500Y62800D03*
X252150Y60550D03*
X247500Y58300D03*
Y71800D03*
X252150Y69550D03*
X247500Y67300D03*
X253457Y169000D03*
X245583D03*
X248186Y181000D03*
X251850Y280750D03*
X247200Y278500D03*
X251850Y289750D03*
Y285250D03*
X247200Y287500D03*
Y283000D03*
Y292000D03*
X251850Y340450D03*
X247200Y342700D03*
Y338200D03*
X251850Y349450D03*
X247200Y351700D03*
X251850Y344950D03*
X247200Y347200D03*
X253412Y449000D03*
X245538D03*
X248186Y461000D03*
X246900Y562600D03*
X251550Y564850D03*
X246900Y558100D03*
X251550Y560350D03*
X246900Y571600D03*
Y567100D03*
X251550Y569350D03*
X261331Y169000D03*
X256060Y181000D03*
X261286Y449000D03*
X256060Y461000D03*
X269205Y169000D03*
X263934Y181000D03*
X271808D03*
X269160Y449000D03*
X263934Y461000D03*
X271808D03*
X277079Y169000D03*
X279682Y181000D03*
X277034Y449000D03*
X279682Y461000D03*
X284953Y169000D03*
X287556Y181000D03*
X284908Y449000D03*
X287556Y461000D03*
X292827Y169000D03*
X295430Y181000D03*
X292782Y449000D03*
X295430Y461000D03*
X300701Y169000D03*
X301449Y181129D03*
X301836Y187587D03*
X302741Y194304D03*
X304000Y201054D03*
Y208928D03*
Y216802D03*
Y224676D03*
Y232550D03*
Y240424D03*
Y248298D03*
Y256172D03*
Y264046D03*
Y271920D03*
Y279794D03*
Y287668D03*
Y295542D03*
Y303416D03*
X307068Y315270D03*
X304000Y311290D03*
Y324344D03*
Y332218D03*
Y340092D03*
Y347966D03*
Y355840D03*
Y363714D03*
Y371588D03*
Y379462D03*
Y387336D03*
Y395210D03*
Y403084D03*
Y410958D03*
Y418832D03*
X303709Y432103D03*
X304000Y426706D03*
X302289Y437722D03*
X300997Y442694D03*
X300656Y449000D03*
X303304Y461000D03*
X310039Y171247D03*
X316692Y169000D03*
X310012Y187312D03*
X316239Y199729D03*
X316000Y206617D03*
Y214491D03*
Y222365D03*
Y230239D03*
Y238113D03*
Y253861D03*
Y245987D03*
Y261735D03*
Y269609D03*
Y277483D03*
Y285357D03*
Y293231D03*
Y301105D03*
Y329570D03*
Y337444D03*
Y345318D03*
Y361066D03*
Y353192D03*
Y368940D03*
Y376814D03*
Y384688D03*
Y392562D03*
Y400436D03*
Y408310D03*
Y416184D03*
Y431932D03*
Y424058D03*
X309975Y442800D03*
X309845Y458388D03*
X324566Y169000D03*
X318693Y181000D03*
X317853Y187458D03*
X317143Y194175D03*
X319791Y305615D03*
X322238Y315010D03*
X319311Y323516D03*
X317143Y438561D03*
X317983Y443986D03*
X318693Y449217D03*
X324564Y449000D03*
X318247Y461000D03*
X332440Y169000D03*
X326021Y181000D03*
X333895D03*
X326895Y308005D03*
X332708Y309038D03*
X325732Y322245D03*
X331749Y321000D03*
X332438Y449000D03*
X326121Y461000D03*
X333995D03*
X340314Y169000D03*
X341769Y181000D03*
X342593Y308184D03*
X337493D03*
X342593Y321684D03*
X337493D03*
X340311Y449000D03*
X341869Y461000D03*
X348188Y169000D03*
X349643Y181000D03*
X352365Y310420D03*
Y314920D03*
X347715Y308170D03*
Y312670D03*
X352365Y319420D03*
X347715Y317170D03*
Y321670D03*
X348186Y449000D03*
X349743Y461000D03*
X356062Y169000D03*
X357517Y181000D03*
X356060Y449000D03*
X357617Y461000D03*
X363936Y169000D03*
X365391Y181000D03*
X363934Y449000D03*
X365491Y461000D03*
X378150Y65050D03*
Y60550D03*
Y69550D03*
X371810Y169000D03*
X373265Y181000D03*
X378150Y280750D03*
Y285250D03*
Y289750D03*
Y340750D03*
Y349750D03*
Y345250D03*
X371808Y449000D03*
X373365Y461000D03*
X378150Y565150D03*
Y560650D03*
Y569650D03*
X382800Y62800D03*
Y58300D03*
X387922Y58286D03*
X382800Y71800D03*
X387922Y71786D03*
X382800Y67300D03*
X387558Y169000D03*
X379684D03*
X381139Y181000D03*
X382800Y278500D03*
X387922Y278486D03*
X382800Y287500D03*
Y283000D03*
Y292000D03*
X387922Y291986D03*
X382800Y343000D03*
Y338500D03*
X387922Y338486D03*
X382800Y347500D03*
Y352000D03*
X387922Y351986D03*
X387556Y449000D03*
X379682D03*
X381239Y461000D03*
X382800Y562900D03*
Y558400D03*
X387922Y558386D03*
X382800Y571900D03*
X387922Y571886D03*
X382800Y567400D03*
X393022Y58286D03*
Y71786D03*
X395432Y169000D03*
X389013Y181000D03*
X396887D03*
X393022Y278486D03*
Y291986D03*
Y338486D03*
Y351986D03*
X395430Y449000D03*
X389113Y461000D03*
X396987D03*
X393022Y558386D03*
Y571886D03*
X399096Y59000D03*
X398186Y71000D03*
X403306Y169000D03*
X404761Y181000D03*
X398195Y278845D03*
X403970Y279000D03*
X398186Y291000D03*
X397809Y338876D03*
X403970Y339000D03*
X398186Y351000D03*
X403304Y449000D03*
X404861Y461000D03*
X398131Y558817D03*
X403970Y559000D03*
X398186Y571000D03*
X414844Y59000D03*
X406970D03*
X406060Y71000D03*
X413934D03*
X411180Y169000D03*
X412635Y181000D03*
X411844Y279000D03*
X406060Y291000D03*
X413934D03*
X411844Y339000D03*
X406060Y351000D03*
X413934D03*
X411178Y449000D03*
X412735Y461000D03*
X411844Y559000D03*
X406060Y571000D03*
X413934D03*
X422718Y59000D03*
X421808Y71000D03*
X419054Y169000D03*
X420509Y181000D03*
X419718Y279000D03*
X421808Y291000D03*
X419718Y339000D03*
X421808Y351000D03*
X419052Y449000D03*
X420609Y461000D03*
X419718Y559000D03*
X421808Y571000D03*
X430592Y59000D03*
X429682Y71000D03*
X426928Y169000D03*
X428383Y181000D03*
X427592Y279000D03*
X429682Y291000D03*
X427592Y339000D03*
X429682Y351000D03*
X426926Y449000D03*
X428483Y461000D03*
X427592Y559000D03*
X429682Y571000D03*
X438466Y59000D03*
X437556Y71000D03*
X434802Y169000D03*
X436257Y181000D03*
X435466Y279000D03*
X437556Y291000D03*
X435466Y339000D03*
X437556Y351000D03*
X441338Y447765D03*
X434800Y449000D03*
X435655Y461392D03*
X435466Y559000D03*
X437556Y571000D03*
X446340Y59000D03*
X445430Y71000D03*
X450252Y166016D03*
X443341Y167114D03*
X443406Y182550D03*
X447675Y174975D03*
X443340Y279000D03*
X445430Y291000D03*
X443340Y339000D03*
X445430Y351000D03*
X447474Y447055D03*
X447788Y454988D03*
X442925Y463516D03*
X443340Y559000D03*
X445430Y571000D03*
X454214Y59000D03*
X451091Y74823D03*
X452319Y81863D03*
X453610Y88321D03*
X454000Y96483D03*
Y104357D03*
Y112231D03*
Y120105D03*
Y127979D03*
Y135853D03*
Y143727D03*
Y151601D03*
Y159475D03*
X450639Y183648D03*
X454000Y189459D03*
Y197333D03*
Y205207D03*
Y213081D03*
Y220955D03*
Y228829D03*
Y236703D03*
Y244577D03*
Y252451D03*
Y260325D03*
X452511Y266510D03*
X451219Y272387D03*
X451214Y279000D03*
X453304Y291000D03*
X451214Y339000D03*
X451220Y354764D03*
X452899Y361997D03*
X454062Y369037D03*
X454000Y376576D03*
Y384450D03*
Y392324D03*
Y400198D03*
Y408072D03*
Y415946D03*
Y423820D03*
Y431694D03*
Y439568D03*
X453868Y446796D03*
X450703Y464169D03*
X454000Y469630D03*
Y477504D03*
Y485378D03*
Y493252D03*
Y501126D03*
Y509000D03*
Y516874D03*
Y524748D03*
Y532622D03*
X452188Y548031D03*
X453803Y541444D03*
X451219Y553908D03*
X451214Y559000D03*
X453304Y571000D03*
X460101Y62423D03*
X463861Y59000D03*
X460012Y77325D03*
X466000Y88743D03*
Y96617D03*
Y104491D03*
Y120239D03*
Y112365D03*
Y128113D03*
Y135987D03*
Y143861D03*
Y151735D03*
Y159609D03*
Y167483D03*
X463814Y175123D03*
X466000Y181696D03*
Y189570D03*
Y197444D03*
Y205318D03*
Y213192D03*
Y221066D03*
Y228940D03*
Y244688D03*
Y236814D03*
Y252562D03*
Y260436D03*
X467559Y266445D03*
X460012Y272700D03*
X459809Y288145D03*
X465951Y291000D03*
X463861Y339000D03*
X460011D03*
X460012Y357225D03*
X467043Y362385D03*
X466000Y368643D03*
Y376517D03*
Y384391D03*
Y392265D03*
Y400139D03*
Y408013D03*
Y423761D03*
Y415887D03*
Y431635D03*
Y439509D03*
Y447383D03*
X463814Y454998D03*
X466000Y461696D03*
Y469570D03*
Y485318D03*
Y477444D03*
Y493192D03*
Y501066D03*
Y508940D03*
Y516814D03*
Y524688D03*
Y532562D03*
X467559Y547967D03*
X466000Y540436D03*
X460012Y552788D03*
X459938Y568504D03*
X465951Y571000D03*
X471735Y59000D03*
X469563Y75405D03*
X473825Y71000D03*
X468516Y82175D03*
X468851Y272387D03*
X471735Y279000D03*
X473825Y291000D03*
X471735Y339000D03*
X473825Y351000D03*
X468593Y354505D03*
X468722Y553908D03*
X471735Y559000D03*
X473825Y571000D03*
X479609Y59000D03*
X481699Y71000D03*
X479609Y279000D03*
X481699Y291000D03*
X479609Y339000D03*
X481699Y351000D03*
X479609Y559000D03*
X481699Y571000D03*
X487483Y59000D03*
X489573Y71000D03*
X487483Y279000D03*
X489573Y291000D03*
X487483Y339000D03*
X489573Y351000D03*
X487483Y559000D03*
X489573Y571000D03*
X503231Y59000D03*
X495357D03*
X497447Y71000D03*
X503231Y279000D03*
X495357D03*
X497447Y291000D03*
X503231Y339000D03*
X495357D03*
X497447Y351000D03*
X503231Y559000D03*
X495357D03*
X497447Y571000D03*
X511105Y59000D03*
X505321Y71000D03*
X511105Y279000D03*
X505321Y291000D03*
X511105Y339000D03*
X505321Y351000D03*
X511105Y559000D03*
X505321Y571000D03*
X518979Y59000D03*
X513195Y71000D03*
X521069D03*
X518979Y279000D03*
X513195Y291000D03*
X521069D03*
X518979Y339000D03*
X513195Y351000D03*
X521069D03*
X518979Y559000D03*
X513195Y571000D03*
X521069D03*
X526778Y58313D03*
Y71814D03*
X527378Y278214D03*
Y291714D03*
X526778Y338214D03*
Y351714D03*
X527078Y558414D03*
Y571914D03*
X537000Y62800D03*
Y58300D03*
X531878Y58313D03*
X537000Y71800D03*
X531878Y71814D03*
X537000Y67300D03*
X532478Y278214D03*
X537600Y278200D03*
Y287200D03*
Y282700D03*
X532478Y291714D03*
X537600Y291700D03*
X537000Y342700D03*
Y338200D03*
X531878Y338214D03*
X537000Y351700D03*
X531878Y351714D03*
X537000Y347200D03*
X537300Y562900D03*
X532178Y558414D03*
X537300Y558400D03*
X532178Y571914D03*
X537300Y571900D03*
Y567400D03*
X541650Y65050D03*
Y60550D03*
Y69550D03*
X542250Y280450D03*
Y289450D03*
Y284950D03*
X541650Y340450D03*
Y349450D03*
Y344950D03*
X541950Y565150D03*
Y560650D03*
Y569650D03*
M02*
