G04 ================== begin FILE IDENTIFICATION RECORD ==================*
G04 Layout Name:  C:/Users/Raymond/Desktop/1-16_RF_PWR_DIV/1-16_Power_Splitter.brd*
G04 Film Name:    TOP_PASTEMASK*
G04 File Format:  Gerber RS274X*
G04 File Origin:  Cadence Allegro 17.2-P019*
G04 Origin Date:  Tue Apr 30 12:10:21 2019*
G04 *
G04 Layer:  PACKAGE GEOMETRY/PASTEMASK_TOP*
G04 Layer:  BOARD GEOMETRY/DESIGN_OUTLINE*
G04 *
G04 Offset:    (0.000 0.000)*
G04 Mirror:    No*
G04 Mode:      Negative*
G04 Rotation:  0*
G04 FullContactRelief:  No*
G04 UndefLineWidth:     0.000*
G04 ================== end FILE IDENTIFICATION RECORD ====================*
%FSLAX25Y25*MOIN*%
%IR0*IPPOS*OFA0.00000B0.00000*MIA0B0*SFA1.00000B1.00000*%
G75*
%LPD*%
G75*
G36*
G01X-10000Y-10000D02*
X640000D01*
Y640000D01*
X-10000D01*
Y-10000D01*
G37*
%LPC*%
G75*
G36*
G01X95472Y64370D02*
X97047D01*
Y65630D01*
X95472D01*
Y64370D01*
G37*
G36*
G01X97244Y60663D02*
X102760D01*
Y62244D01*
X97244D01*
Y60663D01*
G37*
G36*
G01Y67760D02*
X102760D01*
Y69331D01*
X97244D01*
Y67760D01*
G37*
G36*
G01X95472Y284370D02*
X97047D01*
Y285630D01*
X95472D01*
Y284370D01*
G37*
G36*
G01X97244Y280663D02*
X102760D01*
Y282244D01*
X97244D01*
Y280663D01*
G37*
G36*
G01Y287760D02*
X102760D01*
Y289331D01*
X97244D01*
Y287760D01*
G37*
G36*
G01Y340663D02*
X102760D01*
Y342244D01*
X97244D01*
Y340663D01*
G37*
G36*
G01X95472Y344370D02*
X97047D01*
Y345630D01*
X95472D01*
Y344370D01*
G37*
G36*
G01X97244Y347760D02*
X102760D01*
Y349331D01*
X97244D01*
Y347760D01*
G37*
G36*
G01X95472Y564370D02*
X97047D01*
Y565630D01*
X95472D01*
Y564370D01*
G37*
G36*
G01X97244Y560663D02*
X102760D01*
Y562244D01*
X97244D01*
Y560663D01*
G37*
G36*
G01Y567760D02*
X102760D01*
Y569331D01*
X97244D01*
Y567760D01*
G37*
G36*
G01X102953Y64370D02*
X104528D01*
Y65630D01*
X102953D01*
Y64370D01*
G37*
G36*
G01Y284370D02*
X104528D01*
Y285630D01*
X102953D01*
Y284370D01*
G37*
G36*
G01Y344370D02*
X104528D01*
Y345630D01*
X102953D01*
Y344370D01*
G37*
G36*
G01Y564370D02*
X104528D01*
Y565630D01*
X102953D01*
Y564370D01*
G37*
G36*
G01X172008Y72117D02*
Y69283D01*
X173898D01*
Y72117D01*
X172008D01*
G37*
G36*
G01X166102D02*
Y69283D01*
X167992D01*
Y72117D01*
X166102D01*
G37*
G36*
G01X169468Y82953D02*
X170532D01*
Y84331D01*
X169468D01*
Y82953D01*
G37*
G36*
G01X167972D02*
X166909D01*
Y84331D01*
X167972D01*
Y82953D01*
G37*
G36*
G01X173091D02*
X172028D01*
Y84331D01*
X173091D01*
Y82953D01*
G37*
G36*
G01X172028Y79094D02*
X173091D01*
Y80472D01*
X172028D01*
Y79094D01*
G37*
G36*
G01X169468D02*
X170532D01*
Y80472D01*
X169468D01*
Y79094D01*
G37*
G36*
G01X166909D02*
X167972D01*
Y80472D01*
X166909D01*
Y79094D01*
G37*
G36*
G01X170532Y267010D02*
X169468D01*
Y265632D01*
X170532D01*
Y267010D01*
G37*
G36*
G01X172028D02*
X173091D01*
Y265632D01*
X172028D01*
Y267010D01*
G37*
G36*
G01X166909D02*
X167972D01*
Y265632D01*
X166909D01*
Y267010D01*
G37*
G36*
G01X167972Y270868D02*
X166909D01*
Y269490D01*
X167972D01*
Y270868D01*
G37*
G36*
G01X170532D02*
X169468D01*
Y269490D01*
X170532D01*
Y270868D01*
G37*
G36*
G01X173091D02*
X172028D01*
Y269490D01*
X173091D01*
Y270868D01*
G37*
G36*
G01X168017Y277883D02*
Y280717D01*
X166127D01*
Y277883D01*
X168017D01*
G37*
G36*
G01X173923D02*
Y280717D01*
X172033D01*
Y277883D01*
X173923D01*
G37*
G36*
G01X172008Y352117D02*
Y349283D01*
X173898D01*
Y352117D01*
X172008D01*
G37*
G36*
G01X166102D02*
Y349283D01*
X167992D01*
Y352117D01*
X166102D01*
G37*
G36*
G01X172028Y359082D02*
X173091D01*
Y360460D01*
X172028D01*
Y359082D01*
G37*
G36*
G01X169468D02*
X170532D01*
Y360460D01*
X169468D01*
Y359082D01*
G37*
G36*
G01X166909D02*
X167972D01*
Y360460D01*
X166909D01*
Y359082D01*
G37*
G36*
G01X169468Y362940D02*
X170532D01*
Y364318D01*
X169468D01*
Y362940D01*
G37*
G36*
G01X167972D02*
X166909D01*
Y364318D01*
X167972D01*
Y362940D01*
G37*
G36*
G01X173091D02*
X172028D01*
Y364318D01*
X173091D01*
Y362940D01*
G37*
G36*
G01X170532Y547060D02*
X169468D01*
Y545682D01*
X170532D01*
Y547060D01*
G37*
G36*
G01X172028D02*
X173091D01*
Y545682D01*
X172028D01*
Y547060D01*
G37*
G36*
G01X166909D02*
X167972D01*
Y545682D01*
X166909D01*
Y547060D01*
G37*
G36*
G01X167972Y550918D02*
X166909D01*
Y549540D01*
X167972D01*
Y550918D01*
G37*
G36*
G01X170532D02*
X169468D01*
Y549540D01*
X170532D01*
Y550918D01*
G37*
G36*
G01X173091D02*
X172028D01*
Y549540D01*
X173091D01*
Y550918D01*
G37*
G36*
G01X167992Y557783D02*
Y560617D01*
X166102D01*
Y557783D01*
X167992D01*
G37*
G36*
G01X173898D02*
Y560617D01*
X172008D01*
Y557783D01*
X173898D01*
G37*
G36*
G01X177267Y172992D02*
X174433D01*
Y171102D01*
X177267D01*
Y172992D01*
G37*
G36*
G01Y178898D02*
X174433D01*
Y177008D01*
X177267D01*
Y178898D01*
G37*
G36*
G01X177317Y452992D02*
X174483D01*
Y451102D01*
X177317D01*
Y452992D01*
G37*
G36*
G01Y458898D02*
X174483D01*
Y457008D01*
X177317D01*
Y458898D01*
G37*
G36*
G01X187953Y171909D02*
Y172972D01*
X189331D01*
Y171909D01*
X187953D01*
G37*
G36*
G01X184094Y172972D02*
Y171909D01*
X185472D01*
Y172972D01*
X184094D01*
G37*
G36*
G01X187953Y175532D02*
Y174468D01*
X189331D01*
Y175532D01*
X187953D01*
G37*
G36*
G01Y177028D02*
Y178091D01*
X189331D01*
Y177028D01*
X187953D01*
G37*
G36*
G01X184094Y175532D02*
Y174468D01*
X185472D01*
Y175532D01*
X184094D01*
G37*
G36*
G01Y178091D02*
Y177028D01*
X185472D01*
Y178091D01*
X184094D01*
G37*
G36*
G01X187940Y455531D02*
Y454469D01*
X189318D01*
Y455531D01*
X187940D01*
G37*
G36*
G01Y457028D02*
Y458091D01*
X189318D01*
Y457028D01*
X187940D01*
G37*
G36*
G01Y451909D02*
Y452972D01*
X189318D01*
Y451909D01*
X187940D01*
G37*
G36*
G01X184082Y452972D02*
Y451909D01*
X185460D01*
Y452972D01*
X184082D01*
G37*
G36*
G01Y455531D02*
Y454469D01*
X185460D01*
Y455531D01*
X184082D01*
G37*
G36*
G01Y458091D02*
Y457028D01*
X185460D01*
Y458091D01*
X184082D01*
G37*
G36*
G01X237247Y65630D02*
X235672D01*
Y64370D01*
X237247D01*
Y65630D01*
G37*
G36*
G01X244728D02*
X243153D01*
Y64370D01*
X244728D01*
Y65630D01*
G37*
G36*
G01X242956Y62240D02*
X237440D01*
Y60669D01*
X242956D01*
Y62240D01*
G37*
G36*
G01Y69337D02*
X237440D01*
Y67756D01*
X242956D01*
Y69337D01*
G37*
G36*
G01X237047Y285630D02*
X235472D01*
Y284370D01*
X237047D01*
Y285630D01*
G37*
G36*
G01X244528D02*
X242953D01*
Y284370D01*
X244528D01*
Y285630D01*
G37*
G36*
G01X242756Y289337D02*
X237240D01*
Y287756D01*
X242756D01*
Y289337D01*
G37*
G36*
G01Y282240D02*
X237240D01*
Y280669D01*
X242756D01*
Y282240D01*
G37*
G36*
G01Y342240D02*
X237240D01*
Y340669D01*
X242756D01*
Y342240D01*
G37*
G36*
G01X237047Y345630D02*
X235472D01*
Y344370D01*
X237047D01*
Y345630D01*
G37*
G36*
G01X244528D02*
X242953D01*
Y344370D01*
X244528D01*
Y345630D01*
G37*
G36*
G01X242756Y349337D02*
X237240D01*
Y347756D01*
X242756D01*
Y349337D01*
G37*
G36*
G01X237047Y565630D02*
X235472D01*
Y564370D01*
X237047D01*
Y565630D01*
G37*
G36*
G01X244528D02*
X242953D01*
Y564370D01*
X244528D01*
Y565630D01*
G37*
G36*
G01X242756Y562240D02*
X237240D01*
Y560669D01*
X242756D01*
Y562240D01*
G37*
G36*
G01Y569337D02*
X237240D01*
Y567756D01*
X242756D01*
Y569337D01*
G37*
G36*
G01X306077Y182217D02*
Y179383D01*
X307967D01*
Y182217D01*
X306077D01*
G37*
G36*
G01X307992Y447683D02*
Y450517D01*
X306102D01*
Y447683D01*
X307992D01*
G37*
G36*
G01X311983Y182217D02*
Y179383D01*
X313873D01*
Y182217D01*
X311983D01*
G37*
G36*
G01X312028Y189182D02*
X313091D01*
Y190560D01*
X312028D01*
Y189182D01*
G37*
G36*
G01X309468D02*
X310532D01*
Y190560D01*
X309468D01*
Y189182D01*
G37*
G36*
G01X306909D02*
X307972D01*
Y190560D01*
X306909D01*
Y189182D01*
G37*
G36*
G01X309468Y193040D02*
X310532D01*
Y194418D01*
X309468D01*
Y193040D01*
G37*
G36*
G01X307972D02*
X306909D01*
Y194418D01*
X307972D01*
Y193040D01*
G37*
G36*
G01X313091D02*
X312028D01*
Y194418D01*
X313091D01*
Y193040D01*
G37*
G36*
G01X317427Y312997D02*
X314593D01*
Y311107D01*
X317427D01*
Y312997D01*
G37*
G36*
G01Y318903D02*
X314593D01*
Y317013D01*
X317427D01*
Y318903D01*
G37*
G36*
G01X310532Y437060D02*
X309468D01*
Y435682D01*
X310532D01*
Y437060D01*
G37*
G36*
G01X312028D02*
X313091D01*
Y435682D01*
X312028D01*
Y437060D01*
G37*
G36*
G01X306909D02*
X307972D01*
Y435682D01*
X306909D01*
Y437060D01*
G37*
G36*
G01X307972Y440918D02*
X306909D01*
Y439540D01*
X307972D01*
Y440918D01*
G37*
G36*
G01X310532D02*
X309468D01*
Y439540D01*
X310532D01*
Y440918D01*
G37*
G36*
G01X313091D02*
X312028D01*
Y439540D01*
X313091D01*
Y440918D01*
G37*
G36*
G01X313898Y447683D02*
Y450517D01*
X312008D01*
Y447683D01*
X313898D01*
G37*
G36*
G01X324087Y312972D02*
Y311909D01*
X325465D01*
Y312972D01*
X324087D01*
G37*
G36*
G01Y315532D02*
Y314468D01*
X325465D01*
Y315532D01*
X324087D01*
G37*
G36*
G01Y318091D02*
Y317028D01*
X325465D01*
Y318091D01*
X324087D01*
G37*
G36*
G01X327945Y315532D02*
Y314468D01*
X329323D01*
Y315532D01*
X327945D01*
G37*
G36*
G01Y311909D02*
Y312972D01*
X329323D01*
Y311909D01*
X327945D01*
G37*
G36*
G01Y317028D02*
Y318091D01*
X329323D01*
Y317028D01*
X327945D01*
G37*
G36*
G01X337727Y315630D02*
X336152D01*
Y314370D01*
X337727D01*
Y315630D01*
G37*
G36*
G01X343436Y312240D02*
X337920D01*
Y310669D01*
X343436D01*
Y312240D01*
G37*
G36*
G01Y319337D02*
X337920D01*
Y317756D01*
X343436D01*
Y319337D01*
G37*
G36*
G01X345208Y315630D02*
X343633D01*
Y314370D01*
X345208D01*
Y315630D01*
G37*
G36*
G01X385472Y64370D02*
X387047D01*
Y65630D01*
X385472D01*
Y64370D01*
G37*
G36*
G01Y284370D02*
X387047D01*
Y285630D01*
X385472D01*
Y284370D01*
G37*
G36*
G01Y344370D02*
X387047D01*
Y345630D01*
X385472D01*
Y344370D01*
G37*
G36*
G01Y564370D02*
X387047D01*
Y565630D01*
X385472D01*
Y564370D01*
G37*
G36*
G01X392953Y64370D02*
X394528D01*
Y65630D01*
X392953D01*
Y64370D01*
G37*
G36*
G01X387244Y60663D02*
X392760D01*
Y62244D01*
X387244D01*
Y60663D01*
G37*
G36*
G01Y67760D02*
X392760D01*
Y69331D01*
X387244D01*
Y67760D01*
G37*
G36*
G01X392953Y284370D02*
X394528D01*
Y285630D01*
X392953D01*
Y284370D01*
G37*
G36*
G01X387244Y280663D02*
X392760D01*
Y282244D01*
X387244D01*
Y280663D01*
G37*
G36*
G01Y287760D02*
X392760D01*
Y289331D01*
X387244D01*
Y287760D01*
G37*
G36*
G01Y340663D02*
X392760D01*
Y342244D01*
X387244D01*
Y340663D01*
G37*
G36*
G01X392953Y344370D02*
X394528D01*
Y345630D01*
X392953D01*
Y344370D01*
G37*
G36*
G01X387244Y347760D02*
X392760D01*
Y349331D01*
X387244D01*
Y347760D01*
G37*
G36*
G01X392953Y564370D02*
X394528D01*
Y565630D01*
X392953D01*
Y564370D01*
G37*
G36*
G01X387244Y560663D02*
X392760D01*
Y562244D01*
X387244D01*
Y560663D01*
G37*
G36*
G01Y567760D02*
X392760D01*
Y569331D01*
X387244D01*
Y567760D01*
G37*
G36*
G01X441960Y172972D02*
Y171909D01*
X440582D01*
Y172972D01*
X441960D01*
G37*
G36*
G01Y174468D02*
Y175532D01*
X440582D01*
Y174468D01*
X441960D01*
G37*
G36*
G01Y178091D02*
Y177028D01*
X440582D01*
Y178091D01*
X441960D01*
G37*
G36*
G01X442060Y454469D02*
Y455531D01*
X440682D01*
Y454469D01*
X442060D01*
G37*
G36*
G01Y452972D02*
Y451909D01*
X440682D01*
Y452972D01*
X442060D01*
G37*
G36*
G01Y458091D02*
Y457028D01*
X440682D01*
Y458091D01*
X442060D01*
G37*
G36*
G01X445818Y171909D02*
Y172972D01*
X444440D01*
Y171909D01*
X445818D01*
G37*
G36*
G01Y177028D02*
Y178091D01*
X444440D01*
Y177028D01*
X445818D01*
G37*
G36*
G01Y174468D02*
Y175532D01*
X444440D01*
Y174468D01*
X445818D01*
G37*
G36*
G01X445918Y457028D02*
Y458091D01*
X444540D01*
Y457028D01*
X445918D01*
G37*
G36*
G01Y454469D02*
Y455531D01*
X444540D01*
Y454469D01*
X445918D01*
G37*
G36*
G01Y451909D02*
Y452972D01*
X444540D01*
Y451909D01*
X445918D01*
G37*
G36*
G01X456115Y72192D02*
Y69358D01*
X458005D01*
Y72192D01*
X456115D01*
G37*
G36*
G01X457972Y83040D02*
X456909D01*
Y84418D01*
X457972D01*
Y83040D01*
G37*
G36*
G01X456909Y79182D02*
X457972D01*
Y80560D01*
X456909D01*
Y79182D01*
G37*
G36*
G01X453083Y171077D02*
X455917D01*
Y172967D01*
X453083D01*
Y171077D01*
G37*
G36*
G01Y176983D02*
X455917D01*
Y178873D01*
X453083D01*
Y176983D01*
G37*
G36*
G01X456909Y266972D02*
X457972D01*
Y265594D01*
X456909D01*
Y266972D01*
G37*
G36*
G01X457972Y270831D02*
X456909D01*
Y269453D01*
X457972D01*
Y270831D01*
G37*
G36*
G01X457967Y277883D02*
Y280717D01*
X456077D01*
Y277883D01*
X457967D01*
G37*
G36*
G01X456102Y352317D02*
Y349483D01*
X457992D01*
Y352317D01*
X456102D01*
G37*
G36*
G01X456909Y359082D02*
X457972D01*
Y360460D01*
X456909D01*
Y359082D01*
G37*
G36*
G01X457972Y362940D02*
X456909D01*
Y364318D01*
X457972D01*
Y362940D01*
G37*
G36*
G01X452983Y457008D02*
X455817D01*
Y458898D01*
X452983D01*
Y457008D01*
G37*
G36*
G01Y451102D02*
X455817D01*
Y452992D01*
X452983D01*
Y451102D01*
G37*
G36*
G01X456909Y547060D02*
X457972D01*
Y545682D01*
X456909D01*
Y547060D01*
G37*
G36*
G01X457972Y550918D02*
X456909D01*
Y549540D01*
X457972D01*
Y550918D01*
G37*
G36*
G01X457992Y558083D02*
Y560917D01*
X456102D01*
Y558083D01*
X457992D01*
G37*
G36*
G01X462020Y72192D02*
Y69358D01*
X463910D01*
Y72192D01*
X462020D01*
G37*
G36*
G01X459468Y83040D02*
X460532D01*
Y84418D01*
X459468D01*
Y83040D01*
G37*
G36*
G01X463091D02*
X462028D01*
Y84418D01*
X463091D01*
Y83040D01*
G37*
G36*
G01X462028Y79182D02*
X463091D01*
Y80560D01*
X462028D01*
Y79182D01*
G37*
G36*
G01X459468D02*
X460532D01*
Y80560D01*
X459468D01*
Y79182D01*
G37*
G36*
G01X460532Y266972D02*
X459468D01*
Y265594D01*
X460532D01*
Y266972D01*
G37*
G36*
G01X462028D02*
X463091D01*
Y265594D01*
X462028D01*
Y266972D01*
G37*
G36*
G01X460532Y270831D02*
X459468D01*
Y269453D01*
X460532D01*
Y270831D01*
G37*
G36*
G01X463091D02*
X462028D01*
Y269453D01*
X463091D01*
Y270831D01*
G37*
G36*
G01X463873Y277883D02*
Y280717D01*
X461983D01*
Y277883D01*
X463873D01*
G37*
G36*
G01X462008Y352317D02*
Y349483D01*
X463898D01*
Y352317D01*
X462008D01*
G37*
G36*
G01X462028Y359082D02*
X463091D01*
Y360460D01*
X462028D01*
Y359082D01*
G37*
G36*
G01X459468D02*
X460532D01*
Y360460D01*
X459468D01*
Y359082D01*
G37*
G36*
G01Y362940D02*
X460532D01*
Y364318D01*
X459468D01*
Y362940D01*
G37*
G36*
G01X463091D02*
X462028D01*
Y364318D01*
X463091D01*
Y362940D01*
G37*
G36*
G01X460532Y547060D02*
X459468D01*
Y545682D01*
X460532D01*
Y547060D01*
G37*
G36*
G01X462028D02*
X463091D01*
Y545682D01*
X462028D01*
Y547060D01*
G37*
G36*
G01X460532Y550918D02*
X459468D01*
Y549540D01*
X460532D01*
Y550918D01*
G37*
G36*
G01X463091D02*
X462028D01*
Y549540D01*
X463091D01*
Y550918D01*
G37*
G36*
G01X463898Y558083D02*
Y560917D01*
X462008D01*
Y558083D01*
X463898D01*
G37*
G36*
G01X527047Y65630D02*
X525472D01*
Y64370D01*
X527047D01*
Y65630D01*
G37*
G36*
G01X532756Y62240D02*
X527240D01*
Y60669D01*
X532756D01*
Y62240D01*
G37*
G36*
G01Y69337D02*
X527240D01*
Y67756D01*
X532756D01*
Y69337D01*
G37*
G36*
G01X527047Y285630D02*
X525472D01*
Y284370D01*
X527047D01*
Y285630D01*
G37*
G36*
G01X532756Y289337D02*
X527240D01*
Y287756D01*
X532756D01*
Y289337D01*
G37*
G36*
G01Y282240D02*
X527240D01*
Y280669D01*
X532756D01*
Y282240D01*
G37*
G36*
G01Y342240D02*
X527240D01*
Y340669D01*
X532756D01*
Y342240D01*
G37*
G36*
G01X527047Y345630D02*
X525472D01*
Y344370D01*
X527047D01*
Y345630D01*
G37*
G36*
G01X532756Y349337D02*
X527240D01*
Y347756D01*
X532756D01*
Y349337D01*
G37*
G36*
G01X527047Y565630D02*
X525472D01*
Y564370D01*
X527047D01*
Y565630D01*
G37*
G36*
G01X532756Y562240D02*
X527240D01*
Y560669D01*
X532756D01*
Y562240D01*
G37*
G36*
G01Y569337D02*
X527240D01*
Y567756D01*
X532756D01*
Y569337D01*
G37*
G36*
G01X534528Y65630D02*
X532953D01*
Y64370D01*
X534528D01*
Y65630D01*
G37*
G36*
G01Y285630D02*
X532953D01*
Y284370D01*
X534528D01*
Y285630D01*
G37*
G36*
G01Y345630D02*
X532953D01*
Y344370D01*
X534528D01*
Y345630D01*
G37*
G36*
G01Y565630D02*
X532953D01*
Y564370D01*
X534528D01*
Y565630D01*
G37*
M02*
