G04 ================== begin FILE IDENTIFICATION RECORD ==================*
G04 Layout Name:  C:/Users/Raymond/Desktop/1-16_RF_PWR_DIV/1-16_Power_Splitter.brd*
G04 Film Name:    TOP_SOLDERMASK*
G04 File Format:  Gerber RS274X*
G04 File Origin:  Cadence Allegro 17.2-P019*
G04 Origin Date:  Tue Apr 30 12:10:11 2019*
G04 *
G04 Layer:  VIA CLASS/SOLDERMASK_TOP*
G04 Layer:  PIN/SOLDERMASK_TOP*
G04 Layer:  DRC ERROR CLASS/SOLDERMASK_TOP*
G04 Layer:  BOARD GEOMETRY/DESIGN_OUTLINE*
G04 *
G04 Offset:    (0.000 0.000)*
G04 Mirror:    No*
G04 Mode:      Positive*
G04 Rotation:  0*
G04 FullContactRelief:  No*
G04 UndefLineWidth:     0.000*
G04 ================== end FILE IDENTIFICATION RECORD ====================*
%FSLAX25Y25*MOIN*%
%IR0*IPPOS*OFA0.00000B0.00000*MIA0B0*SFA1.00000B1.00000*%
%AMMACRO11*
4,1,4,-.033465,-.012795,
.033465,-.012795,
.033465,.012795,
-.033465,.012795,
-.033465,-.012795,
0.0*
%
%ADD11MACRO11*%
%AMMACRO12*
4,1,4,.033465,.012795,
-.033465,.012795,
-.033465,-.012795,
.033465,-.012795,
.033465,.012795,
0.0*
%
%ADD12MACRO12*%
%ADD14R,.016142X.019291*%
%ADD16R,.019291X.016142*%
%ADD15R,.038583X.026772*%
%ADD13R,.026772X.038583*%
%ADD10R,.022835X.018898*%
%LPD*%
G75*
G54D10*
X96260Y65000D03*
Y285000D03*
Y345000D03*
Y565000D03*
X103740Y65000D03*
Y285000D03*
Y345000D03*
Y565000D03*
X236460Y65000D03*
X236260Y285000D03*
Y345000D03*
Y565000D03*
X243940Y65000D03*
X243740Y285000D03*
Y345000D03*
Y565000D03*
X336940Y315000D03*
X344420D03*
X386260Y65000D03*
Y285000D03*
Y345000D03*
Y565000D03*
X393740Y65000D03*
Y285000D03*
Y345000D03*
Y565000D03*
X526260Y65000D03*
Y285000D03*
Y345000D03*
Y565000D03*
X533740Y65000D03*
Y285000D03*
Y345000D03*
Y565000D03*
G54D11*
X100000Y61949D03*
Y281949D03*
Y341949D03*
Y561949D03*
X240200Y61949D03*
X240000Y281949D03*
Y341949D03*
Y561949D03*
X340680Y311949D03*
X390000Y61949D03*
Y281949D03*
Y341949D03*
Y561949D03*
X530000Y61949D03*
Y281949D03*
Y341949D03*
Y561949D03*
G54D12*
X100000Y68051D03*
Y288051D03*
Y348051D03*
Y568051D03*
X240200Y68051D03*
X240000Y288051D03*
Y348051D03*
Y568051D03*
X340680Y318051D03*
X390000Y68051D03*
Y288051D03*
Y348051D03*
Y568051D03*
X530000Y68051D03*
Y288051D03*
Y348051D03*
Y568051D03*
G54D13*
X172953Y70700D03*
X167047D03*
X167072Y279300D03*
X172978D03*
X172953Y350700D03*
X167047D03*
Y559200D03*
X172953D03*
X307022Y180800D03*
X307047Y449100D03*
X312928Y180800D03*
X312953Y449100D03*
X457060Y70775D03*
X457022Y279300D03*
X457047Y350900D03*
Y559500D03*
X462965Y70775D03*
X462928Y279300D03*
X462953Y350900D03*
Y559500D03*
G54D14*
X167441Y83642D03*
X170000D03*
X172559D03*
Y79783D03*
X170000D03*
X167441D03*
X172559Y266321D03*
X170000D03*
X167441D03*
Y270179D03*
X170000D03*
X172559D03*
Y359771D03*
X170000D03*
X167441D03*
Y363629D03*
X170000D03*
X172559D03*
Y546371D03*
X170000D03*
X167441D03*
Y550229D03*
X170000D03*
X172559D03*
X307441Y189871D03*
Y193729D03*
Y436371D03*
Y440229D03*
X312559Y189871D03*
X310000D03*
Y193729D03*
X312559D03*
Y436371D03*
X310000D03*
Y440229D03*
X312559D03*
X457441Y83729D03*
Y79871D03*
Y266283D03*
Y270142D03*
Y359771D03*
Y363629D03*
Y546371D03*
Y550229D03*
X460000Y83729D03*
X462559D03*
Y79871D03*
X460000D03*
X462559Y266283D03*
X460000D03*
Y270142D03*
X462559D03*
Y359771D03*
X460000D03*
Y363629D03*
X462559D03*
Y546371D03*
X460000D03*
Y550229D03*
X462559D03*
G54D15*
X175850Y172047D03*
Y177953D03*
X175900Y452047D03*
Y457953D03*
X316010Y312052D03*
Y317958D03*
X454500Y172022D03*
Y177928D03*
X454400Y457953D03*
Y452047D03*
G54D16*
X188642Y172441D03*
X184783D03*
X188642Y177559D03*
Y175000D03*
X184783D03*
Y177559D03*
X188629Y457559D03*
Y455000D03*
Y452441D03*
X184771D03*
Y455000D03*
Y457559D03*
X324776Y312441D03*
Y315000D03*
Y317559D03*
X328634Y315000D03*
Y312441D03*
Y317559D03*
X441271Y172441D03*
Y175000D03*
Y177559D03*
X441371Y452441D03*
Y455000D03*
Y457559D03*
X445129Y172441D03*
Y177559D03*
Y175000D03*
X445229Y457559D03*
Y455000D03*
Y452441D03*
M02*
