G04 ================== begin FILE IDENTIFICATION RECORD ==================*
G04 Layout Name:  C:/Users/Raymond/Desktop/1-16_RF_PWR_DIV/1-16_Power_Splitter.brd*
G04 Film Name:    TOP_L*
G04 File Format:  Gerber RS274X*
G04 File Origin:  Cadence Allegro 17.2-P019*
G04 Origin Date:  Tue Apr 30 12:10:11 2019*
G04 *
G04 Layer:  VIA CLASS/TOP*
G04 Layer:  PIN/TOP*
G04 Layer:  ETCH/TOP*
G04 Layer:  BOARD GEOMETRY/DESIGN_OUTLINE*
G04 *
G04 Offset:    (0.000 0.000)*
G04 Mirror:    No*
G04 Mode:      Positive*
G04 Rotation:  0*
G04 FullContactRelief:  No*
G04 UndefLineWidth:     0.000*
G04 ================== end FILE IDENTIFICATION RECORD ====================*
%FSLAX25Y25*MOIN*%
%IR0*IPPOS*OFA0.00000B0.00000*MIA0B0*SFA1.00000B1.00000*%
%AMMACRO14*
4,1,8,.033461,.011811,
-.033461,.011811,
-.033461,-.011811,
-.019689,-.011811,
-.005909,-.003941,
.005909,-.003941,
.019689,-.011811,
.033461,-.011811,
.033461,.011811,
0.0*
%
%ADD14MACRO14*%
%ADD15C,.000008*%
%ADD18R,.035433X.023622*%
%ADD16R,.023622X.035433*%
%ADD10C,.025591*%
%ADD17R,.012992X.016142*%
%ADD19R,.016142X.012992*%
%ADD11C,.019646*%
%AMMACRO13*
4,1,8,-.033461,-.011811,
.033461,-.011811,
.033461,.011811,
.019689,.011811,
.005909,.003941,
-.005909,.003941,
-.019689,.011811,
-.033461,.011811,
-.033461,-.011811,
0.0*
%
%ADD13MACRO13*%
%ADD12R,.019685X.015748*%
G75*
%LPD*%
G75*
G36*
G01X1Y629999D02*
X629999D01*
Y1D01*
X1D01*
Y629999D01*
G37*
%LPC*%
G75*
G36*
G01X166127Y568005D02*
X170000Y564132D01*
X173876Y568008D01*
X174489Y568000D01*
X233276D01*
X235276Y567288D01*
X236260D01*
X236644Y567286D01*
X236644Y566969D01*
X238031D01*
X239409Y567756D01*
X240591D01*
X241969Y566969D01*
X242756D01*
Y563031D01*
X241969D01*
X240591Y562244D01*
X239409D01*
X238031Y563031D01*
X236647D01*
X236648Y562712D01*
X236260Y562712D01*
X235276D01*
X233276Y562000D01*
X175559D01*
Y556085D01*
X174709Y553770D01*
Y550229D01*
X173937D01*
Y545938D01*
X173346D01*
Y547316D01*
X171772D01*
Y546371D01*
X171883D01*
X171878Y545541D01*
X173000Y543564D01*
Y460559D01*
X178915D01*
X181231Y459709D01*
X184771D01*
Y458937D01*
X189062D01*
Y458346D01*
X187684D01*
Y456772D01*
X188628D01*
Y456897D01*
X189450Y456893D01*
X191436Y458000D01*
X305511D01*
X306132Y458000D01*
X310000Y454132D01*
X313867Y457999D01*
X314489Y458000D01*
X438564D01*
X440545Y456888D01*
X441371Y456880D01*
Y456772D01*
X442315D01*
Y458346D01*
X440938D01*
Y458937D01*
X445229D01*
Y459709D01*
X448771D01*
X451085Y460559D01*
X457000D01*
Y543564D01*
X458095Y545564D01*
X458096Y546371D01*
X458228D01*
Y547316D01*
X456654D01*
Y545938D01*
X456063D01*
Y550229D01*
X455291D01*
Y553769D01*
X454441Y556089D01*
Y562000D01*
X396724D01*
X394724Y562712D01*
X393740D01*
X393356Y562721D01*
X393356Y563031D01*
X391969D01*
X390591Y562244D01*
X389409D01*
X388031Y563031D01*
X387244D01*
Y566969D01*
X388031D01*
X389409Y567756D01*
X390591D01*
X391969Y566969D01*
X393353D01*
X393352Y567288D01*
X393740Y567288D01*
X394724D01*
X396724Y568000D01*
X455511D01*
X456133Y567998D01*
X460000Y564132D01*
X463875Y568007D01*
X464463Y568005D01*
X464489Y568000D01*
X523276D01*
X525276Y567288D01*
X526260D01*
X526634Y567290D01*
X526635Y566969D01*
X528031D01*
X529409Y567756D01*
X530591D01*
X531969Y566969D01*
X532756D01*
Y563031D01*
X531969D01*
X530591Y562244D01*
X529409D01*
X528031Y563031D01*
X526645D01*
X526646Y562709D01*
X526260Y562712D01*
X525276D01*
X523276Y562000D01*
X465559D01*
Y556085D01*
X464709Y553769D01*
Y550229D01*
X463937D01*
Y545938D01*
X463346D01*
Y547316D01*
X461772D01*
Y546371D01*
X461900D01*
X461900Y545560D01*
X463000Y543564D01*
Y459489D01*
X462995Y458863D01*
X459132Y455000D01*
X463002Y451130D01*
X463000Y450511D01*
Y366436D01*
X461897Y364443D01*
X461899Y363629D01*
X461772D01*
Y362684D01*
X463346D01*
Y364062D01*
X463937D01*
Y359771D01*
X464710D01*
Y356242D01*
X465560Y353915D01*
Y348000D01*
X523276D01*
X525276Y347288D01*
X526260D01*
X526642Y347291D01*
X526642Y346969D01*
X528031D01*
X529409Y347756D01*
X530591D01*
X531969Y346969D01*
X532756D01*
Y343031D01*
X531969D01*
X530591Y342244D01*
X529409D01*
X528031Y343031D01*
X526646D01*
X526647Y342711D01*
X526260Y342712D01*
X525276D01*
X523276Y342000D01*
X464489D01*
X463872Y341996D01*
X460000Y345868D01*
X456130Y341998D01*
X455511Y342000D01*
X396724D01*
X394724Y342712D01*
X393740D01*
X393355Y342712D01*
X393355Y343031D01*
X391969D01*
X390591Y342244D01*
X389409D01*
X388031Y343031D01*
X387244D01*
Y346969D01*
X388031D01*
X389409Y347756D01*
X390591D01*
X391969Y346969D01*
X393352D01*
X393351Y347295D01*
X393740Y347288D01*
X394724D01*
X396724Y348000D01*
X454440D01*
Y353915D01*
X455290Y356242D01*
Y359771D01*
X456063D01*
Y364062D01*
X456654D01*
Y362684D01*
X458228D01*
Y363629D01*
X458099D01*
X458094Y364439D01*
X457000Y366436D01*
Y449441D01*
X451085D01*
X448771Y450291D01*
X445229D01*
Y451063D01*
X440938D01*
Y451654D01*
X442315D01*
Y453228D01*
X441371D01*
Y453135D01*
X440528Y453127D01*
X438598Y452014D01*
X438564Y452000D01*
X315559D01*
Y446085D01*
X314709Y443782D01*
Y440229D01*
X313937D01*
Y435938D01*
X313346D01*
Y437315D01*
X311772D01*
Y436372D01*
X311902D01*
X311902Y435562D01*
X313000Y433564D01*
Y320559D01*
X318914D01*
Y320579D01*
X321256Y319709D01*
X324776D01*
Y318937D01*
X329067D01*
Y318346D01*
X327690D01*
Y316772D01*
X328663D01*
Y316897D01*
X329450Y316901D01*
X331470Y318000D01*
X333955D01*
X335956Y317288D01*
X336940D01*
X337326Y317289D01*
Y316969D01*
X338711D01*
X340089Y317756D01*
X341271D01*
X342649Y316969D01*
X343436D01*
Y313031D01*
X342649D01*
X341271Y312244D01*
X340089D01*
X338711Y313031D01*
X337326D01*
Y312711D01*
X336940Y312712D01*
X335956D01*
X333947Y312000D01*
X331470D01*
X329458Y313106D01*
X328663Y313110D01*
Y313228D01*
X327690D01*
Y311654D01*
X329067D01*
Y311063D01*
X324776D01*
Y310291D01*
X321256D01*
X318887Y309441D01*
X313000D01*
Y196536D01*
X311872Y194557D01*
X311864Y193729D01*
X311772D01*
Y192784D01*
X313346D01*
Y194162D01*
X313937D01*
Y189871D01*
X314709D01*
Y186330D01*
X315559Y183915D01*
Y178000D01*
X438464D01*
X440452Y176901D01*
X441271Y176903D01*
Y176772D01*
X442216D01*
Y178346D01*
X440838D01*
Y178937D01*
X445129D01*
Y179709D01*
X448658D01*
X451085Y180559D01*
X457000D01*
Y263476D01*
X458096Y265473D01*
X458095Y265677D01*
X458097Y266284D01*
X458228D01*
Y267228D01*
X456654D01*
Y265850D01*
X456063D01*
Y270141D01*
X455291D01*
Y273680D01*
X454441Y276085D01*
Y282000D01*
X396724D01*
X394724Y282712D01*
X393740D01*
X393353Y282722D01*
X393352Y283031D01*
X391969D01*
X390591Y282244D01*
X389409D01*
X388031Y283031D01*
X387244D01*
Y286969D01*
X388031D01*
X389409Y287756D01*
X390591D01*
X391969Y286969D01*
X393349D01*
X393348Y287286D01*
X393740Y287288D01*
X394724D01*
X396724Y288000D01*
X455511D01*
X456132Y288000D01*
X460000Y284132D01*
X463871Y288002D01*
X464489Y288000D01*
X523276D01*
X525276Y287288D01*
X526260D01*
X526643Y287291D01*
X526644Y286969D01*
X528031D01*
X529409Y287756D01*
X530591D01*
X531969Y286969D01*
X532756D01*
Y283031D01*
X531969D01*
X530591Y282244D01*
X529409D01*
X528031Y283031D01*
X526645D01*
X526646Y282715D01*
X526260Y282712D01*
X525276D01*
X523276Y282000D01*
X465559D01*
Y276085D01*
X464709Y273680D01*
Y270141D01*
X463937D01*
Y265850D01*
X463346D01*
Y267228D01*
X461772D01*
Y266284D01*
X461883D01*
X461879Y265473D01*
X463000Y263476D01*
Y179489D01*
X462991Y178860D01*
X459132Y175000D01*
X462995Y171137D01*
X463000Y170511D01*
Y86536D01*
X461899Y84548D01*
Y83729D01*
X461772D01*
Y82784D01*
X463346D01*
Y84162D01*
X463937D01*
Y79871D01*
X464709D01*
Y76342D01*
X465559Y73915D01*
Y68000D01*
X523276D01*
X525276Y67288D01*
X526260D01*
X526644Y67285D01*
X526645Y66969D01*
X528031D01*
X529409Y67756D01*
X530591D01*
X531969Y66969D01*
X532756D01*
Y63031D01*
X531969D01*
X530591Y62244D01*
X529409D01*
X528031Y63031D01*
X526646D01*
X526646Y62712D01*
X526260Y62712D01*
X525276D01*
X523276Y62000D01*
X464489D01*
X463858Y62010D01*
X460000Y65868D01*
X456148Y62016D01*
X455511Y62000D01*
X396724D01*
X394724Y62712D01*
X393740D01*
X393354Y62712D01*
X393354Y63031D01*
X391969D01*
X390591Y62244D01*
X389409D01*
X388031Y63031D01*
X387244D01*
Y66969D01*
X388031D01*
X389409Y67756D01*
X390591D01*
X391969Y66969D01*
X393351D01*
X393350Y67288D01*
X393740Y67288D01*
X394724D01*
X396724Y68000D01*
X454441D01*
Y73915D01*
X455291Y76342D01*
Y79871D01*
X456063D01*
Y84162D01*
X456654D01*
Y82784D01*
X458228D01*
Y83729D01*
X458100D01*
X458098Y84542D01*
X457000Y86536D01*
Y169441D01*
X451085D01*
X448658Y170291D01*
X445129D01*
Y171063D01*
X440838D01*
Y171654D01*
X442216D01*
Y173228D01*
X441271D01*
Y173114D01*
X440452Y173110D01*
X440455Y172846D01*
X438464Y172000D01*
X314489D01*
X313867Y172002D01*
X310000Y175868D01*
X306133Y172001D01*
X305511Y172000D01*
X191449D01*
X189468Y173120D01*
X188641Y173128D01*
Y173228D01*
X187697D01*
Y171654D01*
X189075D01*
Y171063D01*
X184784D01*
Y170291D01*
X181230D01*
X178915Y169441D01*
X173000D01*
Y86449D01*
X171899Y84461D01*
X171901Y83641D01*
X171772D01*
Y82697D01*
X173346D01*
Y84075D01*
X173937D01*
Y79784D01*
X174709D01*
Y76228D01*
X175559Y73915D01*
Y68000D01*
X233476D01*
X235476Y67288D01*
X236460D01*
X236841Y67291D01*
Y66969D01*
X238231D01*
X239609Y67756D01*
X240791D01*
X242169Y66969D01*
X242956D01*
Y63031D01*
X242169D01*
X240791Y62244D01*
X239609D01*
X238231Y63031D01*
X236841D01*
Y62710D01*
X236460Y62712D01*
X235476D01*
X233476Y62000D01*
X174489D01*
X173863Y62005D01*
X170000Y65868D01*
X166136Y62004D01*
X165511Y62000D01*
X106724D01*
X104723Y62712D01*
X103740D01*
X103354Y62722D01*
X103354Y63031D01*
X101969D01*
X100591Y62244D01*
X99409D01*
X98031Y63031D01*
X97244D01*
Y66969D01*
X98031D01*
X99409Y67756D01*
X100591D01*
X101969Y66969D01*
X103350D01*
X103350Y67288D01*
X103740Y67288D01*
X104724D01*
X106724Y68000D01*
X164441D01*
Y73915D01*
X165291Y76228D01*
Y79784D01*
X166063D01*
Y84075D01*
X166654D01*
Y82697D01*
X168228D01*
Y83641D01*
X168102D01*
X168104Y84463D01*
X167000Y86449D01*
Y170511D01*
X167000Y171132D01*
X170868Y175000D01*
X167002Y178866D01*
X167000Y179489D01*
Y263514D01*
X168102Y265505D01*
X168104Y266321D01*
X168228D01*
Y267266D01*
X166654D01*
Y265888D01*
X166063D01*
Y270179D01*
X165291D01*
Y273717D01*
X164441Y276085D01*
Y282000D01*
X106724D01*
X104724Y282712D01*
X103740D01*
X103355Y282717D01*
Y283031D01*
X101969D01*
X100591Y282244D01*
X99409D01*
X98031Y283031D01*
X97244D01*
Y286969D01*
X98031D01*
X99409Y287756D01*
X100591D01*
X101969Y286969D01*
X103355D01*
Y287285D01*
X103740Y287288D01*
X104724D01*
X106724Y288000D01*
X165511D01*
X166137Y287995D01*
X170000Y284132D01*
X173868Y288000D01*
X174489Y288000D01*
X233276D01*
X235276Y287288D01*
X236260D01*
X236646Y287286D01*
Y286969D01*
X238031D01*
X239409Y287756D01*
X240591D01*
X241969Y286969D01*
X242756D01*
Y283031D01*
X241969D01*
X240591Y282244D01*
X239409D01*
X238031Y283031D01*
X236646D01*
Y282712D01*
X236260Y282712D01*
X235276D01*
X233276Y282000D01*
X175559D01*
Y276085D01*
X174709Y273717D01*
Y270179D01*
X173937D01*
Y265888D01*
X173346D01*
Y267266D01*
X171772D01*
Y266321D01*
X171897D01*
X171896Y265509D01*
X172993Y263532D01*
X173000Y263514D01*
Y180559D01*
X178915D01*
X181230Y179709D01*
X184784D01*
Y178937D01*
X189075D01*
Y178346D01*
X187697D01*
Y176772D01*
X188641D01*
Y176891D01*
X189484D01*
X191449Y178000D01*
X304441D01*
Y183915D01*
X305291Y186330D01*
Y189871D01*
X306063D01*
Y194162D01*
X306654D01*
Y192784D01*
X308228D01*
Y193729D01*
X308126D01*
X308134Y194565D01*
X307000Y196536D01*
Y310511D01*
X306999Y311131D01*
X310868Y315000D01*
X306996Y318872D01*
X307000Y319489D01*
Y433564D01*
X308095Y435556D01*
X308099Y436372D01*
X308228D01*
Y437315D01*
X306654D01*
Y435938D01*
X306063D01*
Y440229D01*
X305291D01*
Y443782D01*
X304441Y446085D01*
Y452000D01*
X191436D01*
X189440Y453102D01*
X188628D01*
Y453228D01*
X187684D01*
Y451654D01*
X189062D01*
Y451063D01*
X184771D01*
Y450291D01*
X181231D01*
X178915Y449441D01*
X173000D01*
Y366436D01*
X171900Y364444D01*
X171894Y363629D01*
X171772D01*
Y362684D01*
X173346D01*
Y364062D01*
X173937D01*
Y359771D01*
X174709D01*
Y356242D01*
X175559Y353915D01*
Y348000D01*
X233276D01*
X235276Y347288D01*
X236260D01*
X236639Y347290D01*
X236640Y346969D01*
X238031D01*
X239409Y347756D01*
X240591D01*
X241969Y346969D01*
X242756D01*
Y343031D01*
X241969D01*
X240591Y342244D01*
X239409D01*
X238031Y343031D01*
X236647D01*
X236648Y342717D01*
X236260Y342712D01*
X235276D01*
X233276Y342000D01*
X174489D01*
X173872Y341996D01*
X170000Y345868D01*
X166139Y342007D01*
X165511Y342000D01*
X106724D01*
X104724Y342712D01*
X103740D01*
X103355Y342714D01*
X103355Y343031D01*
X101969D01*
X100591Y342244D01*
X99409D01*
X98031Y343031D01*
X97244D01*
Y346969D01*
X98031D01*
X99409Y347756D01*
X100591D01*
X101969Y346969D01*
X103353D01*
X103352Y347287D01*
X103740Y347288D01*
X104724D01*
X106724Y348000D01*
X164441D01*
Y353915D01*
X165291Y356242D01*
Y359771D01*
X166063D01*
Y364062D01*
X166654D01*
Y362684D01*
X168228D01*
Y363629D01*
X168108D01*
X168110Y364452D01*
X167000Y366436D01*
Y450511D01*
X167017Y451149D01*
X170868Y455000D01*
X167014Y458854D01*
X167000Y459489D01*
Y543564D01*
X168099Y545558D01*
X168101Y546371D01*
X168228D01*
Y547316D01*
X166654D01*
Y545938D01*
X166063D01*
Y550229D01*
X165291D01*
Y553770D01*
X164441Y556085D01*
Y562000D01*
X106724D01*
X104724Y562712D01*
X103740D01*
X103357Y562714D01*
X103357Y563031D01*
X101969D01*
X100591Y562244D01*
X99409D01*
X98031Y563031D01*
X97244D01*
Y566969D01*
X98031D01*
X99409Y567756D01*
X100591D01*
X101969Y566969D01*
X103352D01*
X103351Y567290D01*
X103740Y567288D01*
X104724D01*
X106724Y568000D01*
X165483D01*
X166127Y568005D01*
G37*
%LPD*%
G75*
G36*
G01X165511Y66500D02*
X106724D01*
Y63500D01*
X165511D01*
Y66500D01*
G37*
G36*
G01X103740Y64213D02*
X104724D01*
Y65787D01*
X103740D01*
Y64213D01*
G37*
G36*
G01X104724D02*
X106724Y63500D01*
Y66500D01*
X104724Y65787D01*
Y64213D01*
G37*
G36*
G01X165511Y286500D02*
X106724D01*
Y283500D01*
X165511D01*
Y286500D01*
G37*
G36*
G01X103740Y284213D02*
X104724D01*
Y285787D01*
X103740D01*
Y284213D01*
G37*
G36*
G01X104724D02*
X106724Y283500D01*
Y286500D01*
X104724Y285787D01*
Y284213D01*
G37*
G36*
G01X165511Y346500D02*
X106724D01*
Y343500D01*
X165511D01*
Y346500D01*
G37*
G36*
G01X103740Y344213D02*
X104724D01*
Y345787D01*
X103740D01*
Y344213D01*
G37*
G36*
G01X104724D02*
X106724Y343500D01*
Y346500D01*
X104724Y345787D01*
Y344213D01*
G37*
G36*
G01X165511Y566500D02*
X106724D01*
Y563500D01*
X165511D01*
Y566500D01*
G37*
G36*
G01X103740Y564213D02*
X104724D01*
Y565787D01*
X103740D01*
Y564213D01*
G37*
G36*
G01X104724D02*
X106724Y563500D01*
Y566500D01*
X104724Y565787D01*
Y564213D01*
G37*
G36*
G01X165941Y66500D02*
Y66930D01*
X168941D01*
X165511Y63500D01*
Y66500D01*
X165941D01*
G37*
G36*
G01X174059D02*
Y66930D01*
X171059D01*
X174489Y63500D01*
Y66500D01*
X174059D01*
G37*
G36*
G01X168941Y66930D02*
Y73915D01*
X165941D01*
Y66930D01*
X168941D01*
G37*
G36*
G01Y73915D02*
X168091Y76228D01*
X166791D01*
X165941Y73915D01*
X168941D01*
G37*
G36*
G01X174059Y66930D02*
Y73915D01*
X171059D01*
Y66930D01*
X174059D01*
G37*
G36*
G01Y73915D02*
X173209Y76228D01*
X171909D01*
X171059Y73915D01*
X174059D01*
G37*
G36*
G01X169350Y79783D02*
Y76228D01*
X170650D01*
Y79783D01*
X169350D01*
G37*
G36*
G01X170650Y83642D02*
Y84449D01*
X169350D01*
Y83642D01*
X170650D01*
G37*
G36*
G01X166791Y79783D02*
Y76228D01*
X168091D01*
Y79783D01*
X166791D01*
G37*
G36*
G01X171909D02*
Y76228D01*
X173209D01*
Y79783D01*
X171909D01*
G37*
G36*
G01X171500Y86449D02*
Y170511D01*
X168500D01*
Y86449D01*
X171500D01*
G37*
G36*
G01X170650Y84449D02*
X171500Y86449D01*
X168500D01*
X169350Y84449D01*
X170650D01*
G37*
G36*
G01X171500Y170941D02*
X171930D01*
Y173941D01*
X168500Y170511D01*
X171500D01*
Y170941D01*
G37*
G36*
G01X171930D02*
X178915D01*
Y173941D01*
X171930D01*
Y170941D01*
G37*
G36*
G01X171500Y179059D02*
X171930D01*
Y176059D01*
X168500Y179489D01*
X171500D01*
Y179059D01*
G37*
G36*
G01X171930Y176059D02*
X178915D01*
Y179059D01*
X171930D01*
Y176059D01*
G37*
G36*
G01X171500Y179489D02*
Y263514D01*
X168500D01*
Y179489D01*
X171500D01*
G37*
G36*
G01X170650Y270179D02*
Y273717D01*
X169350D01*
Y270179D01*
X170650D01*
G37*
G36*
G01X168091D02*
Y273717D01*
X166791D01*
Y270179D01*
X168091D01*
G37*
G36*
G01X173209D02*
Y273717D01*
X171909D01*
Y270179D01*
X173209D01*
G37*
G36*
G01X169350Y266321D02*
Y265514D01*
X170650D01*
Y266321D01*
X169350D01*
G37*
G36*
G01Y265514D02*
X168500Y263514D01*
X171500D01*
X170650Y265514D01*
X169350D01*
G37*
G36*
G01X165941Y283070D02*
Y276085D01*
X168941D01*
Y283070D01*
X165941D01*
G37*
G36*
G01X168091Y273717D02*
X168941Y276085D01*
X165941D01*
X166791Y273717D01*
X168091D01*
G37*
G36*
G01X171059Y283070D02*
Y276085D01*
X174059D01*
Y283070D01*
X171059D01*
G37*
G36*
G01X173209Y273717D02*
X174059Y276085D01*
X171059D01*
X171909Y273717D01*
X173209D01*
G37*
G36*
G01X165941Y283500D02*
Y283070D01*
X168941D01*
X165511Y286500D01*
Y283500D01*
X165941D01*
G37*
G36*
G01X174059D02*
Y283070D01*
X171059D01*
X174489Y286500D01*
Y283500D01*
X174059D01*
G37*
G36*
G01X165941Y346500D02*
Y346930D01*
X168941D01*
X165511Y343500D01*
Y346500D01*
X165941D01*
G37*
G36*
G01X168941Y346930D02*
Y353915D01*
X165941D01*
Y346930D01*
X168941D01*
G37*
G36*
G01X174059Y346500D02*
Y346930D01*
X171059D01*
X174489Y343500D01*
Y346500D01*
X174059D01*
G37*
G36*
G01Y346930D02*
Y353915D01*
X171059D01*
Y346930D01*
X174059D01*
G37*
G36*
G01X168941Y353915D02*
X168091Y356242D01*
X166791D01*
X165941Y353915D01*
X168941D01*
G37*
G36*
G01X166791Y359771D02*
Y356242D01*
X168091D01*
Y359771D01*
X166791D01*
G37*
G36*
G01X174059Y353915D02*
X173209Y356242D01*
X171909D01*
X171059Y353915D01*
X174059D01*
G37*
G36*
G01X171909Y359771D02*
Y356242D01*
X173209D01*
Y359771D01*
X171909D01*
G37*
G36*
G01X169350D02*
Y356242D01*
X170650D01*
Y359771D01*
X169350D01*
G37*
G36*
G01X171500Y366436D02*
Y450511D01*
X168500D01*
Y366436D01*
X171500D01*
G37*
G36*
G01X170650Y363629D02*
Y364436D01*
X169350D01*
Y363629D01*
X170650D01*
G37*
G36*
G01Y364436D02*
X171500Y366436D01*
X168500D01*
X169350Y364436D01*
X170650D01*
G37*
G36*
G01X171500Y459059D02*
X171930D01*
Y456059D01*
X168500Y459489D01*
X171500D01*
Y459059D01*
G37*
G36*
G01X171930Y456059D02*
X178915D01*
Y459059D01*
X171930D01*
Y456059D01*
G37*
G36*
G01X171500Y450941D02*
X171930D01*
Y453941D01*
X168500Y450511D01*
X171500D01*
Y450941D01*
G37*
G36*
G01X171930D02*
X178915D01*
Y453941D01*
X171930D01*
Y450941D01*
G37*
G36*
G01X171500Y459489D02*
Y543564D01*
X168500D01*
Y459489D01*
X171500D01*
G37*
G36*
G01X169350Y546371D02*
Y545564D01*
X170650D01*
Y546371D01*
X169350D01*
G37*
G36*
G01Y545564D02*
X168500Y543564D01*
X171500D01*
X170650Y545564D01*
X169350D01*
G37*
G36*
G01X170650Y550229D02*
Y553770D01*
X169350D01*
Y550229D01*
X170650D01*
G37*
G36*
G01X165941Y563070D02*
Y556085D01*
X168941D01*
Y563070D01*
X165941D01*
G37*
G36*
G01X168091Y553770D02*
X168941Y556085D01*
X165941D01*
X166791Y553770D01*
X168091D01*
G37*
G36*
G01Y550229D02*
Y553770D01*
X166791D01*
Y550229D01*
X168091D01*
G37*
G36*
G01X171059Y563070D02*
Y556085D01*
X174059D01*
Y563070D01*
X171059D01*
G37*
G36*
G01X173209Y553770D02*
X174059Y556085D01*
X171059D01*
X171909Y553770D01*
X173209D01*
G37*
G36*
G01Y550229D02*
Y553770D01*
X171909D01*
Y550229D01*
X173209D01*
G37*
G36*
G01X165941Y563500D02*
Y563070D01*
X168941D01*
X165511Y566500D01*
Y563500D01*
X165941D01*
G37*
G36*
G01X174059D02*
Y563070D01*
X171059D01*
X174489Y566500D01*
Y563500D01*
X174059D01*
G37*
G36*
G01X233476Y66500D02*
X174489D01*
Y63500D01*
X233476D01*
Y66500D01*
G37*
G36*
G01X181230Y173091D02*
X178915Y173941D01*
Y170941D01*
X181230Y171791D01*
Y173091D01*
G37*
G36*
G01X184783D02*
X181230D01*
Y171791D01*
X184783D01*
Y173091D01*
G37*
G36*
G01Y175650D02*
X181230D01*
Y174350D01*
X184783D01*
Y175650D01*
G37*
G36*
G01X181230Y178209D02*
X178915Y179059D01*
Y176059D01*
X181230Y176909D01*
Y178209D01*
G37*
G36*
G01X184783D02*
X181230D01*
Y176909D01*
X184783D01*
Y178209D01*
G37*
G36*
G01X233276Y286500D02*
X174489D01*
Y283500D01*
X233276D01*
Y286500D01*
G37*
G36*
G01Y346500D02*
X174489D01*
Y343500D01*
X233276D01*
Y346500D01*
G37*
G36*
G01X184771Y455650D02*
X181231D01*
Y454350D01*
X184771D01*
Y455650D01*
G37*
G36*
G01X181231Y458209D02*
X178915Y459059D01*
Y456059D01*
X181231Y456909D01*
Y458209D01*
G37*
G36*
G01X184771D02*
X181231D01*
Y456909D01*
X184771D01*
Y458209D01*
G37*
G36*
G01X181231Y453091D02*
X178915Y453941D01*
Y450941D01*
X181231Y451791D01*
Y453091D01*
G37*
G36*
G01X184771D02*
X181231D01*
Y451791D01*
X184771D01*
Y453091D01*
G37*
G36*
G01X233276Y566500D02*
X174489D01*
Y563500D01*
X233276D01*
Y566500D01*
G37*
G36*
G01X188642Y174350D02*
X189449D01*
Y175650D01*
X188642D01*
Y174350D01*
G37*
G36*
G01X189449D02*
X191449Y173500D01*
Y176500D01*
X189449Y175650D01*
Y174350D01*
G37*
G36*
G01X188629Y454350D02*
X189436D01*
Y455650D01*
X188629D01*
Y454350D01*
G37*
G36*
G01X189436D02*
X191436Y453500D01*
Y456500D01*
X189436Y455650D01*
Y454350D01*
G37*
G36*
G01X305511Y176500D02*
X191449D01*
Y173500D01*
X305511D01*
Y176500D01*
G37*
G36*
G01Y456500D02*
X191436D01*
Y453500D01*
X305511D01*
Y456500D01*
G37*
G36*
G01X235476Y65787D02*
X233476Y66500D01*
Y63500D01*
X235476Y64213D01*
Y65787D01*
G37*
G36*
G01X236260Y285787D02*
X235276D01*
Y284213D01*
X236260D01*
Y285787D01*
G37*
G36*
G01X235276D02*
X233276Y286500D01*
Y283500D01*
X235276Y284213D01*
Y285787D01*
G37*
G36*
G01X236260Y345787D02*
X235276D01*
Y344213D01*
X236260D01*
Y345787D01*
G37*
G36*
G01X235276D02*
X233276Y346500D01*
Y343500D01*
X235276Y344213D01*
Y345787D01*
G37*
G36*
G01X236260Y565787D02*
X235276D01*
Y564213D01*
X236260D01*
Y565787D01*
G37*
G36*
G01X235276D02*
X233276Y566500D01*
Y563500D01*
X235276Y564213D01*
Y565787D01*
G37*
G36*
G01X236460Y65787D02*
X235476D01*
Y64213D01*
X236460D01*
Y65787D01*
G37*
G36*
G01X305941Y176500D02*
Y176930D01*
X308941D01*
X305511Y173500D01*
Y176500D01*
X305941D01*
G37*
G36*
G01X308941Y176930D02*
Y183915D01*
X305941D01*
Y176930D01*
X308941D01*
G37*
G36*
G01X306791Y189871D02*
Y186330D01*
X308091D01*
Y189871D01*
X306791D01*
G37*
G36*
G01X308941Y183915D02*
X308091Y186330D01*
X306791D01*
X305941Y183915D01*
X308941D01*
G37*
G36*
G01X308091Y440229D02*
Y443782D01*
X306791D01*
Y440229D01*
X308091D01*
G37*
G36*
G01X305941Y453070D02*
Y446085D01*
X308941D01*
Y453070D01*
X305941D01*
G37*
G36*
G01X308091Y443782D02*
X308941Y446085D01*
X305941D01*
X306791Y443782D01*
X308091D01*
G37*
G36*
G01X305941Y453500D02*
Y453070D01*
X308941D01*
X305511Y456500D01*
Y453500D01*
X305941D01*
G37*
G36*
G01X314059Y176500D02*
Y176930D01*
X311059D01*
X314489Y173500D01*
Y176500D01*
X314059D01*
G37*
G36*
G01Y176930D02*
Y183915D01*
X311059D01*
Y176930D01*
X314059D01*
G37*
G36*
G01X438464Y176500D02*
X314489D01*
Y173500D01*
X438464D01*
Y176500D01*
G37*
G36*
G01X309350Y189871D02*
Y186330D01*
X310650D01*
Y189871D01*
X309350D01*
G37*
G36*
G01X314059Y183915D02*
X313209Y186330D01*
X311909D01*
X311059Y183915D01*
X314059D01*
G37*
G36*
G01X311909Y189871D02*
Y186330D01*
X313209D01*
Y189871D01*
X311909D01*
G37*
G36*
G01X311500Y196536D02*
Y310511D01*
X308500D01*
Y196536D01*
X311500D01*
G37*
G36*
G01X310650Y193729D02*
Y194536D01*
X309350D01*
Y193729D01*
X310650D01*
G37*
G36*
G01Y194536D02*
X311500Y196536D01*
X308500D01*
X309350Y194536D01*
X310650D01*
G37*
G36*
G01X311500Y310941D02*
X311930D01*
Y313941D01*
X308500Y310511D01*
X311500D01*
Y310941D01*
G37*
G36*
G01X311930D02*
X318915D01*
Y313941D01*
X311930D01*
Y310941D01*
G37*
G36*
G01X311500Y319059D02*
X311930D01*
Y316059D01*
X308500Y319489D01*
X311500D01*
Y319059D01*
G37*
G36*
G01X311930Y316059D02*
X318915D01*
Y319059D01*
X311930D01*
Y316059D01*
G37*
G36*
G01X311500Y319489D02*
Y433564D01*
X308500D01*
Y319489D01*
X311500D01*
G37*
G36*
G01X310650Y440229D02*
Y443782D01*
X309350D01*
Y440229D01*
X310650D01*
G37*
G36*
G01X309350Y436371D02*
Y435564D01*
X310650D01*
Y436371D01*
X309350D01*
G37*
G36*
G01Y435564D02*
X308500Y433564D01*
X311500D01*
X310650Y435564D01*
X309350D01*
G37*
G36*
G01X313209Y440229D02*
Y443782D01*
X311909D01*
Y440229D01*
X313209D01*
G37*
G36*
G01X311059Y453070D02*
Y446085D01*
X314059D01*
Y453070D01*
X311059D01*
G37*
G36*
G01X313209Y443782D02*
X314059Y446085D01*
X311059D01*
X311909Y443782D01*
X313209D01*
G37*
G36*
G01X314059Y453500D02*
Y453070D01*
X311059D01*
X314489Y456500D01*
Y453500D01*
X314059D01*
G37*
G36*
G01X438564Y456500D02*
X314489D01*
Y453500D01*
X438564D01*
Y456500D01*
G37*
G36*
G01X321256Y313091D02*
X318915Y313941D01*
Y310941D01*
X321256Y311791D01*
Y313091D01*
G37*
G36*
G01X324776D02*
X321256D01*
Y311791D01*
X324776D01*
Y313091D01*
G37*
G36*
G01Y315650D02*
X321256D01*
Y314350D01*
X324776D01*
Y315650D01*
G37*
G36*
G01X321256Y318209D02*
X318915Y319059D01*
Y316059D01*
X321256Y316909D01*
Y318209D01*
G37*
G36*
G01X324776D02*
X321256D01*
Y316909D01*
X324776D01*
Y318209D01*
G37*
G36*
G01X328663Y314350D02*
X329470D01*
Y315650D01*
X328663D01*
Y314350D01*
G37*
G36*
G01X329470D02*
X331470Y313500D01*
Y316500D01*
X329470Y315650D01*
Y314350D01*
G37*
G36*
G01X333956Y316500D02*
X331470D01*
Y313500D01*
X333956D01*
Y316500D01*
G37*
G36*
G01X336940Y315787D02*
X335956D01*
Y314213D01*
X336940D01*
Y315787D01*
G37*
G36*
G01X335956D02*
X333956Y316500D01*
Y313500D01*
X335956Y314213D01*
Y315787D01*
G37*
G36*
G01X393740Y64213D02*
X394724D01*
Y65787D01*
X393740D01*
Y64213D01*
G37*
G36*
G01X394724D02*
X396724Y63500D01*
Y66500D01*
X394724Y65787D01*
Y64213D01*
G37*
G36*
G01X393740Y284213D02*
X394724D01*
Y285787D01*
X393740D01*
Y284213D01*
G37*
G36*
G01X394724D02*
X396724Y283500D01*
Y286500D01*
X394724Y285787D01*
Y284213D01*
G37*
G36*
G01X393740Y344213D02*
X394724D01*
Y345787D01*
X393740D01*
Y344213D01*
G37*
G36*
G01X394724D02*
X396724Y343500D01*
Y346500D01*
X394724Y345787D01*
Y344213D01*
G37*
G36*
G01X393740Y564213D02*
X394724D01*
Y565787D01*
X393740D01*
Y564213D01*
G37*
G36*
G01X394724D02*
X396724Y563500D01*
Y566500D01*
X394724Y565787D01*
Y564213D01*
G37*
G36*
G01X455511Y66500D02*
X396724D01*
Y63500D01*
X455511D01*
Y66500D01*
G37*
G36*
G01Y286500D02*
X396724D01*
Y283500D01*
X455511D01*
Y286500D01*
G37*
G36*
G01Y346500D02*
X396724D01*
Y343500D01*
X455511D01*
Y346500D01*
G37*
G36*
G01Y566500D02*
X396724D01*
Y563500D01*
X455511D01*
Y566500D01*
G37*
G36*
G01X441271Y175650D02*
X440464D01*
Y174350D01*
X441271D01*
Y175650D01*
G37*
G36*
G01X440464D02*
X438464Y176500D01*
Y173500D01*
X440464Y174350D01*
Y175650D01*
G37*
G36*
G01X441371Y455650D02*
X440564D01*
Y454350D01*
X441371D01*
Y455650D01*
G37*
G36*
G01X440564D02*
X438564Y456500D01*
Y453500D01*
X440564Y454350D01*
Y455650D01*
G37*
G36*
G01X445129Y171791D02*
X448658D01*
Y173091D01*
X445129D01*
Y171791D01*
G37*
G36*
G01X451085Y173941D02*
X448658Y173091D01*
Y171791D01*
X451085Y170941D01*
Y173941D01*
G37*
G36*
G01X445129Y176909D02*
X448658D01*
Y178209D01*
X445129D01*
Y176909D01*
G37*
G36*
G01X451085Y179059D02*
X448658Y178209D01*
Y176909D01*
X451085Y176059D01*
Y179059D01*
G37*
G36*
G01X445129Y174350D02*
X448658D01*
Y175650D01*
X445129D01*
Y174350D01*
G37*
G36*
G01X445229Y454350D02*
X448771D01*
Y455650D01*
X445229D01*
Y454350D01*
G37*
G36*
G01Y451791D02*
X448771D01*
Y453091D01*
X445229D01*
Y451791D01*
G37*
G36*
G01X451085Y453941D02*
X448771Y453091D01*
Y451791D01*
X451085Y450941D01*
Y453941D01*
G37*
G36*
G01X445229Y456909D02*
X448771D01*
Y458209D01*
X445229D01*
Y456909D01*
G37*
G36*
G01X451085Y459059D02*
X448771Y458209D01*
Y456909D01*
X451085Y456059D01*
Y459059D01*
G37*
G36*
G01X455941Y66500D02*
Y66930D01*
X458941D01*
X455511Y63500D01*
Y66500D01*
X455941D01*
G37*
G36*
G01X458941Y66930D02*
Y73915D01*
X455941D01*
Y66930D01*
X458941D01*
G37*
G36*
G01Y73915D02*
X458091Y76342D01*
X456791D01*
X455941Y73915D01*
X458941D01*
G37*
G36*
G01X456791Y79871D02*
Y76342D01*
X458091D01*
Y79871D01*
X456791D01*
G37*
G36*
G01X461500Y86536D02*
Y170511D01*
X458500D01*
Y86536D01*
X461500D01*
G37*
G36*
G01X460650Y84536D02*
X461500Y86536D01*
X458500D01*
X459350Y84536D01*
X460650D01*
G37*
G36*
G01X458500Y170941D02*
X458070D01*
Y173941D01*
X461500Y170511D01*
X458500D01*
Y170941D01*
G37*
G36*
G01X458070Y173941D02*
X451085D01*
Y170941D01*
X458070D01*
Y173941D01*
G37*
G36*
G01X458500Y179059D02*
X458070D01*
Y176059D01*
X461500Y179489D01*
X458500D01*
Y179059D01*
G37*
G36*
G01X458070D02*
X451085D01*
Y176059D01*
X458070D01*
Y179059D01*
G37*
G36*
G01X461500Y179489D02*
Y263476D01*
X458500D01*
Y179489D01*
X461500D01*
G37*
G36*
G01X458091Y270142D02*
Y273680D01*
X456791D01*
Y270142D01*
X458091D01*
G37*
G36*
G01X459350Y265476D02*
X458500Y263476D01*
X461500D01*
X460650Y265476D01*
X459350D01*
G37*
G36*
G01X455941Y283070D02*
Y276085D01*
X458941D01*
Y283070D01*
X455941D01*
G37*
G36*
G01X458091Y273680D02*
X458941Y276085D01*
X455941D01*
X456791Y273680D01*
X458091D01*
G37*
G36*
G01X455941Y283500D02*
Y283070D01*
X458941D01*
X455511Y286500D01*
Y283500D01*
X455941D01*
G37*
G36*
G01Y346500D02*
Y346930D01*
X458941D01*
X455511Y343500D01*
Y346500D01*
X455941D01*
G37*
G36*
G01X458941Y346930D02*
Y353915D01*
X455941D01*
Y346930D01*
X458941D01*
G37*
G36*
G01Y353915D02*
X458091Y356242D01*
X456791D01*
X455941Y353915D01*
X458941D01*
G37*
G36*
G01X456791Y359771D02*
Y356242D01*
X458091D01*
Y359771D01*
X456791D01*
G37*
G36*
G01X461500Y366436D02*
Y450511D01*
X458500D01*
Y366436D01*
X461500D01*
G37*
G36*
G01X460650Y364436D02*
X461500Y366436D01*
X458500D01*
X459350Y364436D01*
X460650D01*
G37*
G36*
G01X458500Y450941D02*
X458070D01*
Y453941D01*
X461500Y450511D01*
X458500D01*
Y450941D01*
G37*
G36*
G01X458070Y453941D02*
X451085D01*
Y450941D01*
X458070D01*
Y453941D01*
G37*
G36*
G01X458500Y459059D02*
X458070D01*
Y456059D01*
X461500Y459489D01*
X458500D01*
Y459059D01*
G37*
G36*
G01X458070D02*
X451085D01*
Y456059D01*
X458070D01*
Y459059D01*
G37*
G36*
G01X461500Y459489D02*
Y543564D01*
X458500D01*
Y459489D01*
X461500D01*
G37*
G36*
G01X459350Y545564D02*
X458500Y543564D01*
X461500D01*
X460650Y545564D01*
X459350D01*
G37*
G36*
G01X455941Y563070D02*
Y556085D01*
X458941D01*
Y563070D01*
X455941D01*
G37*
G36*
G01X458091Y553769D02*
X458941Y556085D01*
X455941D01*
X456791Y553769D01*
X458091D01*
G37*
G36*
G01Y550229D02*
Y553769D01*
X456791D01*
Y550229D01*
X458091D01*
G37*
G36*
G01X455941Y563500D02*
Y563070D01*
X458941D01*
X455511Y566500D01*
Y563500D01*
X455941D01*
G37*
G36*
G01X464059Y66500D02*
Y66930D01*
X461059D01*
X464489Y63500D01*
Y66500D01*
X464059D01*
G37*
G36*
G01X523276D02*
X464489D01*
Y63500D01*
X523276D01*
Y66500D01*
G37*
G36*
G01X464059Y66930D02*
Y73915D01*
X461059D01*
Y66930D01*
X464059D01*
G37*
G36*
G01Y73915D02*
X463209Y76342D01*
X461909D01*
X461059Y73915D01*
X464059D01*
G37*
G36*
G01X461909Y79871D02*
Y76342D01*
X463209D01*
Y79871D01*
X461909D01*
G37*
G36*
G01X459350D02*
Y76342D01*
X460650D01*
Y79871D01*
X459350D01*
G37*
G36*
G01X460650Y83729D02*
Y84536D01*
X459350D01*
Y83729D01*
X460650D01*
G37*
G36*
G01X460650Y270142D02*
Y273680D01*
X459350D01*
Y270142D01*
X460650D01*
G37*
G36*
G01X463209D02*
Y273680D01*
X461909D01*
Y270142D01*
X463209D01*
G37*
G36*
G01X459350Y266283D02*
Y265476D01*
X460650D01*
Y266283D01*
X459350D01*
G37*
G36*
G01X461059Y283070D02*
Y276085D01*
X464059D01*
Y283070D01*
X461059D01*
G37*
G36*
G01X463209Y273680D02*
X464059Y276085D01*
X461059D01*
X461909Y273680D01*
X463209D01*
G37*
G36*
G01X464059Y283500D02*
Y283070D01*
X461059D01*
X464489Y286500D01*
Y283500D01*
X464059D01*
G37*
G36*
G01X523276Y286500D02*
X464489D01*
Y283500D01*
X523276D01*
Y286500D01*
G37*
G36*
G01X464059Y346500D02*
Y346930D01*
X461059D01*
X464489Y343500D01*
Y346500D01*
X464059D01*
G37*
G36*
G01Y346930D02*
Y353915D01*
X461059D01*
Y346930D01*
X464059D01*
G37*
G36*
G01X523276Y346500D02*
X464489D01*
Y343500D01*
X523276D01*
Y346500D01*
G37*
G36*
G01X464059Y353915D02*
X463209Y356242D01*
X461909D01*
X461059Y353915D01*
X464059D01*
G37*
G36*
G01X461909Y359771D02*
Y356242D01*
X463209D01*
Y359771D01*
X461909D01*
G37*
G36*
G01X459350D02*
Y356242D01*
X460650D01*
Y359771D01*
X459350D01*
G37*
G36*
G01X460650Y363629D02*
Y364436D01*
X459350D01*
Y363629D01*
X460650D01*
G37*
G36*
G01X459350Y546371D02*
Y545564D01*
X460650D01*
Y546371D01*
X459350D01*
G37*
G36*
G01X460650Y550229D02*
Y553769D01*
X459350D01*
Y550229D01*
X460650D01*
G37*
G36*
G01X461059Y563070D02*
Y556085D01*
X464059D01*
Y563070D01*
X461059D01*
G37*
G36*
G01X463209Y553769D02*
X464059Y556085D01*
X461059D01*
X461909Y553769D01*
X463209D01*
G37*
G36*
G01Y550229D02*
Y553769D01*
X461909D01*
Y550229D01*
X463209D01*
G37*
G36*
G01X464059Y563500D02*
Y563070D01*
X461059D01*
X464489Y566500D01*
Y563500D01*
X464059D01*
G37*
G36*
G01X523276Y566500D02*
X464489D01*
Y563500D01*
X523276D01*
Y566500D01*
G37*
G36*
G01X526260Y65787D02*
X525276D01*
Y64213D01*
X526260D01*
Y65787D01*
G37*
G36*
G01X525276D02*
X523276Y66500D01*
Y63500D01*
X525276Y64213D01*
Y65787D01*
G37*
G36*
G01X526260Y285787D02*
X525276D01*
Y284213D01*
X526260D01*
Y285787D01*
G37*
G36*
G01X525276D02*
X523276Y286500D01*
Y283500D01*
X525276Y284213D01*
Y285787D01*
G37*
G36*
G01X526260Y345787D02*
X525276D01*
Y344213D01*
X526260D01*
Y345787D01*
G37*
G36*
G01X525276D02*
X523276Y346500D01*
Y343500D01*
X525276Y344213D01*
Y345787D01*
G37*
G36*
G01X526260Y565787D02*
X525276D01*
Y564213D01*
X526260D01*
Y565787D01*
G37*
G36*
G01X525276D02*
X523276Y566500D01*
Y563500D01*
X525276Y564213D01*
Y565787D01*
G37*
G54D10*
X9387Y7985D03*
X8515Y23984D03*
Y39732D03*
Y55479D03*
Y71228D03*
Y86976D03*
Y102724D03*
Y118472D03*
Y134220D03*
Y149968D03*
Y165716D03*
Y181464D03*
Y197212D03*
Y212960D03*
Y228708D03*
Y244456D03*
Y260204D03*
Y275952D03*
Y291700D03*
Y307448D03*
Y323196D03*
Y338944D03*
Y354692D03*
Y370440D03*
Y386188D03*
Y401936D03*
Y417684D03*
Y433432D03*
Y449180D03*
Y464928D03*
Y480676D03*
Y496424D03*
Y512172D03*
Y527920D03*
Y543669D03*
Y559416D03*
Y575165D03*
Y590913D03*
Y606661D03*
X9087Y622285D03*
X25135Y7985D03*
X24835Y622285D03*
X40884Y7985D03*
X40584Y622285D03*
X56632Y7985D03*
X56332Y622285D03*
X72380Y7985D03*
X72080Y622285D03*
X88128Y7985D03*
X87828Y622285D03*
X103876Y7985D03*
X103576Y622285D03*
X119624Y7985D03*
X119324Y622285D03*
X135372Y7985D03*
X135072Y622285D03*
X151120Y7985D03*
X150820Y622285D03*
X166868Y7985D03*
X166568Y622285D03*
X182616Y7985D03*
X182316Y622285D03*
X198364Y7985D03*
X198064Y622285D03*
X214112Y7985D03*
X213812Y622285D03*
X229860Y7985D03*
X229560Y622285D03*
X245608Y7985D03*
X245308Y622285D03*
X261356Y7985D03*
X261056Y622285D03*
X277104Y7985D03*
X276804Y622285D03*
X292852Y7985D03*
X292552Y622285D03*
X308600Y7985D03*
X308300Y622285D03*
X324348Y7985D03*
X324048Y622285D03*
X340096Y7985D03*
X339796Y622285D03*
X355844Y7985D03*
X355544Y622285D03*
X371592Y7985D03*
X371292Y622285D03*
X387340Y7985D03*
X387040Y622285D03*
X403088Y7985D03*
X402788Y622285D03*
X418836Y7985D03*
X418536Y622285D03*
X434584Y7985D03*
X434284Y622285D03*
X450332Y7985D03*
X450032Y622285D03*
X466080Y7985D03*
X465780Y622285D03*
X481828Y7985D03*
X481528Y622285D03*
X497576Y7985D03*
X497276Y622285D03*
X513324Y7985D03*
X513024Y622285D03*
X529072Y7985D03*
X528772Y622285D03*
X544820Y7985D03*
X544520Y622285D03*
X560568Y7985D03*
X560268Y622285D03*
X576316Y7985D03*
X576016Y622285D03*
X592065Y7985D03*
X591765Y622285D03*
X607813Y7985D03*
X607513Y622285D03*
X623561Y7985D03*
X623415Y23884D03*
Y39632D03*
Y55379D03*
Y71128D03*
Y86876D03*
Y102624D03*
Y118372D03*
Y134120D03*
Y149868D03*
Y165616D03*
Y181364D03*
Y197112D03*
Y212860D03*
Y228608D03*
Y244356D03*
Y260104D03*
Y275852D03*
Y291600D03*
Y307348D03*
Y323096D03*
Y338844D03*
Y354592D03*
Y370340D03*
Y386088D03*
Y401836D03*
Y417584D03*
Y433332D03*
Y449080D03*
Y464828D03*
Y480576D03*
Y496324D03*
Y512072D03*
Y527820D03*
Y543568D03*
Y559316D03*
Y575065D03*
Y590813D03*
Y606561D03*
X623261Y622285D03*
G54D11*
X88050Y65050D03*
X92700Y62800D03*
Y58300D03*
X88050Y60550D03*
X92700Y71800D03*
Y67300D03*
X88050Y69550D03*
X92700Y278500D03*
X88050Y280750D03*
Y285250D03*
X92700Y287500D03*
X88050Y289750D03*
X92700Y283000D03*
Y292000D03*
X88050Y340450D03*
X92700Y342700D03*
Y338200D03*
X88050Y349450D03*
X92700Y351700D03*
X88050Y344950D03*
X92700Y347200D03*
Y562900D03*
Y558400D03*
X88050Y565150D03*
Y560650D03*
X92700Y571900D03*
Y567400D03*
X88050Y569650D03*
X97822Y58286D03*
Y71786D03*
Y278486D03*
Y291986D03*
Y338186D03*
Y351686D03*
Y558386D03*
Y571886D03*
X108596Y59000D03*
X102922Y58286D03*
X108186Y71000D03*
X102922Y71786D03*
X107826Y278974D03*
X102922Y278486D03*
X108186Y291000D03*
X102922Y291986D03*
X110096Y339000D03*
X102922Y338186D03*
X108186Y351000D03*
X102922Y351686D03*
X108596Y559000D03*
X102922Y558386D03*
X108186Y571000D03*
X102922Y571886D03*
X116470Y59000D03*
X116060Y71000D03*
X113970Y279000D03*
X116060Y291000D03*
X117970Y339000D03*
X116060Y351000D03*
X113970Y559000D03*
X116060Y571000D03*
X124344Y59000D03*
X123934Y71000D03*
X121844Y279000D03*
X123934Y291000D03*
X125844Y339000D03*
X123934Y351000D03*
X121844Y559000D03*
X123934Y571000D03*
X132218Y59000D03*
X131808Y71000D03*
X137592Y279000D03*
X129718D03*
X131808Y291000D03*
X133718Y339000D03*
X131808Y351000D03*
X137592Y559000D03*
X129718D03*
X131808Y571000D03*
X140092Y59000D03*
X139682Y71000D03*
X145466Y279000D03*
X139682Y291000D03*
X141592Y339000D03*
X139682Y351000D03*
X145466Y559000D03*
X139682Y571000D03*
X155840Y59000D03*
X147966D03*
X147556Y71000D03*
X155430D03*
X153340Y279000D03*
X147556Y291000D03*
X155430D03*
X149466Y339000D03*
X147556Y351000D03*
X155430D03*
X153340Y559000D03*
X147556Y571000D03*
X155430D03*
X163714Y59000D03*
X161301Y75114D03*
X162464Y82929D03*
X163626Y89322D03*
X164000Y96563D03*
Y104437D03*
Y112311D03*
Y120185D03*
Y128059D03*
Y135933D03*
Y143807D03*
Y151681D03*
Y159555D03*
Y167429D03*
X164143Y181451D03*
X164000Y189529D03*
Y197403D03*
Y205277D03*
Y213151D03*
Y221025D03*
Y228899D03*
Y236773D03*
Y244647D03*
Y252521D03*
X164078Y260438D03*
X162657Y267607D03*
X161689Y273419D03*
X161214Y279000D03*
X163304Y291000D03*
X157340Y339000D03*
X161495Y350962D03*
X162076Y357550D03*
X162657Y363039D03*
X163884Y368529D03*
X164000Y376576D03*
Y384450D03*
Y392324D03*
Y400198D03*
Y408072D03*
Y415946D03*
Y423820D03*
Y431694D03*
Y439568D03*
Y447442D03*
X164030Y461368D03*
X164000Y469630D03*
Y477504D03*
Y485378D03*
Y493252D03*
Y501126D03*
Y509000D03*
Y516874D03*
Y524748D03*
Y532622D03*
X162996Y546651D03*
X164000Y540496D03*
X162157Y553142D03*
X161214Y559000D03*
X163304Y571000D03*
X170214Y61906D03*
X173398Y59000D03*
X169988Y77212D03*
X166532Y175058D03*
X169988Y272738D03*
X170011Y286874D03*
X165214Y339000D03*
X170020Y342114D03*
X169988Y357225D03*
X166807Y455136D03*
X169988Y552788D03*
X170011Y568874D03*
X181272Y59000D03*
X178933Y73887D03*
X178158Y80668D03*
X176285Y88160D03*
X176000Y96529D03*
Y104403D03*
Y120151D03*
Y112277D03*
Y128025D03*
Y135899D03*
Y143773D03*
Y151647D03*
Y159521D03*
X176995Y165951D03*
X182212Y175012D03*
X179191Y183970D03*
X176000Y189570D03*
Y197444D03*
Y205318D03*
Y213192D03*
Y221066D03*
Y228940D03*
Y244688D03*
Y236814D03*
Y252562D03*
Y260436D03*
X177964Y267348D03*
X178804Y273549D03*
X181735Y279000D03*
X175951Y291000D03*
X174411Y339014D03*
X181735Y339000D03*
X178803Y354643D03*
X176995Y361748D03*
X176000Y368643D03*
Y376517D03*
Y384391D03*
Y392265D03*
Y400139D03*
Y408013D03*
Y423761D03*
Y415887D03*
Y431635D03*
Y439509D03*
X176236Y446352D03*
X182212Y454988D03*
X179306Y463516D03*
X176000Y469570D03*
Y485318D03*
Y477444D03*
Y493192D03*
Y501066D03*
Y508940D03*
Y516814D03*
Y524688D03*
Y532562D03*
X176947Y546877D03*
X176000Y540436D03*
X177915Y553142D03*
X178238Y558954D03*
X175951Y571000D03*
X189146Y59000D03*
X184025Y71000D03*
X190622Y167760D03*
X184228Y167307D03*
X186295Y182808D03*
X189609Y279000D03*
X183825Y291000D03*
X191699D03*
X189609Y339000D03*
X183825Y351000D03*
X191699D03*
X191220Y448096D03*
X183534Y446740D03*
X186376Y462305D03*
X183599Y559148D03*
X189609Y559000D03*
X183825Y571000D03*
X191699D03*
X197020Y59000D03*
X191899Y71000D03*
X199773D03*
X198339Y169000D03*
X193068Y181000D03*
X197483Y279000D03*
X199573Y291000D03*
X197483Y339000D03*
X199573Y351000D03*
X198294Y449000D03*
X193068Y461000D03*
X197483Y559000D03*
X199573Y571000D03*
X204895Y59000D03*
X207647Y71000D03*
X206213Y169000D03*
X200942Y181000D03*
X208816D03*
X205357Y279000D03*
X207447Y291000D03*
X205357Y339000D03*
X207447Y351000D03*
X206168Y449000D03*
X200942Y461000D03*
X208816D03*
X205357Y559000D03*
X207447Y571000D03*
X212768Y59000D03*
X215521Y71000D03*
X214087Y169000D03*
X216690Y181000D03*
X213231Y279000D03*
X215321Y291000D03*
X213231Y339000D03*
X215321Y351000D03*
X214042Y449000D03*
X216690Y461000D03*
X213231Y559000D03*
X215321Y571000D03*
X220643Y59000D03*
X223395Y71000D03*
X221961Y169000D03*
X224564Y181000D03*
X221105Y279000D03*
X223195Y291000D03*
X221105Y339000D03*
X223195Y351000D03*
X221916Y449000D03*
X224564Y461000D03*
X221105Y559000D03*
X223195Y571000D03*
X228516Y59000D03*
X231269Y71000D03*
X229835Y169000D03*
X232438Y181000D03*
X228979Y279000D03*
X231069Y291000D03*
X228979Y339000D03*
X231069Y351000D03*
X229790Y449000D03*
X232438Y461000D03*
X228979Y559000D03*
X231069Y571000D03*
X242378Y58313D03*
X237278D03*
X242378Y71814D03*
X237278D03*
X237709Y169000D03*
X240312Y181000D03*
X242078Y278514D03*
X236978D03*
X242078Y292014D03*
X236978D03*
X242078Y338214D03*
X236978D03*
X242078Y351714D03*
X236978D03*
X237664Y449000D03*
X240312Y461000D03*
X236678Y558114D03*
X241778D03*
X236678Y571614D03*
X241778D03*
X252150Y65050D03*
X247500Y62800D03*
X252150Y60550D03*
X247500Y58300D03*
Y71800D03*
X252150Y69550D03*
X247500Y67300D03*
X253457Y169000D03*
X245583D03*
X248186Y181000D03*
X251850Y280750D03*
X247200Y278500D03*
X251850Y289750D03*
Y285250D03*
X247200Y287500D03*
Y283000D03*
Y292000D03*
X251850Y340450D03*
X247200Y342700D03*
Y338200D03*
X251850Y349450D03*
X247200Y351700D03*
X251850Y344950D03*
X247200Y347200D03*
X253412Y449000D03*
X245538D03*
X248186Y461000D03*
X246900Y562600D03*
X251550Y564850D03*
X246900Y558100D03*
X251550Y560350D03*
X246900Y571600D03*
Y567100D03*
X251550Y569350D03*
X261331Y169000D03*
X256060Y181000D03*
X261286Y449000D03*
X256060Y461000D03*
X269205Y169000D03*
X263934Y181000D03*
X271808D03*
X269160Y449000D03*
X263934Y461000D03*
X271808D03*
X277079Y169000D03*
X279682Y181000D03*
X277034Y449000D03*
X279682Y461000D03*
X284953Y169000D03*
X287556Y181000D03*
X284908Y449000D03*
X287556Y461000D03*
X292827Y169000D03*
X295430Y181000D03*
X292782Y449000D03*
X295430Y461000D03*
X300701Y169000D03*
X301449Y181129D03*
X301836Y187587D03*
X302741Y194304D03*
X304000Y201054D03*
Y208928D03*
Y216802D03*
Y224676D03*
Y232550D03*
Y240424D03*
Y248298D03*
Y256172D03*
Y264046D03*
Y271920D03*
Y279794D03*
Y287668D03*
Y295542D03*
Y303416D03*
X307068Y315270D03*
X304000Y311290D03*
Y324344D03*
Y332218D03*
Y340092D03*
Y347966D03*
Y355840D03*
Y363714D03*
Y371588D03*
Y379462D03*
Y387336D03*
Y395210D03*
Y403084D03*
Y410958D03*
Y418832D03*
X303709Y432103D03*
X304000Y426706D03*
X302289Y437722D03*
X300997Y442694D03*
X300656Y449000D03*
X303304Y461000D03*
X310039Y171247D03*
X316692Y169000D03*
X310012Y187312D03*
X316239Y199729D03*
X316000Y206617D03*
Y214491D03*
Y222365D03*
Y230239D03*
Y238113D03*
Y253861D03*
Y245987D03*
Y261735D03*
Y269609D03*
Y277483D03*
Y285357D03*
Y293231D03*
Y301105D03*
Y329570D03*
Y337444D03*
Y345318D03*
Y361066D03*
Y353192D03*
Y368940D03*
Y376814D03*
Y384688D03*
Y392562D03*
Y400436D03*
Y408310D03*
Y416184D03*
Y431932D03*
Y424058D03*
X309975Y442800D03*
X309845Y458388D03*
X324566Y169000D03*
X318693Y181000D03*
X317853Y187458D03*
X317143Y194175D03*
X319791Y305615D03*
X322238Y315010D03*
X319311Y323516D03*
X317143Y438561D03*
X317983Y443986D03*
X318693Y449217D03*
X324564Y449000D03*
X318247Y461000D03*
X332440Y169000D03*
X326021Y181000D03*
X333895D03*
X326895Y308005D03*
X332708Y309038D03*
X325732Y322245D03*
X331749Y321000D03*
X332438Y449000D03*
X326121Y461000D03*
X333995D03*
X340314Y169000D03*
X341769Y181000D03*
X342593Y308184D03*
X337493D03*
X342593Y321684D03*
X337493D03*
X340311Y449000D03*
X341869Y461000D03*
X348188Y169000D03*
X349643Y181000D03*
X352365Y310420D03*
Y314920D03*
X347715Y308170D03*
Y312670D03*
X352365Y319420D03*
X347715Y317170D03*
Y321670D03*
X348186Y449000D03*
X349743Y461000D03*
X356062Y169000D03*
X357517Y181000D03*
X356060Y449000D03*
X357617Y461000D03*
X363936Y169000D03*
X365391Y181000D03*
X363934Y449000D03*
X365491Y461000D03*
X378150Y65050D03*
Y60550D03*
Y69550D03*
X371810Y169000D03*
X373265Y181000D03*
X378150Y280750D03*
Y285250D03*
Y289750D03*
Y340750D03*
Y349750D03*
Y345250D03*
X371808Y449000D03*
X373365Y461000D03*
X378150Y565150D03*
Y560650D03*
Y569650D03*
X382800Y62800D03*
Y58300D03*
X387922Y58286D03*
X382800Y71800D03*
X387922Y71786D03*
X382800Y67300D03*
X387558Y169000D03*
X379684D03*
X381139Y181000D03*
X382800Y278500D03*
X387922Y278486D03*
X382800Y287500D03*
Y283000D03*
Y292000D03*
X387922Y291986D03*
X382800Y343000D03*
Y338500D03*
X387922Y338486D03*
X382800Y347500D03*
Y352000D03*
X387922Y351986D03*
X387556Y449000D03*
X379682D03*
X381239Y461000D03*
X382800Y562900D03*
Y558400D03*
X387922Y558386D03*
X382800Y571900D03*
X387922Y571886D03*
X382800Y567400D03*
X393022Y58286D03*
Y71786D03*
X395432Y169000D03*
X389013Y181000D03*
X396887D03*
X393022Y278486D03*
Y291986D03*
Y338486D03*
Y351986D03*
X395430Y449000D03*
X389113Y461000D03*
X396987D03*
X393022Y558386D03*
Y571886D03*
X399096Y59000D03*
X398186Y71000D03*
X403306Y169000D03*
X404761Y181000D03*
X398195Y278845D03*
X403970Y279000D03*
X398186Y291000D03*
X397809Y338876D03*
X403970Y339000D03*
X398186Y351000D03*
X403304Y449000D03*
X404861Y461000D03*
X398131Y558817D03*
X403970Y559000D03*
X398186Y571000D03*
X414844Y59000D03*
X406970D03*
X406060Y71000D03*
X413934D03*
X411180Y169000D03*
X412635Y181000D03*
X411844Y279000D03*
X406060Y291000D03*
X413934D03*
X411844Y339000D03*
X406060Y351000D03*
X413934D03*
X411178Y449000D03*
X412735Y461000D03*
X411844Y559000D03*
X406060Y571000D03*
X413934D03*
X422718Y59000D03*
X421808Y71000D03*
X419054Y169000D03*
X420509Y181000D03*
X419718Y279000D03*
X421808Y291000D03*
X419718Y339000D03*
X421808Y351000D03*
X419052Y449000D03*
X420609Y461000D03*
X419718Y559000D03*
X421808Y571000D03*
X430592Y59000D03*
X429682Y71000D03*
X426928Y169000D03*
X428383Y181000D03*
X427592Y279000D03*
X429682Y291000D03*
X427592Y339000D03*
X429682Y351000D03*
X426926Y449000D03*
X428483Y461000D03*
X427592Y559000D03*
X429682Y571000D03*
X438466Y59000D03*
X437556Y71000D03*
X434802Y169000D03*
X436257Y181000D03*
X435466Y279000D03*
X437556Y291000D03*
X435466Y339000D03*
X437556Y351000D03*
X441338Y447765D03*
X434800Y449000D03*
X435655Y461392D03*
X435466Y559000D03*
X437556Y571000D03*
X446340Y59000D03*
X445430Y71000D03*
X450252Y166016D03*
X443341Y167114D03*
X443406Y182550D03*
X447675Y174975D03*
X443340Y279000D03*
X445430Y291000D03*
X443340Y339000D03*
X445430Y351000D03*
X447474Y447055D03*
X447788Y454988D03*
X442925Y463516D03*
X443340Y559000D03*
X445430Y571000D03*
X454214Y59000D03*
X451091Y74823D03*
X452319Y81863D03*
X453610Y88321D03*
X454000Y96483D03*
Y104357D03*
Y112231D03*
Y120105D03*
Y127979D03*
Y135853D03*
Y143727D03*
Y151601D03*
Y159475D03*
X450639Y183648D03*
X454000Y189459D03*
Y197333D03*
Y205207D03*
Y213081D03*
Y220955D03*
Y228829D03*
Y236703D03*
Y244577D03*
Y252451D03*
Y260325D03*
X452511Y266510D03*
X451219Y272387D03*
X451214Y279000D03*
X453304Y291000D03*
X451214Y339000D03*
X451220Y354764D03*
X452899Y361997D03*
X454062Y369037D03*
X454000Y376576D03*
Y384450D03*
Y392324D03*
Y400198D03*
Y408072D03*
Y415946D03*
Y423820D03*
Y431694D03*
Y439568D03*
X453868Y446796D03*
X450703Y464169D03*
X454000Y469630D03*
Y477504D03*
Y485378D03*
Y493252D03*
Y501126D03*
Y509000D03*
Y516874D03*
Y524748D03*
Y532622D03*
X452188Y548031D03*
X453803Y541444D03*
X451219Y553908D03*
X451214Y559000D03*
X453304Y571000D03*
X460101Y62423D03*
X463861Y59000D03*
X460012Y77325D03*
X466000Y88743D03*
Y96617D03*
Y104491D03*
Y120239D03*
Y112365D03*
Y128113D03*
Y135987D03*
Y143861D03*
Y151735D03*
Y159609D03*
Y167483D03*
X463814Y175123D03*
X466000Y181696D03*
Y189570D03*
Y197444D03*
Y205318D03*
Y213192D03*
Y221066D03*
Y228940D03*
Y244688D03*
Y236814D03*
Y252562D03*
Y260436D03*
X467559Y266445D03*
X460012Y272700D03*
X459809Y288145D03*
X465951Y291000D03*
X463861Y339000D03*
X460011D03*
X460012Y357225D03*
X467043Y362385D03*
X466000Y368643D03*
Y376517D03*
Y384391D03*
Y392265D03*
Y400139D03*
Y408013D03*
Y423761D03*
Y415887D03*
Y431635D03*
Y439509D03*
Y447383D03*
X463814Y454998D03*
X466000Y461696D03*
Y469570D03*
Y485318D03*
Y477444D03*
Y493192D03*
Y501066D03*
Y508940D03*
Y516814D03*
Y524688D03*
Y532562D03*
X467559Y547967D03*
X466000Y540436D03*
X460012Y552788D03*
X459938Y568504D03*
X465951Y571000D03*
X471735Y59000D03*
X469563Y75405D03*
X473825Y71000D03*
X468516Y82175D03*
X468851Y272387D03*
X471735Y279000D03*
X473825Y291000D03*
X471735Y339000D03*
X473825Y351000D03*
X468593Y354505D03*
X468722Y553908D03*
X471735Y559000D03*
X473825Y571000D03*
X479609Y59000D03*
X481699Y71000D03*
X479609Y279000D03*
X481699Y291000D03*
X479609Y339000D03*
X481699Y351000D03*
X479609Y559000D03*
X481699Y571000D03*
X487483Y59000D03*
X489573Y71000D03*
X487483Y279000D03*
X489573Y291000D03*
X487483Y339000D03*
X489573Y351000D03*
X487483Y559000D03*
X489573Y571000D03*
X503231Y59000D03*
X495357D03*
X497447Y71000D03*
X503231Y279000D03*
X495357D03*
X497447Y291000D03*
X503231Y339000D03*
X495357D03*
X497447Y351000D03*
X503231Y559000D03*
X495357D03*
X497447Y571000D03*
X511105Y59000D03*
X505321Y71000D03*
X511105Y279000D03*
X505321Y291000D03*
X511105Y339000D03*
X505321Y351000D03*
X511105Y559000D03*
X505321Y571000D03*
X518979Y59000D03*
X513195Y71000D03*
X521069D03*
X518979Y279000D03*
X513195Y291000D03*
X521069D03*
X518979Y339000D03*
X513195Y351000D03*
X521069D03*
X518979Y559000D03*
X513195Y571000D03*
X521069D03*
X526778Y58313D03*
Y71814D03*
X527378Y278214D03*
Y291714D03*
X526778Y338214D03*
Y351714D03*
X527078Y558414D03*
Y571914D03*
X537000Y62800D03*
Y58300D03*
X531878Y58313D03*
X537000Y71800D03*
X531878Y71814D03*
X537000Y67300D03*
X532478Y278214D03*
X537600Y278200D03*
Y287200D03*
Y282700D03*
X532478Y291714D03*
X537600Y291700D03*
X537000Y342700D03*
Y338200D03*
X531878Y338214D03*
X537000Y351700D03*
X531878Y351714D03*
X537000Y347200D03*
X537300Y562900D03*
X532178Y558414D03*
X537300Y558400D03*
X532178Y571914D03*
X537300Y571900D03*
Y567400D03*
X541650Y65050D03*
Y60550D03*
Y69550D03*
X542250Y280450D03*
Y289450D03*
Y284950D03*
X541650Y340450D03*
Y349450D03*
Y344950D03*
X541950Y565150D03*
Y560650D03*
Y569650D03*
G54D12*
X96260Y65000D03*
Y285000D03*
Y345000D03*
Y565000D03*
X103740Y65000D03*
Y285000D03*
Y345000D03*
Y565000D03*
X236460Y65000D03*
X236260Y285000D03*
Y345000D03*
Y565000D03*
X243940Y65000D03*
X243740Y285000D03*
Y345000D03*
Y565000D03*
X336940Y315000D03*
X344420D03*
X386260Y65000D03*
Y285000D03*
Y345000D03*
Y565000D03*
X393740Y65000D03*
Y285000D03*
Y345000D03*
Y565000D03*
X526260Y65000D03*
Y285000D03*
Y345000D03*
Y565000D03*
X533740Y65000D03*
Y285000D03*
Y345000D03*
Y565000D03*
G54D13*
X100000Y61850D03*
Y281850D03*
Y341850D03*
Y561850D03*
X240200Y61850D03*
X240000Y281850D03*
Y341850D03*
Y561850D03*
X340680Y311850D03*
X390000Y61850D03*
Y281850D03*
Y341850D03*
Y561850D03*
X530000Y61850D03*
Y281850D03*
Y341850D03*
Y561850D03*
G54D14*
X100000Y68150D03*
Y288150D03*
Y348150D03*
Y568150D03*
X240200Y68150D03*
X240000Y288150D03*
Y348150D03*
Y568150D03*
X340680Y318150D03*
X390000Y68150D03*
Y288150D03*
Y348150D03*
Y568150D03*
X530000Y68150D03*
Y288150D03*
Y348150D03*
Y568150D03*
G54D15*
X106725Y65000D03*
X104724D03*
X103740D03*
X106724D03*
X104724D03*
X106725Y285000D03*
X104724D03*
X103740D03*
X106724D03*
X104724D03*
X106725Y345000D03*
X104724D03*
X103740D03*
X106724D03*
X104724D03*
X106725Y565000D03*
X104724D03*
X103740D03*
X106724D03*
X104724D03*
X165510Y65000D03*
X165511D03*
X167441Y73915D03*
Y66930D03*
X172559Y73915D03*
Y66930D03*
X167441Y73915D03*
X172559D03*
X167441Y66930D03*
X172559D03*
X170000Y76228D03*
Y79783D03*
X167441Y76228D03*
Y79783D03*
X172559Y76228D03*
Y79783D03*
X170000Y83642D03*
X167441Y76227D03*
X172559D03*
X170000Y86449D03*
Y84449D03*
Y86449D03*
Y84449D03*
X171930Y172441D03*
X170000Y170510D03*
Y170511D03*
X171930Y172441D03*
X171930Y177559D03*
X170000Y179490D03*
Y179489D03*
X171930Y177559D03*
X170000Y270179D03*
X167441D03*
X172559D03*
X170000Y263514D03*
Y265514D03*
Y266321D03*
Y263514D03*
Y265514D03*
Y273717D03*
X167441D03*
X172559D03*
X167441Y276085D03*
X172559D03*
X167441Y276085D03*
Y273718D03*
X172559Y276085D03*
Y273718D03*
X167441Y283070D03*
X172559D03*
X165510Y285000D03*
X165511D03*
X167441Y283070D03*
X172559D03*
X167441Y346930D03*
X172559D03*
X165510Y345000D03*
X165511D03*
X167441Y346930D03*
X172559D03*
X170000Y356243D03*
Y359771D03*
X172559Y356243D03*
Y359771D03*
X167441Y356243D03*
Y359771D03*
Y353915D03*
X172559D03*
X167441Y356242D03*
Y353915D03*
X172559Y356242D03*
Y353915D03*
X170000Y366436D03*
Y364436D03*
Y363629D03*
Y366436D03*
Y364436D03*
X171930Y457559D03*
Y452441D03*
X170000Y450510D03*
X171930Y457559D03*
X170000Y450511D03*
X171930Y452441D03*
X170000Y459490D03*
Y459489D03*
Y543564D03*
Y545564D03*
Y546371D03*
Y543564D03*
Y545564D03*
Y553770D03*
Y550229D03*
X167441Y553770D03*
Y550229D03*
X172559Y553770D03*
Y550229D03*
X167441Y556085D03*
X172559D03*
Y556085D03*
Y553770D03*
X167441Y556085D03*
Y553770D03*
Y563070D03*
X172559D03*
X165510Y565000D03*
X165511D03*
X167441Y563070D03*
X172559D03*
X174490Y65000D03*
X174489D03*
X181230Y172441D03*
X178915D03*
X178915D03*
X181229D03*
X181230Y175000D03*
Y177559D03*
X178915D03*
X178915D03*
X181229D03*
X174490Y285000D03*
X174489D03*
X174490Y345000D03*
X174489D03*
X181231Y455000D03*
Y457559D03*
Y452441D03*
X178915Y457559D03*
Y452441D03*
X178915Y457559D03*
X181231D03*
X178915Y452441D03*
X181231D03*
X174490Y565000D03*
X174489D03*
X184783Y172441D03*
Y175000D03*
Y177559D03*
X189449Y175000D03*
X188642D03*
X189449D03*
X184771Y455000D03*
Y457559D03*
Y452441D03*
X189436Y455000D03*
X188629D03*
X189436D03*
X191449Y175000D03*
X191449D03*
X191436Y455000D03*
X191436D03*
X233476Y65000D03*
X233476D03*
X233276Y285000D03*
X235276D03*
X233276D03*
X235276D03*
X233276Y345000D03*
X235276D03*
X233276D03*
X235276D03*
X233276Y565000D03*
X235276D03*
X233276D03*
X235276D03*
X235476Y65000D03*
X236460D03*
X235476D03*
X236260Y285000D03*
Y345000D03*
Y565000D03*
X305510Y175000D03*
X305511D03*
X305510Y455000D03*
X305511D03*
X307441Y176930D03*
X312559D03*
X314489Y175000D03*
X307441Y176930D03*
X314489Y175000D03*
X312559Y176930D03*
X310000Y186330D03*
Y189871D03*
X307441Y186330D03*
Y189871D03*
X312559Y186330D03*
Y189871D03*
X307441Y183915D03*
X312559D03*
X307441Y186330D03*
Y183915D03*
X312559Y186330D03*
Y183915D03*
X310000Y196536D03*
Y194536D03*
Y193729D03*
Y196536D03*
Y194536D03*
X311930Y312441D03*
X310000Y310511D03*
Y310511D03*
X311930Y312441D03*
X311930Y317559D03*
X310000Y319490D03*
Y319489D03*
X311930Y317559D03*
X310000Y440229D03*
X307441D03*
X312559D03*
X310000Y433564D03*
Y435564D03*
Y436371D03*
Y433564D03*
Y435564D03*
Y443782D03*
X307441D03*
X312559D03*
X307441Y446085D03*
X312559D03*
X307441Y446085D03*
Y443782D03*
X312559Y446085D03*
Y443782D03*
X307441Y453070D03*
X312559D03*
X314489Y455000D03*
X314489D03*
X312559Y453070D03*
X307441D03*
X321256Y315000D03*
Y312441D03*
X318915D03*
X318915D03*
X321256D03*
X321256Y317559D03*
X318915D03*
X318915D03*
X321256D03*
X329470Y315000D03*
X328663D03*
X331470D03*
X324776D03*
Y312441D03*
X331470Y315000D03*
X329470D03*
X324776Y317559D03*
X333956Y315000D03*
X335956D03*
X336940D03*
X333956D03*
X335956D03*
X394724Y65000D03*
X393740D03*
X394725D03*
X394724Y285000D03*
X393740D03*
X394725D03*
X394724Y345000D03*
X393740D03*
X394725D03*
X394724Y565000D03*
X393740D03*
X394725D03*
X396725Y65000D03*
X396724D03*
X396725Y285000D03*
X396724D03*
X396725Y345000D03*
X396724D03*
X396725Y565000D03*
X396724D03*
X438464Y175000D03*
X440464D03*
X438464D03*
X440464D03*
X438564Y455000D03*
X440564D03*
X438564D03*
X440564D03*
X448658Y172441D03*
X445129D03*
X448658D03*
X448658Y175000D03*
X445129D03*
X448658Y177559D03*
X445129D03*
X441271Y175000D03*
X448658Y177559D03*
X448771Y455000D03*
X445229D03*
X448771Y452441D03*
X445229D03*
X448771Y457559D03*
X445229D03*
X441371Y455000D03*
X448771Y457559D03*
Y452441D03*
X455510Y65000D03*
X455511D03*
X457441Y73915D03*
Y66930D03*
Y73915D03*
Y66930D03*
Y76343D03*
Y79871D03*
Y76342D03*
X451085Y172441D03*
X458070D03*
X451085D03*
X458070D03*
X451085Y177559D03*
X458070D03*
X451085D03*
X458070D03*
X457441Y270142D03*
Y273680D03*
Y276085D03*
Y276085D03*
Y273681D03*
Y283070D03*
X455510Y285000D03*
X455511D03*
X457441Y283070D03*
Y346930D03*
X455510Y345000D03*
X455511D03*
X457441Y346930D03*
Y356242D03*
Y359771D03*
Y353915D03*
Y356242D03*
Y353915D03*
X451085Y457559D03*
X458070D03*
X451085Y452441D03*
X458070D03*
X451085Y457559D03*
Y452441D03*
X458070D03*
Y457559D03*
X457441Y553769D03*
Y550229D03*
Y556085D03*
Y556085D03*
Y553769D03*
Y563070D03*
X455510Y565000D03*
X455511D03*
X457441Y563070D03*
X464490Y65000D03*
X464489D03*
X462559Y73915D03*
Y66930D03*
Y73915D03*
Y66930D03*
X460000Y76343D03*
Y79871D03*
X462559Y76343D03*
Y79871D03*
Y76342D03*
X460000Y86536D03*
Y84536D03*
Y83729D03*
Y86536D03*
Y84536D03*
Y170510D03*
Y170511D03*
Y179490D03*
Y179489D03*
Y270142D03*
X462559D03*
X460000Y263476D03*
Y265476D03*
Y266283D03*
Y263476D03*
Y265476D03*
Y273680D03*
X462559D03*
Y276085D03*
Y276085D03*
Y273681D03*
Y283070D03*
X464490Y285000D03*
X464489D03*
X462559Y283070D03*
Y346930D03*
X464490Y345000D03*
X464489D03*
X462559Y346930D03*
X460000Y356242D03*
Y359771D03*
X462559Y356242D03*
Y359771D03*
Y353915D03*
Y356242D03*
Y353915D03*
X460000Y366436D03*
Y364436D03*
Y363629D03*
Y366436D03*
Y364436D03*
Y450510D03*
Y450511D03*
Y459490D03*
Y459489D03*
Y543564D03*
Y545564D03*
Y546371D03*
Y543564D03*
Y545564D03*
Y553769D03*
Y550229D03*
X462559Y553769D03*
Y550229D03*
Y556085D03*
Y556085D03*
Y553769D03*
Y563070D03*
X464490Y565000D03*
X464489D03*
X462559Y563070D03*
X523276Y65000D03*
X525276D03*
X526260D03*
X523276D03*
X525276D03*
X523276Y285000D03*
X525276D03*
X526260D03*
X523276D03*
X525276D03*
X523276Y345000D03*
X525276D03*
X526260D03*
X523276D03*
X525276D03*
X523276Y565000D03*
X525276D03*
X526260D03*
X523276D03*
X525276D03*
G54D16*
X172953Y70700D03*
X167047D03*
X167072Y279300D03*
X172978D03*
X172953Y350700D03*
X167047D03*
Y559200D03*
X172953D03*
X307022Y180800D03*
X307047Y449100D03*
X312928Y180800D03*
X312953Y449100D03*
X457060Y70775D03*
X457022Y279300D03*
X457047Y350900D03*
Y559500D03*
X462965Y70775D03*
X462928Y279300D03*
X462953Y350900D03*
Y559500D03*
G54D17*
X167441Y83642D03*
X170000D03*
X172559D03*
Y79783D03*
X170000D03*
X167441D03*
X172559Y266321D03*
X170000D03*
X167441D03*
Y270179D03*
X170000D03*
X172559D03*
Y359771D03*
X170000D03*
X167441D03*
Y363629D03*
X170000D03*
X172559D03*
Y546371D03*
X170000D03*
X167441D03*
Y550229D03*
X170000D03*
X172559D03*
X307441Y189871D03*
Y193729D03*
Y436371D03*
Y440229D03*
X312559Y189871D03*
X310000D03*
Y193729D03*
X312559D03*
Y436371D03*
X310000D03*
Y440229D03*
X312559D03*
X457441Y83729D03*
Y79871D03*
Y266283D03*
Y270142D03*
Y359771D03*
Y363629D03*
Y546371D03*
Y550229D03*
X460000Y83729D03*
X462559D03*
Y79871D03*
X460000D03*
X462559Y266283D03*
X460000D03*
Y270142D03*
X462559D03*
Y359771D03*
X460000D03*
Y363629D03*
X462559D03*
Y546371D03*
X460000D03*
Y550229D03*
X462559D03*
G54D18*
X175850Y172047D03*
Y177953D03*
X175900Y452047D03*
Y457953D03*
X316010Y312052D03*
Y317958D03*
X454500Y172022D03*
Y177928D03*
X454400Y457953D03*
Y452047D03*
G54D19*
X188642Y172441D03*
X184783D03*
X188642Y177559D03*
Y175000D03*
X184783D03*
Y177559D03*
X188629Y457559D03*
Y455000D03*
Y452441D03*
X184771D03*
Y455000D03*
Y457559D03*
X324776Y312441D03*
Y315000D03*
Y317559D03*
X328634Y315000D03*
Y312441D03*
Y317559D03*
X441271Y172441D03*
Y175000D03*
Y177559D03*
X441371Y452441D03*
Y455000D03*
Y457559D03*
X445129Y172441D03*
Y177559D03*
Y175000D03*
X445229Y457559D03*
Y455000D03*
Y452441D03*
M02*
