G04 ================== begin FILE IDENTIFICATION RECORD ==================*
G04 Layout Name:  C:/Users/Raymond/Desktop/1-16_RF_PWR_DIV/1-16_Power_Splitter.brd*
G04 Film Name:    TOP_SOLDERPAD*
G04 File Format:  Gerber RS274X*
G04 File Origin:  Cadence Allegro 17.2-P019*
G04 Origin Date:  Tue Apr 30 12:10:11 2019*
G04 *
G04 Layer:  PIN/TOP*
G04 Layer:  BOARD GEOMETRY/DESIGN_OUTLINE*
G04 *
G04 Offset:    (0.000 0.000)*
G04 Mirror:    No*
G04 Mode:      Positive*
G04 Rotation:  0*
G04 FullContactRelief:  No*
G04 UndefLineWidth:     5.000*
G04 ================== end FILE IDENTIFICATION RECORD ====================*
%FSLAX25Y25*MOIN*%
%IR0*IPPOS*OFA0.00000B0.00000*MIA0B0*SFA1.00000B1.00000*%
%AMMACRO12*
4,1,8,.033461,.011811,
-.033461,.011811,
-.033461,-.011811,
-.019689,-.011811,
-.005909,-.003941,
.005909,-.003941,
.019689,-.011811,
.033461,-.011811,
.033461,.011811,
0.0*
%
%ADD12MACRO12*%
%ADD13C,.000008*%
%ADD16R,.035433X.023622*%
%ADD14R,.023622X.035433*%
%ADD15R,.012992X.016142*%
%ADD17R,.016142X.012992*%
%AMMACRO11*
4,1,8,-.033461,-.011811,
.033461,-.011811,
.033461,.011811,
.019689,.011811,
.005909,.003941,
-.005909,.003941,
-.019689,.011811,
-.033461,.011811,
-.033461,-.011811,
0.0*
%
%ADD11MACRO11*%
%ADD10R,.019685X.015748*%
%ADD18C,.005*%
G75*
%LPD*%
G75*
G54D10*
X96260Y65000D03*
Y285000D03*
Y345000D03*
Y565000D03*
X103740Y65000D03*
Y285000D03*
Y345000D03*
Y565000D03*
X236460Y65000D03*
X236260Y285000D03*
Y345000D03*
Y565000D03*
X243940Y65000D03*
X243740Y285000D03*
Y345000D03*
Y565000D03*
X336940Y315000D03*
X344420D03*
X386260Y65000D03*
Y285000D03*
Y345000D03*
Y565000D03*
X393740Y65000D03*
Y285000D03*
Y345000D03*
Y565000D03*
X526260Y65000D03*
Y285000D03*
Y345000D03*
Y565000D03*
X533740Y65000D03*
Y285000D03*
Y345000D03*
Y565000D03*
G54D11*
X100000Y61850D03*
Y281850D03*
Y341850D03*
Y561850D03*
X240200Y61850D03*
X240000Y281850D03*
Y341850D03*
Y561850D03*
X340680Y311850D03*
X390000Y61850D03*
Y281850D03*
Y341850D03*
Y561850D03*
X530000Y61850D03*
Y281850D03*
Y341850D03*
Y561850D03*
G54D12*
X100000Y68150D03*
Y288150D03*
Y348150D03*
Y568150D03*
X240200Y68150D03*
X240000Y288150D03*
Y348150D03*
Y568150D03*
X340680Y318150D03*
X390000Y68150D03*
Y288150D03*
Y348150D03*
Y568150D03*
X530000Y68150D03*
Y288150D03*
Y348150D03*
Y568150D03*
G54D13*
X106725Y65000D03*
X104724D03*
X103740D03*
X106724D03*
X104724D03*
X106725Y285000D03*
X104724D03*
X103740D03*
X106724D03*
X104724D03*
X106725Y345000D03*
X104724D03*
X103740D03*
X106724D03*
X104724D03*
X106725Y565000D03*
X104724D03*
X103740D03*
X106724D03*
X104724D03*
X165510Y65000D03*
X165511D03*
X167441Y73915D03*
Y66930D03*
X172559Y73915D03*
Y66930D03*
X167441Y73915D03*
X172559D03*
X167441Y66930D03*
X172559D03*
X170000Y76228D03*
Y79783D03*
X167441Y76228D03*
Y79783D03*
X172559Y76228D03*
Y79783D03*
X170000Y83642D03*
X167441Y76227D03*
X172559D03*
X170000Y86449D03*
Y84449D03*
Y86449D03*
Y84449D03*
X171930Y172441D03*
X170000Y170510D03*
Y170511D03*
X171930Y172441D03*
X171930Y177559D03*
X170000Y179490D03*
Y179489D03*
X171930Y177559D03*
X170000Y270179D03*
X167441D03*
X172559D03*
X170000Y263514D03*
Y265514D03*
Y266321D03*
Y263514D03*
Y265514D03*
Y273717D03*
X167441D03*
X172559D03*
X167441Y276085D03*
X172559D03*
X167441Y276085D03*
Y273718D03*
X172559Y276085D03*
Y273718D03*
X167441Y283070D03*
X172559D03*
X165510Y285000D03*
X165511D03*
X167441Y283070D03*
X172559D03*
X167441Y346930D03*
X172559D03*
X165510Y345000D03*
X165511D03*
X167441Y346930D03*
X172559D03*
X170000Y356243D03*
Y359771D03*
X172559Y356243D03*
Y359771D03*
X167441Y356243D03*
Y359771D03*
Y353915D03*
X172559D03*
X167441Y356242D03*
Y353915D03*
X172559Y356242D03*
Y353915D03*
X170000Y366436D03*
Y364436D03*
Y363629D03*
Y366436D03*
Y364436D03*
X171930Y457559D03*
Y452441D03*
X170000Y450510D03*
X171930Y457559D03*
X170000Y450511D03*
X171930Y452441D03*
X170000Y459490D03*
Y459489D03*
Y543564D03*
Y545564D03*
Y546371D03*
Y543564D03*
Y545564D03*
Y553770D03*
Y550229D03*
X167441Y553770D03*
Y550229D03*
X172559Y553770D03*
Y550229D03*
X167441Y556085D03*
X172559D03*
Y556085D03*
Y553770D03*
X167441Y556085D03*
Y553770D03*
Y563070D03*
X172559D03*
X165510Y565000D03*
X165511D03*
X167441Y563070D03*
X172559D03*
X174490Y65000D03*
X174489D03*
X181230Y172441D03*
X178915D03*
X178915D03*
X181229D03*
X181230Y175000D03*
Y177559D03*
X178915D03*
X178915D03*
X181229D03*
X174490Y285000D03*
X174489D03*
X174490Y345000D03*
X174489D03*
X181231Y455000D03*
Y457559D03*
Y452441D03*
X178915Y457559D03*
Y452441D03*
X178915Y457559D03*
X181231D03*
X178915Y452441D03*
X181231D03*
X174490Y565000D03*
X174489D03*
X184783Y172441D03*
Y175000D03*
Y177559D03*
X189449Y175000D03*
X188642D03*
X189449D03*
X184771Y455000D03*
Y457559D03*
Y452441D03*
X189436Y455000D03*
X188629D03*
X189436D03*
X191449Y175000D03*
X191449D03*
X191436Y455000D03*
X191436D03*
X233476Y65000D03*
X233476D03*
X233276Y285000D03*
X235276D03*
X233276D03*
X235276D03*
X233276Y345000D03*
X235276D03*
X233276D03*
X235276D03*
X233276Y565000D03*
X235276D03*
X233276D03*
X235276D03*
X235476Y65000D03*
X236460D03*
X235476D03*
X236260Y285000D03*
Y345000D03*
Y565000D03*
X305510Y175000D03*
X305511D03*
X305510Y455000D03*
X305511D03*
X307441Y176930D03*
X312559D03*
X314489Y175000D03*
X307441Y176930D03*
X314489Y175000D03*
X312559Y176930D03*
X310000Y186330D03*
Y189871D03*
X307441Y186330D03*
Y189871D03*
X312559Y186330D03*
Y189871D03*
X307441Y183915D03*
X312559D03*
X307441Y186330D03*
Y183915D03*
X312559Y186330D03*
Y183915D03*
X310000Y196536D03*
Y194536D03*
Y193729D03*
Y196536D03*
Y194536D03*
X311930Y312441D03*
X310000Y310511D03*
Y310511D03*
X311930Y312441D03*
X311930Y317559D03*
X310000Y319490D03*
Y319489D03*
X311930Y317559D03*
X310000Y440229D03*
X307441D03*
X312559D03*
X310000Y433564D03*
Y435564D03*
Y436371D03*
Y433564D03*
Y435564D03*
Y443782D03*
X307441D03*
X312559D03*
X307441Y446085D03*
X312559D03*
X307441Y446085D03*
Y443782D03*
X312559Y446085D03*
Y443782D03*
X307441Y453070D03*
X312559D03*
X314489Y455000D03*
X314489D03*
X312559Y453070D03*
X307441D03*
X321256Y315000D03*
Y312441D03*
X318915D03*
X318915D03*
X321256D03*
X321256Y317559D03*
X318915D03*
X318915D03*
X321256D03*
X329470Y315000D03*
X328663D03*
X331470D03*
X324776D03*
Y312441D03*
X331470Y315000D03*
X329470D03*
X324776Y317559D03*
X333956Y315000D03*
X335956D03*
X336940D03*
X333956D03*
X335956D03*
X394724Y65000D03*
X393740D03*
X394725D03*
X394724Y285000D03*
X393740D03*
X394725D03*
X394724Y345000D03*
X393740D03*
X394725D03*
X394724Y565000D03*
X393740D03*
X394725D03*
X396725Y65000D03*
X396724D03*
X396725Y285000D03*
X396724D03*
X396725Y345000D03*
X396724D03*
X396725Y565000D03*
X396724D03*
X438464Y175000D03*
X440464D03*
X438464D03*
X440464D03*
X438564Y455000D03*
X440564D03*
X438564D03*
X440564D03*
X448658Y172441D03*
X445129D03*
X448658D03*
X448658Y175000D03*
X445129D03*
X448658Y177559D03*
X445129D03*
X441271Y175000D03*
X448658Y177559D03*
X448771Y455000D03*
X445229D03*
X448771Y452441D03*
X445229D03*
X448771Y457559D03*
X445229D03*
X441371Y455000D03*
X448771Y457559D03*
Y452441D03*
X455510Y65000D03*
X455511D03*
X457441Y73915D03*
Y66930D03*
Y73915D03*
Y66930D03*
Y76343D03*
Y79871D03*
Y76342D03*
X451085Y172441D03*
X458070D03*
X451085D03*
X458070D03*
X451085Y177559D03*
X458070D03*
X451085D03*
X458070D03*
X457441Y270142D03*
Y273680D03*
Y276085D03*
Y276085D03*
Y273681D03*
Y283070D03*
X455510Y285000D03*
X455511D03*
X457441Y283070D03*
Y346930D03*
X455510Y345000D03*
X455511D03*
X457441Y346930D03*
Y356242D03*
Y359771D03*
Y353915D03*
Y356242D03*
Y353915D03*
X451085Y457559D03*
X458070D03*
X451085Y452441D03*
X458070D03*
X451085Y457559D03*
Y452441D03*
X458070D03*
Y457559D03*
X457441Y553769D03*
Y550229D03*
Y556085D03*
Y556085D03*
Y553769D03*
Y563070D03*
X455510Y565000D03*
X455511D03*
X457441Y563070D03*
X464490Y65000D03*
X464489D03*
X462559Y73915D03*
Y66930D03*
Y73915D03*
Y66930D03*
X460000Y76343D03*
Y79871D03*
X462559Y76343D03*
Y79871D03*
Y76342D03*
X460000Y86536D03*
Y84536D03*
Y83729D03*
Y86536D03*
Y84536D03*
Y170510D03*
Y170511D03*
Y179490D03*
Y179489D03*
Y270142D03*
X462559D03*
X460000Y263476D03*
Y265476D03*
Y266283D03*
Y263476D03*
Y265476D03*
Y273680D03*
X462559D03*
Y276085D03*
Y276085D03*
Y273681D03*
Y283070D03*
X464490Y285000D03*
X464489D03*
X462559Y283070D03*
Y346930D03*
X464490Y345000D03*
X464489D03*
X462559Y346930D03*
X460000Y356242D03*
Y359771D03*
X462559Y356242D03*
Y359771D03*
Y353915D03*
Y356242D03*
Y353915D03*
X460000Y366436D03*
Y364436D03*
Y363629D03*
Y366436D03*
Y364436D03*
Y450510D03*
Y450511D03*
Y459490D03*
Y459489D03*
Y543564D03*
Y545564D03*
Y546371D03*
Y543564D03*
Y545564D03*
Y553769D03*
Y550229D03*
X462559Y553769D03*
Y550229D03*
Y556085D03*
Y556085D03*
Y553769D03*
Y563070D03*
X464490Y565000D03*
X464489D03*
X462559Y563070D03*
X523276Y65000D03*
X525276D03*
X526260D03*
X523276D03*
X525276D03*
X523276Y285000D03*
X525276D03*
X526260D03*
X523276D03*
X525276D03*
X523276Y345000D03*
X525276D03*
X526260D03*
X523276D03*
X525276D03*
X523276Y565000D03*
X525276D03*
X526260D03*
X523276D03*
X525276D03*
G54D14*
X172953Y70700D03*
X167047D03*
X167072Y279300D03*
X172978D03*
X172953Y350700D03*
X167047D03*
Y559200D03*
X172953D03*
X307022Y180800D03*
X307047Y449100D03*
X312928Y180800D03*
X312953Y449100D03*
X457060Y70775D03*
X457022Y279300D03*
X457047Y350900D03*
Y559500D03*
X462965Y70775D03*
X462928Y279300D03*
X462953Y350900D03*
Y559500D03*
G54D15*
X167441Y83642D03*
X170000D03*
X172559D03*
Y79783D03*
X170000D03*
X167441D03*
X172559Y266321D03*
X170000D03*
X167441D03*
Y270179D03*
X170000D03*
X172559D03*
Y359771D03*
X170000D03*
X167441D03*
Y363629D03*
X170000D03*
X172559D03*
Y546371D03*
X170000D03*
X167441D03*
Y550229D03*
X170000D03*
X172559D03*
X307441Y189871D03*
Y193729D03*
Y436371D03*
Y440229D03*
X312559Y189871D03*
X310000D03*
Y193729D03*
X312559D03*
Y436371D03*
X310000D03*
Y440229D03*
X312559D03*
X457441Y83729D03*
Y79871D03*
Y266283D03*
Y270142D03*
Y359771D03*
Y363629D03*
Y546371D03*
Y550229D03*
X460000Y83729D03*
X462559D03*
Y79871D03*
X460000D03*
X462559Y266283D03*
X460000D03*
Y270142D03*
X462559D03*
Y359771D03*
X460000D03*
Y363629D03*
X462559D03*
Y546371D03*
X460000D03*
Y550229D03*
X462559D03*
G54D16*
X175850Y172047D03*
Y177953D03*
X175900Y452047D03*
Y457953D03*
X316010Y312052D03*
Y317958D03*
X454500Y172022D03*
Y177928D03*
X454400Y457953D03*
Y452047D03*
G54D17*
X188642Y172441D03*
X184783D03*
X188642Y177559D03*
Y175000D03*
X184783D03*
Y177559D03*
X188629Y457559D03*
Y455000D03*
Y452441D03*
X184771D03*
Y455000D03*
Y457559D03*
X324776Y312441D03*
Y315000D03*
Y317559D03*
X328634Y315000D03*
Y312441D03*
Y317559D03*
X441271Y172441D03*
Y175000D03*
Y177559D03*
X441371Y452441D03*
Y455000D03*
Y457559D03*
X445129Y172441D03*
Y177559D03*
Y175000D03*
X445229Y457559D03*
Y455000D03*
Y452441D03*
G54D18*
G01X0Y0D02*
Y630000D01*
X630000D01*
Y0D01*
X0D01*
M02*
